<?xml version="1.0" encoding="UTF-8" standalone="no"?>
<!-- Created with Inkscape (http://www.inkscape.org/) -->

<svg
   xmlns:ns0="http://www.iki.fi/pav/software/textext/"
   xmlns:dc="http://purl.org/dc/elements/1.1/"
   xmlns:cc="http://creativecommons.org/ns#"
   xmlns:rdf="http://www.w3.org/1999/02/22-rdf-syntax-ns#"
   xmlns:svg="http://www.w3.org/2000/svg"
   xmlns="http://www.w3.org/2000/svg"
   xmlns:xlink="http://www.w3.org/1999/xlink"
   xmlns:sodipodi="http://sodipodi.sourceforge.net/DTD/sodipodi-0.dtd"
   xmlns:inkscape="http://www.inkscape.org/namespaces/inkscape"
   width="790.32599"
   height="369.77002"
   id="svg2"
   version="1.1"
   inkscape:version="0.48.3.1 r9886"
   sodipodi:docname="algModoDeOperacaoP1.svg">
  <sodipodi:namedview
     id="base"
     pagecolor="#ffffff"
     bordercolor="#666666"
     borderopacity="1.0"
     inkscape:pageopacity="0.0"
     inkscape:pageshadow="2"
     inkscape:zoom="0.35"
     inkscape:cx="-29.54906"
     inkscape:cy="268.7174"
     inkscape:document-units="px"
     inkscape:current-layer="layer1"
     showgrid="false"
     inkscape:window-width="1366"
     inkscape:window-height="709"
     inkscape:window-x="0"
     inkscape:window-y="27"
     inkscape:window-maximized="1"
     fit-margin-top="0"
     fit-margin-left="0"
     fit-margin-right="0"
     fit-margin-bottom="0" />
  <defs
     id="defs4" />
  <metadata
     id="metadata7">
    <rdf:RDF>
      <cc:Work
         rdf:about="">
        <dc:format>image/svg+xml</dc:format>
        <dc:type
           rdf:resource="http://purl.org/dc/dcmitype/StillImage" />
        <dc:title />
      </cc:Work>
    </rdf:RDF>
  </metadata>
  <g
     inkscape:label="Camada 1"
     inkscape:groupmode="layer"
     id="layer1"
     transform="translate(40.450945,-153.40063)">
    <g
       ns0:text="$\\alpha= 2^{62}$\n"
       ns0:preamble=""
       transform="matrix(5.1627663,0,0,5.1627663,-837.50097,-499.81834)"
       id="g30502">
      <defs
         id="defs30504">
        <g
           id="g30506">
          <symbol
             style="overflow:visible"
             overflow="visible"
             id="textext-5ef8117b-0">
            <path
               inkscape:connector-curvature="0"
               style="stroke:none"
               d="m 4.75,-2.359375 c 0,-1.5625 -0.921875,-2.046875 -1.65625,-2.046875 -1.375,0 -2.6875,1.421875 -2.6875,2.828125 0,0.9375 0.59375,1.6875 1.625,1.6875 0.625,0 1.34375,-0.234375 2.09375,-0.84375 0.125,0.53125 0.453125,0.84375 0.90625,0.84375 0.53125,0 0.84375,-0.546875 0.84375,-0.703125 0,-0.078125 -0.0625,-0.109375 -0.125,-0.109375 -0.0625,0 -0.09375,0.03125 -0.125,0.109375 -0.1875,0.484375 -0.546875,0.484375 -0.5625,0.484375 -0.3125,0 -0.3125,-0.78125 -0.3125,-1.015625 0,-0.203125 0,-0.234375 0.109375,-0.34375 C 5.796875,-2.65625 6,-3.8125 6,-3.8125 6,-3.84375 5.984375,-3.921875 5.875,-3.921875 c -0.09375,0 -0.09375,0.03125 -0.140625,0.21875 -0.1875,0.625 -0.515625,1.375 -0.984375,1.96875 z m -0.65625,1.375 c -0.890625,0.765625 -1.65625,0.875 -2.046875,0.875 -0.59375,0 -0.90625,-0.453125 -0.90625,-1.09375 0,-0.484375 0.265625,-1.5625 0.578125,-2.0625 C 2.1875,-4 2.734375,-4.1875 3.078125,-4.1875 c 0.984375,0 0.984375,1.3125 0.984375,2.078125 0,0.375 0,0.953125 0.03125,1.125 z m 0,0"
               id="path30509" />
          </symbol>
          <symbol
             style="overflow:visible"
             overflow="visible"
             id="textext-5ef8117b-1">
            <path
               inkscape:connector-curvature="0"
               style="stroke:none"
               d="m 6.84375,-3.265625 c 0.15625,0 0.34375,0 0.34375,-0.1875 C 7.1875,-3.65625 7,-3.65625 6.859375,-3.65625 l -5.96875,0 c -0.140625,0 -0.328125,0 -0.328125,0.203125 0,0.1875 0.1875,0.1875 0.328125,0.1875 z m 0.015625,1.9375 c 0.140625,0 0.328125,0 0.328125,-0.203125 0,-0.1875 -0.1875,-0.1875 -0.34375,-0.1875 l -5.953125,0 c -0.140625,0 -0.328125,0 -0.328125,0.1875 0,0.203125 0.1875,0.203125 0.328125,0.203125 z m 0,0"
               id="path30512" />
          </symbol>
          <symbol
             style="overflow:visible"
             overflow="visible"
             id="textext-5ef8117b-2">
            <path
               inkscape:connector-curvature="0"
               style="stroke:none"
               d="m 1.265625,-0.765625 1.0625,-1.03125 c 1.546875,-1.375 2.140625,-1.90625 2.140625,-2.90625 0,-1.140625 -0.890625,-1.9375 -2.109375,-1.9375 -1.125,0 -1.859375,0.921875 -1.859375,1.8125 0,0.546875 0.5,0.546875 0.53125,0.546875 0.171875,0 0.515625,-0.109375 0.515625,-0.53125 0,-0.25 -0.1875,-0.515625 -0.53125,-0.515625 -0.078125,0 -0.09375,0 -0.125,0.015625 0.21875,-0.65625 0.765625,-1.015625 1.34375,-1.015625 0.90625,0 1.328125,0.8125 1.328125,1.625 C 3.5625,-3.90625 3.078125,-3.125 2.515625,-2.5 l -1.90625,2.125 C 0.5,-0.265625 0.5,-0.234375 0.5,0 l 3.703125,0 0.265625,-1.734375 -0.234375,0 C 4.171875,-1.4375 4.109375,-1 4,-0.84375 3.9375,-0.765625 3.28125,-0.765625 3.0625,-0.765625 z m 0,0"
               id="path30515" />
          </symbol>
          <symbol
             style="overflow:visible"
             overflow="visible"
             id="textext-5ef8117b-3">
            <path
               inkscape:connector-curvature="0"
               style="stroke:none"
               d="m 1.046875,-2.28125 c 0,-0.5625 0.046875,-1.078125 0.3125,-1.515625 0.234375,-0.375 0.609375,-0.625 1.0625,-0.625 0.203125,0 0.484375,0.046875 0.625,0.234375 C 2.875,-4.171875 2.71875,-4.046875 2.71875,-3.84375 c 0,0.171875 0.125,0.328125 0.328125,0.328125 0.21875,0 0.34375,-0.140625 0.34375,-0.34375 0,-0.40625 -0.296875,-0.765625 -0.984375,-0.765625 -1,0 -2.03125,0.921875 -2.03125,2.421875 0,1.796875 0.84375,2.34375 1.625,2.34375 0.84375,0 1.578125,-0.65625 1.578125,-1.5625 0,-0.890625 -0.703125,-1.546875 -1.515625,-1.546875 -0.5625,0 -0.859375,0.375 -1.015625,0.6875 z M 2,-0.078125 c -0.359375,0 -0.625,-0.203125 -0.78125,-0.515625 C 1.125,-0.796875 1.0625,-1.15625 1.0625,-1.5625 c 0,-0.6875 0.40625,-1.203125 0.96875,-1.203125 0.3125,0 0.53125,0.125 0.703125,0.375 0.171875,0.265625 0.171875,0.5625 0.171875,0.96875 0,0.390625 0,0.6875 -0.1875,0.96875 -0.15625,0.234375 -0.390625,0.375 -0.71875,0.375 z m 0,0"
               id="path30518" />
          </symbol>
          <symbol
             style="overflow:visible"
             overflow="visible"
             id="textext-5ef8117b-4">
            <path
               inkscape:connector-curvature="0"
               style="stroke:none"
               d="m 3.515625,-1.265625 -0.234375,0 c -0.015625,0.15625 -0.09375,0.5625 -0.1875,0.625 -0.046875,0.046875 -0.578125,0.046875 -0.6875,0.046875 l -1.28125,0 c 0.734375,-0.640625 0.984375,-0.84375 1.390625,-1.171875 0.515625,-0.40625 1,-0.84375 1,-1.5 0,-0.84375 -0.734375,-1.359375 -1.625,-1.359375 -0.859375,0 -1.453125,0.609375 -1.453125,1.25 0,0.34375 0.296875,0.390625 0.375,0.390625 0.15625,0 0.359375,-0.125 0.359375,-0.375 0,-0.125 -0.046875,-0.375 -0.40625,-0.375 C 0.984375,-4.21875 1.453125,-4.375 1.78125,-4.375 c 0.703125,0 1.0625,0.546875 1.0625,1.109375 0,0.609375 -0.4375,1.078125 -0.65625,1.328125 L 0.515625,-0.265625 C 0.4375,-0.203125 0.4375,-0.1875 0.4375,0 l 2.875,0 z m 0,0"
               id="path30521" />
          </symbol>
        </g>
      </defs>
      <g
         id="textext-5ef8117b-5">
        <g
           style="fill:#000000;fill-opacity:1"
           id="g30524">
          <use
             height="542.29431"
             width="993.52856"
             xlink:href="#textext-5ef8117b-0"
             x="223.43201"
             y="134.765"
             id="use30526" />
        </g>
        <g
           style="fill:#000000;fill-opacity:1"
           id="g30528">
          <use
             height="542.29431"
             width="993.52856"
             xlink:href="#textext-5ef8117b-1"
             x="232.60899"
             y="134.765"
             id="use30530" />
        </g>
        <g
           style="fill:#000000;fill-opacity:1"
           id="g30532">
          <use
             height="542.29431"
             width="993.52856"
             xlink:href="#textext-5ef8117b-2"
             x="243.12752"
             y="134.765"
             id="use30534" />
        </g>
        <g
           style="fill:#000000;fill-opacity:1"
           id="g30536">
          <use
             height="542.29431"
             width="993.52856"
             xlink:href="#textext-5ef8117b-3"
             x="248.10699"
             y="131.14999"
             id="use30538" />
          <use
             height="542.29431"
             width="993.52856"
             xlink:href="#textext-5ef8117b-4"
             x="252.07858"
             y="131.14999"
             id="use30540" />
        </g>
      </g>
    </g>
    <g
       id="g31848"
       transform="matrix(5.1627663,0,0,5.1627663,-1196.7209,-337.19275)"
       ns0:preamble=""
       ns0:text="$f(x)=\\left\\{ \\begin{array}{ll}\n\t\t       \\left (  c_{\\left \\lfloor \\frac{x}{\\omega} \\right \\rfloor }+1 \\right) \\alpha  &amp;, \\left \\lfloor \\frac{x}{\\omega} \\right \\rfloor &gt;0 \\\\[5mm]\n\t\t\t0 &amp; , \\textrm{c.c} \\\\\n\\end{array} \\right.  \\;$">
      <defs
         id="defs31850">
        <g
           id="g31852">
          <symbol
             id="textext-760913f0-0"
             overflow="visible"
             style="overflow:visible">
            <path
               id="path31855"
               d="m 3.65625,-3.984375 0.859375,0 c 0.203125,0 0.296875,0 0.296875,-0.203125 0,-0.109375 -0.09375,-0.109375 -0.265625,-0.109375 l -0.828125,0 0.203125,-1.140625 c 0.046875,-0.203125 0.1875,-0.90625 0.25,-1.03125 0.078125,-0.1875 0.25,-0.34375 0.46875,-0.34375 0.03125,0 0.296875,0 0.484375,0.1875 -0.4375,0.03125 -0.546875,0.390625 -0.546875,0.53125 0,0.234375 0.1875,0.359375 0.375,0.359375 C 5.21875,-5.734375 5.5,-5.96875 5.5,-6.34375 c 0,-0.453125 -0.453125,-0.6875 -0.859375,-0.6875 -0.34375,0 -0.96875,0.1875 -1.265625,1.171875 -0.0625,0.203125 -0.09375,0.3125 -0.328125,1.5625 l -0.6875,0 c -0.203125,0 -0.3125,0 -0.3125,0.1875 0,0.125 0.09375,0.125 0.28125,0.125 l 0.65625,0 -0.734375,3.9375 c -0.1875,0.96875 -0.359375,1.875 -0.875,1.875 -0.046875,0 -0.28125,0 -0.484375,-0.1875 C 1.359375,1.609375 1.453125,1.25 1.453125,1.109375 1.453125,0.875 1.265625,0.75 1.078125,0.75 0.8125,0.75 0.53125,0.984375 0.53125,1.359375 c 0,0.4375 0.4375,0.6875 0.84375,0.6875 0.546875,0 0.953125,-0.59375 1.125,-0.96875 0.328125,-0.625 0.546875,-1.828125 0.5625,-1.90625 z m 0,0"
               style="stroke:none"
               inkscape:connector-curvature="0" />
          </symbol>
          <symbol
             id="textext-760913f0-1"
             overflow="visible"
             style="overflow:visible">
            <path
               id="path31858"
               d="M 3.328125,-3.015625 C 3.390625,-3.265625 3.625,-4.1875 4.3125,-4.1875 c 0.046875,0 0.296875,0 0.5,0.125 C 4.53125,-4 4.34375,-3.765625 4.34375,-3.515625 c 0,0.15625 0.109375,0.34375 0.375,0.34375 0.21875,0 0.53125,-0.171875 0.53125,-0.578125 0,-0.515625 -0.578125,-0.65625 -0.921875,-0.65625 -0.578125,0 -0.921875,0.53125 -1.046875,0.75 -0.25,-0.65625 -0.78125,-0.75 -1.078125,-0.75 -1.03125,0 -1.609375,1.28125 -1.609375,1.53125 0,0.109375 0.109375,0.109375 0.125,0.109375 0.078125,0 0.109375,-0.03125 0.125,-0.109375 0.34375,-1.0625 1,-1.3125 1.34375,-1.3125 0.1875,0 0.53125,0.09375 0.53125,0.671875 0,0.3125 -0.171875,0.96875 -0.53125,2.375 -0.15625,0.609375 -0.515625,1.03125 -0.953125,1.03125 -0.0625,0 -0.28125,0 -0.5,-0.125 0.25,-0.0625 0.46875,-0.265625 0.46875,-0.546875 0,-0.265625 -0.21875,-0.34375 -0.359375,-0.34375 -0.3125,0 -0.546875,0.25 -0.546875,0.578125 0,0.453125 0.484375,0.65625 0.921875,0.65625 0.671875,0 1.03125,-0.703125 1.046875,-0.75 0.125,0.359375 0.484375,0.75 1.078125,0.75 1.03125,0 1.59375,-1.28125 1.59375,-1.53125 0,-0.109375 -0.078125,-0.109375 -0.109375,-0.109375 -0.09375,0 -0.109375,0.046875 -0.140625,0.109375 -0.328125,1.078125 -1,1.3125 -1.3125,1.3125 -0.390625,0 -0.546875,-0.3125 -0.546875,-0.65625 0,-0.21875 0.046875,-0.4375 0.15625,-0.875 z m 0,0"
               style="stroke:none"
               inkscape:connector-curvature="0" />
          </symbol>
          <symbol
             id="textext-760913f0-2"
             overflow="visible"
             style="overflow:visible">
            <path
               id="path31861"
               d="m 3.953125,-3.78125 c -0.171875,0 -0.296875,0 -0.4375,0.125 -0.171875,0.15625 -0.1875,0.328125 -0.1875,0.390625 0,0.25 0.1875,0.359375 0.375,0.359375 0.28125,0 0.546875,-0.25 0.546875,-0.640625 0,-0.484375 -0.46875,-0.859375 -1.171875,-0.859375 -1.34375,0 -2.671875,1.421875 -2.671875,2.828125 0,0.90625 0.578125,1.6875 1.625,1.6875 1.421875,0 2.25,-1.0625 2.25,-1.171875 0,-0.0625 -0.046875,-0.140625 -0.109375,-0.140625 -0.0625,0 -0.078125,0.03125 -0.140625,0.109375 -0.78125,0.984375 -1.875,0.984375 -1.984375,0.984375 -0.625,0 -0.90625,-0.484375 -0.90625,-1.09375 0,-0.40625 0.203125,-1.375 0.546875,-1.984375 0.3125,-0.578125 0.859375,-1 1.40625,-1 0.328125,0 0.71875,0.125 0.859375,0.40625 z m 0,0"
               style="stroke:none"
               inkscape:connector-curvature="0" />
          </symbol>
          <symbol
             id="textext-760913f0-3"
             overflow="visible"
             style="overflow:visible">
            <path
               id="path31864"
               d="m 4.75,-2.359375 c 0,-1.5625 -0.921875,-2.046875 -1.65625,-2.046875 -1.375,0 -2.6875,1.421875 -2.6875,2.828125 0,0.9375 0.59375,1.6875 1.625,1.6875 0.625,0 1.34375,-0.234375 2.09375,-0.84375 0.125,0.53125 0.453125,0.84375 0.90625,0.84375 0.53125,0 0.84375,-0.546875 0.84375,-0.703125 0,-0.078125 -0.0625,-0.109375 -0.125,-0.109375 -0.0625,0 -0.09375,0.03125 -0.125,0.109375 -0.1875,0.484375 -0.546875,0.484375 -0.5625,0.484375 -0.3125,0 -0.3125,-0.78125 -0.3125,-1.015625 0,-0.203125 0,-0.234375 0.109375,-0.34375 C 5.796875,-2.65625 6,-3.8125 6,-3.8125 6,-3.84375 5.984375,-3.921875 5.875,-3.921875 c -0.09375,0 -0.09375,0.03125 -0.140625,0.21875 -0.1875,0.625 -0.515625,1.375 -0.984375,1.96875 z m -0.65625,1.375 c -0.890625,0.765625 -1.65625,0.875 -2.046875,0.875 -0.59375,0 -0.90625,-0.453125 -0.90625,-1.09375 0,-0.484375 0.265625,-1.5625 0.578125,-2.0625 C 2.1875,-4 2.734375,-4.1875 3.078125,-4.1875 c 0.984375,0 0.984375,1.3125 0.984375,2.078125 0,0.375 0,0.953125 0.03125,1.125 z m 0,0"
               style="stroke:none"
               inkscape:connector-curvature="0" />
          </symbol>
          <symbol
             id="textext-760913f0-4"
             overflow="visible"
             style="overflow:visible">
            <path
               id="path31867"
               d="m 2.03125,-0.015625 c 0,-0.65625 -0.25,-1.046875 -0.640625,-1.046875 -0.328125,0 -0.53125,0.25 -0.53125,0.53125 C 0.859375,-0.265625 1.0625,0 1.390625,0 1.5,0 1.640625,-0.046875 1.734375,-0.125 1.765625,-0.15625 1.78125,-0.15625 1.78125,-0.15625 c 0.015625,0 0.015625,0 0.015625,0.140625 0,0.75 -0.34375,1.34375 -0.671875,1.671875 -0.109375,0.109375 -0.109375,0.125 -0.109375,0.15625 0,0.078125 0.046875,0.109375 0.09375,0.109375 0.109375,0 0.921875,-0.765625 0.921875,-1.9375 z m 0,0"
               style="stroke:none"
               inkscape:connector-curvature="0" />
          </symbol>
          <symbol
             id="textext-760913f0-5"
             overflow="visible"
             style="overflow:visible">
            <path
               id="path31870"
               d="M 6.734375,-2.265625 C 6.84375,-2.328125 6.921875,-2.375 6.921875,-2.5 c 0,-0.109375 -0.078125,-0.15625 -0.1875,-0.21875 L 1.203125,-5.3125 C 1.078125,-5.390625 1.0625,-5.390625 1.03125,-5.390625 c -0.109375,0 -0.203125,0.09375 -0.203125,0.203125 0,0.09375 0.046875,0.15625 0.1875,0.21875 L 6.25,-2.5 1.015625,-0.015625 c -0.140625,0.0625 -0.1875,0.125 -0.1875,0.21875 0,0.109375 0.09375,0.203125 0.203125,0.203125 0.03125,0 0.046875,0 0.171875,-0.078125 z m 0,0"
               style="stroke:none"
               inkscape:connector-curvature="0" />
          </symbol>
          <symbol
             id="textext-760913f0-6"
             overflow="visible"
             style="overflow:visible">
            <path
               id="path31873"
               d="m 3.296875,2.390625 c 0,-0.03125 0,-0.046875 -0.171875,-0.21875 C 1.890625,0.921875 1.5625,-0.96875 1.5625,-2.5 c 0,-1.734375 0.375,-3.46875 1.609375,-4.703125 0.125,-0.125 0.125,-0.140625 0.125,-0.171875 0,-0.078125 -0.03125,-0.109375 -0.09375,-0.109375 -0.109375,0 -1,0.6875 -1.59375,1.953125 -0.5,1.09375 -0.625,2.203125 -0.625,3.03125 0,0.78125 0.109375,1.984375 0.65625,3.125 C 2.25,1.84375 3.09375,2.5 3.203125,2.5 c 0.0625,0 0.09375,-0.03125 0.09375,-0.109375 z m 0,0"
               style="stroke:none"
               inkscape:connector-curvature="0" />
          </symbol>
          <symbol
             id="textext-760913f0-7"
             overflow="visible"
             style="overflow:visible">
            <path
               id="path31876"
               d="m 2.875,-2.5 c 0,-0.765625 -0.109375,-1.96875 -0.65625,-3.109375 -0.59375,-1.21875 -1.453125,-1.875 -1.546875,-1.875 -0.0625,0 -0.109375,0.046875 -0.109375,0.109375 0,0.03125 0,0.046875 0.1875,0.234375 0.984375,0.984375 1.546875,2.5625 1.546875,4.640625 0,1.71875 -0.359375,3.46875 -1.59375,4.71875 C 0.5625,2.34375 0.5625,2.359375 0.5625,2.390625 0.5625,2.453125 0.609375,2.5 0.671875,2.5 0.765625,2.5 1.671875,1.8125 2.25,0.546875 2.765625,-0.546875 2.875,-1.65625 2.875,-2.5 z m 0,0"
               style="stroke:none"
               inkscape:connector-curvature="0" />
          </symbol>
          <symbol
             id="textext-760913f0-8"
             overflow="visible"
             style="overflow:visible">
            <path
               id="path31879"
               d="m 6.84375,-3.265625 c 0.15625,0 0.34375,0 0.34375,-0.1875 C 7.1875,-3.65625 7,-3.65625 6.859375,-3.65625 l -5.96875,0 c -0.140625,0 -0.328125,0 -0.328125,0.203125 0,0.1875 0.1875,0.1875 0.328125,0.1875 z m 0.015625,1.9375 c 0.140625,0 0.328125,0 0.328125,-0.203125 0,-0.1875 -0.1875,-0.1875 -0.34375,-0.1875 l -5.953125,0 c -0.140625,0 -0.328125,0 -0.328125,0.1875 0,0.203125 0.1875,0.203125 0.328125,0.203125 z m 0,0"
               style="stroke:none"
               inkscape:connector-curvature="0" />
          </symbol>
          <symbol
             id="textext-760913f0-9"
             overflow="visible"
             style="overflow:visible">
            <path
               id="path31882"
               d="m 4.078125,-2.296875 2.78125,0 C 7,-2.296875 7.1875,-2.296875 7.1875,-2.5 7.1875,-2.6875 7,-2.6875 6.859375,-2.6875 l -2.78125,0 0,-2.796875 c 0,-0.140625 0,-0.328125 -0.203125,-0.328125 -0.203125,0 -0.203125,0.1875 -0.203125,0.328125 l 0,2.796875 -2.78125,0 c -0.140625,0 -0.328125,0 -0.328125,0.1875 0,0.203125 0.1875,0.203125 0.328125,0.203125 l 2.78125,0 0,2.796875 c 0,0.140625 0,0.328125 0.203125,0.328125 0.203125,0 0.203125,-0.1875 0.203125,-0.328125 z m 0,0"
               style="stroke:none"
               inkscape:connector-curvature="0" />
          </symbol>
          <symbol
             id="textext-760913f0-10"
             overflow="visible"
             style="overflow:visible">
            <path
               id="path31885"
               d="m 2.9375,-6.375 c 0,-0.25 0,-0.265625 -0.234375,-0.265625 C 2.078125,-6 1.203125,-6 0.890625,-6 l 0,0.3125 c 0.203125,0 0.78125,0 1.296875,-0.265625 l 0,5.171875 c 0,0.359375 -0.03125,0.46875 -0.921875,0.46875 l -0.3125,0 0,0.3125 c 0.34375,-0.03125 1.203125,-0.03125 1.609375,-0.03125 0.390625,0 1.265625,0 1.609375,0.03125 l 0,-0.3125 -0.3125,0 c -0.90625,0 -0.921875,-0.109375 -0.921875,-0.46875 z m 0,0"
               style="stroke:none"
               inkscape:connector-curvature="0" />
          </symbol>
          <symbol
             id="textext-760913f0-11"
             overflow="visible"
             style="overflow:visible">
            <path
               id="path31888"
               d="m 4.578125,-3.1875 c 0,-0.796875 -0.046875,-1.59375 -0.390625,-2.328125 -0.453125,-0.96875 -1.28125,-1.125 -1.6875,-1.125 -0.609375,0 -1.328125,0.265625 -1.75,1.1875 -0.3125,0.6875 -0.359375,1.46875 -0.359375,2.265625 0,0.75 0.03125,1.640625 0.453125,2.40625 0.421875,0.796875 1.15625,1 1.640625,1 0.53125,0 1.296875,-0.203125 1.734375,-1.15625 0.3125,-0.6875 0.359375,-1.46875 0.359375,-2.25 z M 2.484375,0 C 2.09375,0 1.5,-0.25 1.328125,-1.203125 1.21875,-1.796875 1.21875,-2.71875 1.21875,-3.3125 c 0,-0.640625 0,-1.296875 0.078125,-1.828125 0.1875,-1.1875 0.9375,-1.28125 1.1875,-1.28125 0.328125,0 0.984375,0.1875 1.171875,1.171875 0.109375,0.5625 0.109375,1.3125 0.109375,1.9375 0,0.75 0,1.421875 -0.109375,2.0625 C 3.5,-0.296875 2.9375,0 2.484375,0 z m 0,0"
               style="stroke:none"
               inkscape:connector-curvature="0" />
          </symbol>
          <symbol
             id="textext-760913f0-12"
             overflow="visible"
             style="overflow:visible">
            <path
               id="path31891"
               d="m 1.171875,-2.171875 c 0,-1.625 0.8125,-2.046875 1.34375,-2.046875 0.09375,0 0.71875,0.015625 1.0625,0.375 -0.40625,0.03125 -0.46875,0.328125 -0.46875,0.453125 0,0.265625 0.1875,0.453125 0.453125,0.453125 0.265625,0 0.46875,-0.15625 0.46875,-0.46875 0,-0.671875 -0.765625,-1.0625 -1.53125,-1.0625 -1.25,0 -2.15625,1.078125 -2.15625,2.3125 0,1.28125 0.984375,2.265625 2.140625,2.265625 1.328125,0 1.65625,-1.203125 1.65625,-1.296875 0,-0.09375 -0.109375,-0.09375 -0.140625,-0.09375 -0.078125,0 -0.109375,0.03125 -0.125,0.09375 -0.28125,0.921875 -0.9375,1.046875 -1.296875,1.046875 -0.53125,0 -1.40625,-0.421875 -1.40625,-2.03125 z m 0,0"
               style="stroke:none"
               inkscape:connector-curvature="0" />
          </symbol>
          <symbol
             id="textext-760913f0-13"
             overflow="visible"
             style="overflow:visible">
            <path
               id="path31894"
               d="m 1.90625,-0.53125 c 0,-0.28125 -0.234375,-0.53125 -0.515625,-0.53125 -0.296875,0 -0.53125,0.25 -0.53125,0.53125 C 0.859375,-0.234375 1.09375,0 1.390625,0 1.671875,0 1.90625,-0.234375 1.90625,-0.53125 z m 0,0"
               style="stroke:none"
               inkscape:connector-curvature="0" />
          </symbol>
          <symbol
             id="textext-760913f0-14"
             overflow="visible"
             style="overflow:visible">
            <path
               id="path31897"
               d="M 5.03125,4.515625 C 5.03125,3.703125 5.25,1.796875 7.015625,0.53125 7.140625,0.4375 7.15625,0.421875 7.15625,0.25 7.15625,0.015625 7.140625,0.015625 6.890625,0.015625 l -0.15625,0 c -2.140625,1.15625 -2.90625,3.03125 -2.90625,4.5 l 0,4.28125 c 0,0.265625 0.015625,0.28125 0.28125,0.28125 l 0.640625,0 c 0.265625,0 0.28125,-0.015625 0.28125,-0.28125 z m 0,0"
               style="stroke:none"
               inkscape:connector-curvature="0" />
          </symbol>
          <symbol
             id="textext-760913f0-15"
             overflow="visible"
             style="overflow:visible">
            <path
               id="path31900"
               d="M 5.03125,0.171875 C 5.03125,-0.09375 5.015625,-0.09375 4.75,-0.09375 l -0.640625,0 c -0.265625,0 -0.28125,0 -0.28125,0.265625 l 0,2.65625 c 0,0.25 0.015625,0.265625 0.28125,0.265625 l 0.640625,0 c 0.265625,0 0.28125,-0.015625 0.28125,-0.265625 z m 0,0"
               style="stroke:none"
               inkscape:connector-curvature="0" />
          </symbol>
          <symbol
             id="textext-760913f0-16"
             overflow="visible"
             style="overflow:visible">
            <path
               id="path31903"
               d="m 3.828125,17.78125 c 0,0.25 0.015625,0.265625 0.28125,0.265625 l 0.640625,0 c 0.265625,0 0.28125,-0.01563 0.28125,-0.265625 l 0,-4.21875 c 0,-1.203125 -0.515625,-3.234375 -2.75,-4.59375 2.25,-1.359375 2.75,-3.421875 2.75,-4.59375 l 0,-4.203125 C 5.03125,-0.09375 5.015625,-0.09375 4.75,-0.09375 l -0.640625,0 c -0.265625,0 -0.28125,0 -0.28125,0.265625 l 0,4.21875 c 0,0.828125 -0.171875,2.90625 -2.015625,4.296875 -0.109375,0.09375 -0.125,0.109375 -0.125,0.28125 0,0.1875 0.015625,0.1875 0.125,0.28125 0.265625,0.203125 0.953125,0.734375 1.421875,1.734375 0.390625,0.796875 0.59375,1.6875 0.59375,2.578125 z m 0,0"
               style="stroke:none"
               inkscape:connector-curvature="0" />
          </symbol>
          <symbol
             id="textext-760913f0-17"
             overflow="visible"
             style="overflow:visible">
            <path
               id="path31906"
               d="m 6.890625,8.96875 c 0.25,0 0.265625,-0.015625 0.265625,-0.25 C 7.15625,8.546875 7.140625,8.53125 7.109375,8.5 6.796875,8.28125 6.078125,7.765625 5.609375,6.84375 5.21875,6.09375 5.03125,5.328125 5.03125,4.453125 l 0,-4.28125 C 5.03125,-0.09375 5.015625,-0.09375 4.75,-0.09375 l -0.640625,0 c -0.265625,0 -0.28125,0 -0.28125,0.265625 l 0,4.28125 c 0,1.484375 0.765625,3.359375 2.90625,4.515625 z m 0,0"
               style="stroke:none"
               inkscape:connector-curvature="0" />
          </symbol>
          <symbol
             id="textext-760913f0-18"
             overflow="visible"
             style="overflow:visible">
            <path
               id="path31909"
               d="M 5.140625,17.421875 C 5.15625,17.4375 5.25,17.53125 5.25,17.53125 l 0.21875,0 c 0.03125,0 0.109375,0 0.109375,-0.09375 0,-0.04687 -0.015625,-0.0625 -0.03125,-0.09375 -0.359375,-0.359375 -0.90625,-0.90625 -1.515625,-2 -1.078125,-1.921875 -1.484375,-4.375 -1.484375,-6.765625 0,-4.4375 1.265625,-7.03125 3,-8.796875 0.03125,-0.03125 0.03125,-0.0625 0.03125,-0.078125 0,-0.109375 -0.0625,-0.109375 -0.1875,-0.109375 -0.125,0 -0.140625,0 -0.234375,0.09375 C 4.203125,0.5 3.140625,1.890625 2.453125,3.984375 2.03125,5.296875 1.796875,6.90625 1.796875,8.5625 c 0,2.359375 0.421875,5.03125 1.984375,7.34375 0.28125,0.390625 0.640625,0.796875 0.640625,0.8125 C 4.53125,16.84375 4.671875,17 4.75,17.0625 z m 0,0"
               style="stroke:none"
               inkscape:connector-curvature="0" />
          </symbol>
          <symbol
             id="textext-760913f0-19"
             overflow="visible"
             style="overflow:visible">
            <path
               id="path31912"
               d="m 4.140625,8.5625 c 0,-2.859375 -0.65625,-5.90625 -2.625,-8.140625 C 1.375,0.265625 1,-0.125 0.765625,-0.34375 c -0.0625,-0.0625 -0.09375,-0.0625 -0.21875,-0.0625 -0.09375,0 -0.1875,0 -0.1875,0.109375 0,0.03125 0.046875,0.078125 0.0625,0.09375 0.328125,0.359375 0.875,0.90625 1.484375,2 1.078125,1.90625 1.484375,4.375 1.484375,6.765625 0,4.328125 -1.203125,6.96875 -2.984375,8.796875 C 0.375,17.375 0.359375,17.40625 0.359375,17.4375 c 0,0.09375 0.09375,0.09375 0.1875,0.09375 0.125,0 0.15625,0 0.234375,-0.07813 0.953125,-0.8125 2.015625,-2.203125 2.703125,-4.296875 0.4375,-1.375 0.65625,-2.984375 0.65625,-4.59375 z m 0,0"
               style="stroke:none"
               inkscape:connector-curvature="0" />
          </symbol>
          <symbol
             id="textext-760913f0-20"
             overflow="visible"
             style="overflow:visible">
            <path
               id="path31915"
               d="m 2.015625,11.546875 2.453125,0 0,-0.390625 -2.0625,0 0,-11.5625 -0.390625,0 z m 0,0"
               style="stroke:none"
               inkscape:connector-curvature="0" />
          </symbol>
          <symbol
             id="textext-760913f0-21"
             overflow="visible"
             style="overflow:visible">
            <path
               id="path31918"
               d="m 2.6875,11.546875 0,-11.953125 -0.40625,0 0,11.5625 -2.0625,0 0,0.390625 z m 0,0"
               style="stroke:none"
               inkscape:connector-curvature="0" />
          </symbol>
          <symbol
             id="textext-760913f0-22"
             overflow="visible"
             style="overflow:visible">
            <path
               id="path31921"
               d="M 3.84375,2.5 C 4,2.5 4.203125,2.5 4.203125,2.296875 4.203125,2.09375 4,2.09375 3.84375,2.09375 l -1.703125,0 0,-9.21875 c 0,-0.171875 0,-0.359375 -0.203125,-0.359375 -0.203125,0 -0.203125,0.21875 -0.203125,0.359375 l 0,9.265625 C 1.734375,2.453125 1.78125,2.5 2.09375,2.5 z m 0,0"
               style="stroke:none"
               inkscape:connector-curvature="0" />
          </symbol>
          <symbol
             id="textext-760913f0-23"
             overflow="visible"
             style="overflow:visible">
            <path
               id="path31924"
               d="m 2.6875,-7.125 c 0,-0.171875 0,-0.359375 -0.203125,-0.359375 -0.203125,0 -0.203125,0.21875 -0.203125,0.359375 l 0,9.21875 -1.71875,0 c -0.140625,0 -0.359375,0 -0.359375,0.203125 C 0.203125,2.5 0.421875,2.5 0.5625,2.5 l 1.765625,0 C 2.65625,2.5 2.6875,2.46875 2.6875,2.140625 z m 0,0"
               style="stroke:none"
               inkscape:connector-curvature="0" />
          </symbol>
          <symbol
             id="textext-760913f0-24"
             overflow="visible"
             style="overflow:visible">
            <path
               id="path31927"
               d="m 3.09375,-1.953125 c -0.234375,0.0625 -0.234375,0.28125 -0.234375,0.296875 0,0.078125 0.0625,0.203125 0.234375,0.203125 0.140625,0 0.3125,-0.125 0.3125,-0.34375 0,-0.296875 -0.328125,-0.40625 -0.59375,-0.40625 -0.328125,0 -0.546875,0.203125 -0.640625,0.34375 -0.15625,-0.28125 -0.484375,-0.34375 -0.65625,-0.34375 -0.625,0 -0.984375,0.59375 -0.984375,0.765625 0,0.078125 0.078125,0.078125 0.109375,0.078125 0.046875,0 0.078125,0 0.109375,-0.0625 0.140625,-0.484375 0.546875,-0.609375 0.734375,-0.609375 0.171875,0 0.359375,0.0625 0.359375,0.328125 0,0.125 -0.09375,0.46875 -0.265625,1.140625 -0.0625,0.28125 -0.296875,0.453125 -0.515625,0.453125 -0.03125,0 -0.171875,0 -0.296875,-0.078125 0.21875,-0.09375 0.21875,-0.28125 0.21875,-0.296875 0,-0.140625 -0.109375,-0.203125 -0.21875,-0.203125 -0.125,0 -0.296875,0.09375 -0.296875,0.328125 0,0.3125 0.328125,0.421875 0.59375,0.421875 0.265625,0 0.5,-0.171875 0.609375,-0.34375 C 1.875,0.015625 2.1875,0.0625 2.34375,0.0625 c 0.625,0 0.984375,-0.59375 0.984375,-0.78125 0,-0.0625 -0.078125,-0.0625 -0.109375,-0.0625 -0.078125,0 -0.09375,0.03125 -0.109375,0.0625 C 2.96875,-0.265625 2.59375,-0.109375 2.375,-0.109375 c -0.15625,0 -0.359375,-0.0625 -0.359375,-0.34375 0,-0.0625 0,-0.09375 0.03125,-0.265625 0.09375,-0.34375 0.21875,-0.890625 0.265625,-0.984375 0.0625,-0.125 0.234375,-0.328125 0.484375,-0.328125 0.015625,0 0.1875,0 0.296875,0.078125 z m 0,0"
               style="stroke:none"
               inkscape:connector-curvature="0" />
          </symbol>
          <symbol
             id="textext-760913f0-25"
             overflow="visible"
             style="overflow:visible">
            <path
               id="path31930"
               d="m 4.015625,-1.78125 c 0,-0.1875 -0.078125,-0.421875 -0.296875,-0.421875 -0.140625,0 -0.296875,0.140625 -0.296875,0.28125 0,0.203125 0.296875,0.21875 0.296875,0.5625 0,0.390625 -0.4375,0.984375 -0.921875,0.984375 -0.25,0 -0.484375,-0.125 -0.59375,-0.359375 0.0625,-0.125 0.1875,-0.390625 0.1875,-0.546875 0,-0.109375 -0.03125,-0.1875 -0.15625,-0.1875 -0.296875,0 -0.3125,0.515625 -0.3125,0.71875 -0.140625,0.203125 -0.46875,0.359375 -0.71875,0.359375 -0.34375,0 -0.578125,-0.234375 -0.578125,-0.578125 0,-0.515625 0.53125,-0.984375 0.53125,-1.078125 0,-0.09375 -0.0625,-0.125 -0.140625,-0.125 -0.046875,0 -0.078125,0.03125 -0.109375,0.0625 -0.296875,0.359375 -0.5,0.828125 -0.5,1.296875 0,0.4375 0.21875,0.875 0.71875,0.875 0.40625,0 0.6875,-0.265625 0.890625,-0.484375 C 2.15625,-0.0625 2.46875,0.0625 2.734375,0.0625 3.25,0.0625 3.59375,-0.40625 3.796875,-0.875 3.9375,-1.203125 4.015625,-1.5625 4.015625,-1.78125 z m 0,0"
               style="stroke:none"
               inkscape:connector-curvature="0" />
          </symbol>
          <symbol
             id="textext-760913f0-26"
             overflow="visible"
             style="overflow:visible">
            <path
               id="path31933"
               d="M 1.734375,-0.734375 C 1.671875,-0.5 1.4375,-0.125 1.078125,-0.125 c -0.015625,0 -0.234375,0 -0.375,-0.09375 0.28125,-0.09375 0.3125,-0.34375 0.3125,-0.390625 0,-0.15625 -0.125,-0.25 -0.28125,-0.25 -0.203125,0 -0.40625,0.15625 -0.40625,0.421875 0,0.34375 0.390625,0.5 0.734375,0.5 0.328125,0 0.609375,-0.1875 0.78125,-0.484375 C 2.015625,-0.0625 2.390625,0.0625 2.671875,0.0625 c 0.8125,0 1.234375,-0.859375 1.234375,-1.0625 0,-0.09375 -0.09375,-0.09375 -0.109375,-0.09375 -0.109375,0 -0.109375,0.046875 -0.140625,0.125 -0.140625,0.484375 -0.5625,0.84375 -0.953125,0.84375 -0.28125,0 -0.421875,-0.1875 -0.421875,-0.453125 0,-0.1875 0.171875,-0.8125 0.359375,-1.59375 C 2.78125,-2.703125 3.09375,-2.875 3.328125,-2.875 c 0.015625,0 0.21875,0 0.375,0.09375 -0.21875,0.0625 -0.3125,0.265625 -0.3125,0.390625 0,0.140625 0.125,0.25 0.28125,0.25 0.15625,0 0.390625,-0.125 0.390625,-0.421875 0,-0.390625 -0.453125,-0.515625 -0.71875,-0.515625 -0.359375,0 -0.640625,0.234375 -0.78125,0.5 -0.125,-0.28125 -0.453125,-0.5 -0.84375,-0.5 C 0.9375,-3.078125 0.5,-2.21875 0.5,-2 c 0,0.078125 0.09375,0.078125 0.109375,0.078125 0.09375,0 0.09375,-0.015625 0.140625,-0.109375 C 0.921875,-2.578125 1.359375,-2.875 1.703125,-2.875 1.9375,-2.875 2.125,-2.75 2.125,-2.421875 2.125,-2.28125 2.03125,-1.9375 1.96875,-1.6875 z m 0,0"
               style="stroke:none"
               inkscape:connector-curvature="0" />
          </symbol>
          <symbol
             id="textext-760913f0-27"
             overflow="visible"
             style="overflow:visible">
            <path
               id="path31936"
               d="m 4.765625,-2.578125 c 0,-0.203125 -0.09375,-0.5 -0.375,-0.5 -0.171875,0 -0.359375,0.21875 -0.359375,0.390625 0,0.234375 0.375,0.28125 0.375,0.75 0,0.453125 -0.453125,1.453125 -1.234375,1.453125 -0.328125,0 -0.609375,-0.234375 -0.703125,-0.546875 0.09375,-0.140625 0.25,-0.625 0.25,-0.8125 0,-0.09375 -0.0625,-0.203125 -0.171875,-0.203125 -0.359375,0 -0.390625,0.75 -0.390625,1 -0.1875,0.25 -0.546875,0.5625 -1,0.5625 -0.375,0 -0.640625,-0.34375 -0.640625,-0.8125 0,-0.8125 0.703125,-1.484375 0.703125,-1.59375 0,-0.078125 -0.0625,-0.15625 -0.140625,-0.15625 -0.0625,0 -0.109375,0.03125 -0.15625,0.09375 -0.09375,0.109375 -0.1875,0.265625 -0.265625,0.40625 -0.25,0.421875 -0.421875,1 -0.421875,1.515625 0,0.546875 0.21875,1.09375 0.859375,1.09375 0.46875,0 0.875,-0.296875 1.125,-0.671875 0.140625,0.421875 0.4375,0.671875 0.890625,0.671875 1.21875,0 1.65625,-2.0625 1.65625,-2.640625 z m 0,0"
               style="stroke:none"
               inkscape:connector-curvature="0" />
          </symbol>
        </g>
      </defs>
      <g
         id="textext-760913f0-28">
        <g
           id="g31939"
           style="fill:#000000;fill-opacity:1">
          <use
             id="use31941"
             y="148.215"
             x="223.43201"
             xlink:href="#textext-760913f0-0"
             width="881.09772"
             height="369.77002" />
        </g>
        <g
           id="g31943"
           style="fill:#000000;fill-opacity:1">
          <use
             id="use31945"
             y="148.215"
             x="229.382"
             xlink:href="#textext-760913f0-6"
             width="881.09772"
             height="369.77002" />
        </g>
        <g
           id="g31947"
           style="fill:#000000;fill-opacity:1">
          <use
             id="use31949"
             y="148.215"
             x="233.256"
             xlink:href="#textext-760913f0-1"
             width="881.09772"
             height="369.77002" />
        </g>
        <g
           id="g31951"
           style="fill:#000000;fill-opacity:1">
          <use
             id="use31953"
             y="148.215"
             x="238.95"
             xlink:href="#textext-760913f0-7"
             width="881.09772"
             height="369.77002" />
        </g>
        <g
           id="g31955"
           style="fill:#000000;fill-opacity:1">
          <use
             id="use31957"
             y="148.215"
             x="245.59406"
             xlink:href="#textext-760913f0-8"
             width="881.09772"
             height="369.77002" />
        </g>
        <g
           id="g31959"
           style="fill:#000000;fill-opacity:1">
          <use
             id="use31961"
             y="124.802"
             x="256.108"
             xlink:href="#textext-760913f0-14"
             width="881.09772"
             height="369.77002" />
        </g>
        <g
           id="g31963"
           style="fill:#000000;fill-opacity:1">
          <use
             id="use31965"
             y="133.769"
             x="256.108"
             xlink:href="#textext-760913f0-15"
             width="881.09772"
             height="369.77002" />
        </g>
        <g
           id="g31967"
           style="fill:#000000;fill-opacity:1">
          <use
             id="use31969"
             y="136.758"
             x="256.108"
             xlink:href="#textext-760913f0-16"
             width="881.09772"
             height="369.77002" />
        </g>
        <g
           id="g31971"
           style="fill:#000000;fill-opacity:1">
          <use
             id="use31973"
             y="154.69"
             x="256.108"
             xlink:href="#textext-760913f0-15"
             width="881.09772"
             height="369.77002" />
        </g>
        <g
           id="g31975"
           style="fill:#000000;fill-opacity:1">
          <use
             id="use31977"
             y="157.679"
             x="256.108"
             xlink:href="#textext-760913f0-17"
             width="881.09772"
             height="369.77002" />
        </g>
        <g
           id="g31979"
           style="fill:#000000;fill-opacity:1">
          <use
             id="use31981"
             y="125.536"
             x="269.94501"
             xlink:href="#textext-760913f0-18"
             width="881.09772"
             height="369.77002" />
        </g>
        <g
           id="g31983"
           style="fill:#000000;fill-opacity:1">
          <use
             id="use31985"
             y="136.595"
             x="275.89499"
             xlink:href="#textext-760913f0-2"
             width="881.09772"
             height="369.77002" />
        </g>
        <g
           id="g31987"
           style="fill:#000000;fill-opacity:1">
          <use
             id="use31989"
             y="140.63499"
             x="280.20599"
             xlink:href="#textext-760913f0-22"
             width="881.09772"
             height="369.77002" />
        </g>
        <g
           id="g31991"
           style="fill:#000000;fill-opacity:1">
          <use
             id="use31993"
             y="137.211"
             x="286.155"
             xlink:href="#textext-760913f0-24"
             width="881.09772"
             height="369.77002" />
        </g>
        <path
           id="path31995"
           transform="matrix(1,0,0,-1,285.83,138.145)"
           d="m -0.33,-0.355 5,0"
           style="fill:none;stroke:#000000;stroke-width:1;stroke-linecap:butt;stroke-linejoin:miter;stroke-miterlimit:10;stroke-opacity:1"
           inkscape:connector-curvature="0" />
        <g
           id="g31997"
           style="fill:#000000;fill-opacity:1">
          <use
             id="use31999"
             y="142.289"
             x="285.82999"
             xlink:href="#textext-760913f0-25"
             width="881.09772"
             height="369.77002" />
        </g>
        <g
           id="g32001"
           style="fill:#000000;fill-opacity:1">
          <use
             id="use32003"
             y="140.63499"
             x="291.61899"
             xlink:href="#textext-760913f0-23"
             width="881.09772"
             height="369.77002" />
        </g>
        <g
           id="g32005"
           style="fill:#000000;fill-opacity:1">
          <use
             id="use32007"
             y="136.595"
             x="298.759"
             xlink:href="#textext-760913f0-9"
             width="881.09772"
             height="369.77002" />
        </g>
        <g
           id="g32009"
           style="fill:#000000;fill-opacity:1">
          <use
             id="use32011"
             y="136.595"
             x="308.7196"
             xlink:href="#textext-760913f0-10"
             width="881.09772"
             height="369.77002" />
        </g>
        <g
           id="g32013"
           style="fill:#000000;fill-opacity:1">
          <use
             id="use32015"
             y="125.536"
             x="313.703"
             xlink:href="#textext-760913f0-19"
             width="881.09772"
             height="369.77002" />
        </g>
        <g
           id="g32017"
           style="fill:#000000;fill-opacity:1">
          <use
             id="use32019"
             y="136.595"
             x="321.31299"
             xlink:href="#textext-760913f0-3"
             width="881.09772"
             height="369.77002" />
        </g>
        <g
           id="g32021"
           style="fill:#000000;fill-opacity:1">
          <use
             id="use32023"
             y="136.595"
             x="337.68854"
             xlink:href="#textext-760913f0-4"
             width="881.09772"
             height="369.77002" />
        </g>
        <g
           id="g32025"
           style="fill:#000000;fill-opacity:1">
          <use
             id="use32027"
             y="128.52499"
             x="342.11401"
             xlink:href="#textext-760913f0-20"
             width="881.09772"
             height="369.77002" />
        </g>
        <g
           id="g32029"
           style="fill:#000000;fill-opacity:1">
          <use
             id="use32031"
             y="132.672"
             x="348.39001"
             xlink:href="#textext-760913f0-26"
             width="881.09772"
             height="369.77002" />
        </g>
        <path
           id="path32033"
           transform="matrix(1,0,0,-1,348.014,134.104)"
           d="m 0.486,-0.396 5,0"
           style="fill:none;stroke:#000000;stroke-width:1;stroke-linecap:butt;stroke-linejoin:miter;stroke-miterlimit:10;stroke-opacity:1"
           inkscape:connector-curvature="0" />
        <g
           id="g32035"
           style="fill:#000000;fill-opacity:1">
          <use
             id="use32037"
             y="140.03101"
             x="348.01401"
             xlink:href="#textext-760913f0-27"
             width="881.09772"
             height="369.77002" />
        </g>
        <g
           id="g32039"
           style="fill:#000000;fill-opacity:1">
          <use
             id="use32041"
             y="128.52499"
             x="354.479"
             xlink:href="#textext-760913f0-21"
             width="881.09772"
             height="369.77002" />
        </g>
        <g
           id="g32043"
           style="fill:#000000;fill-opacity:1">
          <use
             id="use32045"
             y="136.595"
             x="361.95001"
             xlink:href="#textext-760913f0-5"
             width="881.09772"
             height="369.77002" />
        </g>
        <g
           id="g32047"
           style="fill:#000000;fill-opacity:1">
          <use
             id="use32049"
             y="136.595"
             x="372.46701"
             xlink:href="#textext-760913f0-11"
             width="881.09772"
             height="369.77002" />
        </g>
        <g
           id="g32051"
           style="fill:#000000;fill-opacity:1">
          <use
             id="use32053"
             y="162.72301"
             x="269.94501"
             xlink:href="#textext-760913f0-11"
             width="881.09772"
             height="369.77002" />
        </g>
        <g
           id="g32055"
           style="fill:#000000;fill-opacity:1">
          <use
             id="use32057"
             y="162.72301"
             x="337.686"
             xlink:href="#textext-760913f0-4"
             width="881.09772"
             height="369.77002" />
        </g>
        <g
           id="g32059"
           style="fill:#000000;fill-opacity:1">
          <use
             id="use32061"
             y="162.72301"
             x="342.11401"
             xlink:href="#textext-760913f0-12"
             width="881.09772"
             height="369.77002" />
          <use
             id="use32063"
             y="162.72301"
             x="346.54138"
             xlink:href="#textext-760913f0-13"
             width="881.09772"
             height="369.77002" />
          <use
             id="use32065"
             y="162.72301"
             x="349.30899"
             xlink:href="#textext-760913f0-12"
             width="881.09772"
             height="369.77002" />
        </g>
      </g>
    </g>
  </g>
</svg>
