<?xml version="1.0" encoding="UTF-8" standalone="no"?>
<!-- Created with Inkscape (http://www.inkscape.org/) -->

<svg
   xmlns:ns0="http://www.iki.fi/pav/software/textext/"
   xmlns:dc="http://purl.org/dc/elements/1.1/"
   xmlns:cc="http://creativecommons.org/ns#"
   xmlns:rdf="http://www.w3.org/1999/02/22-rdf-syntax-ns#"
   xmlns:svg="http://www.w3.org/2000/svg"
   xmlns="http://www.w3.org/2000/svg"
   xmlns:xlink="http://www.w3.org/1999/xlink"
   xmlns:sodipodi="http://sodipodi.sourceforge.net/DTD/sodipodi-0.dtd"
   xmlns:inkscape="http://www.inkscape.org/namespaces/inkscape"
   width="1157.9937"
   height="542.29431"
   id="svg2"
   version="1.1"
   inkscape:version="0.48.3.1 r9886"
   sodipodi:docname="algModoDeOperacaoP2.svg">
  <sodipodi:namedview
     id="base"
     pagecolor="#ffffff"
     bordercolor="#666666"
     borderopacity="1.0"
     inkscape:pageopacity="0.0"
     inkscape:pageshadow="2"
     inkscape:zoom="0.35"
     inkscape:cx="515.0574"
     inkscape:cy="304.91133"
     inkscape:document-units="px"
     inkscape:current-layer="layer1"
     showgrid="false"
     inkscape:window-width="1366"
     inkscape:window-height="709"
     inkscape:window-x="0"
     inkscape:window-y="27"
     inkscape:window-maximized="1"
     fit-margin-top="0"
     fit-margin-left="0"
     fit-margin-right="0"
     fit-margin-bottom="0" />
  <defs
     id="defs4" />
  <metadata
     id="metadata7">
    <rdf:RDF>
      <cc:Work
         rdf:about="">
        <dc:format>image/svg+xml</dc:format>
        <dc:type
           rdf:resource="http://purl.org/dc/dcmitype/StillImage" />
        <dc:title />
      </cc:Work>
    </rdf:RDF>
  </metadata>
  <g
     inkscape:label="Camada 1"
     inkscape:groupmode="layer"
     id="layer1"
     transform="translate(165.0574,-17.070228)">
    <g
       id="g7136"
       transform="matrix(5.1627663,0,0,5.1627663,-841.53048,-258.30676)"
       ns0:preamble=""
       ns0:text="$\\omega=2000 $\n">
      <defs
         id="defs7138">
        <g
           id="g7140">
          <symbol
             id="textext-3b59a703-0"
             overflow="visible"
             style="overflow:visible">
            <path
               id="path7143"
               d="m 6.03125,-3.703125 c 0,-0.453125 -0.171875,-0.703125 -0.40625,-0.703125 -0.25,0 -0.515625,0.234375 -0.515625,0.46875 0,0.09375 0.046875,0.203125 0.140625,0.296875 0.171875,0.15625 0.359375,0.421875 0.359375,0.84375 0,0.390625 -0.203125,0.96875 -0.5,1.421875 C 4.8125,-0.953125 4.4375,-0.609375 3.96875,-0.609375 3.40625,-0.609375 3.09375,-0.96875 3,-1.5 c 0.109375,-0.265625 0.34375,-0.90625 0.34375,-1.1875 0,-0.109375 -0.046875,-0.21875 -0.1875,-0.21875 -0.078125,0 -0.1875,0.03125 -0.265625,0.171875 C 2.78125,-2.53125 2.65625,-1.890625 2.65625,-1.53125 2.328125,-1.0625 1.9375,-0.609375 1.3125,-0.609375 c -0.671875,0 -0.875,-0.59375 -0.875,-1.140625 0,-1.25 1.015625,-2.296875 1.015625,-2.421875 0,-0.109375 -0.078125,-0.1875 -0.1875,-0.1875 -0.125,0 -0.203125,0.125 -0.265625,0.21875 -0.5,0.734375 -0.875,1.921875 -0.875,2.828125 0,0.6875 0.21875,1.421875 1.046875,1.421875 0.703125,0 1.171875,-0.5 1.53125,-1.046875 0.09375,0.578125 0.484375,1.046875 1.09375,1.046875 0.78125,0 1.25,-0.609375 1.609375,-1.359375 0.25,-0.484375 0.625,-1.84375 0.625,-2.453125 z m 0,0"
               style="stroke:none"
               inkscape:connector-curvature="0" />
          </symbol>
          <symbol
             id="textext-3b59a703-1"
             overflow="visible"
             style="overflow:visible">
            <path
               id="path7146"
               d="m 6.84375,-3.265625 c 0.15625,0 0.34375,0 0.34375,-0.1875 C 7.1875,-3.65625 7,-3.65625 6.859375,-3.65625 l -5.96875,0 c -0.140625,0 -0.328125,0 -0.328125,0.203125 0,0.1875 0.1875,0.1875 0.328125,0.1875 z m 0.015625,1.9375 c 0.140625,0 0.328125,0 0.328125,-0.203125 0,-0.1875 -0.1875,-0.1875 -0.34375,-0.1875 l -5.953125,0 c -0.140625,0 -0.328125,0 -0.328125,0.1875 0,0.203125 0.1875,0.203125 0.328125,0.203125 z m 0,0"
               style="stroke:none"
               inkscape:connector-curvature="0" />
          </symbol>
          <symbol
             id="textext-3b59a703-2"
             overflow="visible"
             style="overflow:visible">
            <path
               id="path7149"
               d="m 1.265625,-0.765625 1.0625,-1.03125 c 1.546875,-1.375 2.140625,-1.90625 2.140625,-2.90625 0,-1.140625 -0.890625,-1.9375 -2.109375,-1.9375 -1.125,0 -1.859375,0.921875 -1.859375,1.8125 0,0.546875 0.5,0.546875 0.53125,0.546875 0.171875,0 0.515625,-0.109375 0.515625,-0.53125 0,-0.25 -0.1875,-0.515625 -0.53125,-0.515625 -0.078125,0 -0.09375,0 -0.125,0.015625 0.21875,-0.65625 0.765625,-1.015625 1.34375,-1.015625 0.90625,0 1.328125,0.8125 1.328125,1.625 C 3.5625,-3.90625 3.078125,-3.125 2.515625,-2.5 l -1.90625,2.125 C 0.5,-0.265625 0.5,-0.234375 0.5,0 l 3.703125,0 0.265625,-1.734375 -0.234375,0 C 4.171875,-1.4375 4.109375,-1 4,-0.84375 3.9375,-0.765625 3.28125,-0.765625 3.0625,-0.765625 z m 0,0"
               style="stroke:none"
               inkscape:connector-curvature="0" />
          </symbol>
          <symbol
             id="textext-3b59a703-3"
             overflow="visible"
             style="overflow:visible">
            <path
               id="path7152"
               d="m 4.578125,-3.1875 c 0,-0.796875 -0.046875,-1.59375 -0.390625,-2.328125 -0.453125,-0.96875 -1.28125,-1.125 -1.6875,-1.125 -0.609375,0 -1.328125,0.265625 -1.75,1.1875 -0.3125,0.6875 -0.359375,1.46875 -0.359375,2.265625 0,0.75 0.03125,1.640625 0.453125,2.40625 0.421875,0.796875 1.15625,1 1.640625,1 0.53125,0 1.296875,-0.203125 1.734375,-1.15625 0.3125,-0.6875 0.359375,-1.46875 0.359375,-2.25 z M 2.484375,0 C 2.09375,0 1.5,-0.25 1.328125,-1.203125 1.21875,-1.796875 1.21875,-2.71875 1.21875,-3.3125 c 0,-0.640625 0,-1.296875 0.078125,-1.828125 0.1875,-1.1875 0.9375,-1.28125 1.1875,-1.28125 0.328125,0 0.984375,0.1875 1.171875,1.171875 0.109375,0.5625 0.109375,1.3125 0.109375,1.9375 0,0.75 0,1.421875 -0.109375,2.0625 C 3.5,-0.296875 2.9375,0 2.484375,0 z m 0,0"
               style="stroke:none"
               inkscape:connector-curvature="0" />
          </symbol>
        </g>
      </defs>
      <g
         id="textext-3b59a703-4">
        <g
           id="g7155"
           style="fill:#000000;fill-opacity:1">
          <use
             id="use7157"
             y="134.765"
             x="223.43201"
             xlink:href="#textext-3b59a703-0"
             width="477.81085"
             height="359.11816" />
        </g>
        <g
           id="g7159"
           style="fill:#000000;fill-opacity:1">
          <use
             id="use7161"
             y="134.765"
             x="232.758"
             xlink:href="#textext-3b59a703-1"
             width="477.81085"
             height="359.11816" />
        </g>
        <g
           id="g7163"
           style="fill:#000000;fill-opacity:1">
          <use
             id="use7165"
             y="134.765"
             x="243.27652"
             xlink:href="#textext-3b59a703-2"
             width="477.81085"
             height="359.11816" />
          <use
             id="use7167"
             y="134.765"
             x="248.25781"
             xlink:href="#textext-3b59a703-3"
             width="477.81085"
             height="359.11816" />
          <use
             id="use7169"
             y="134.765"
             x="253.23912"
             xlink:href="#textext-3b59a703-3"
             width="477.81085"
             height="359.11816" />
          <use
             id="use7171"
             y="134.765"
             x="258.2204"
             xlink:href="#textext-3b59a703-3"
             width="477.81085"
             height="359.11816" />
        </g>
      </g>
    </g>
    <g
       ns0:text="$c_j=v_j  \\oplus (x_{j\\omega} \\bmod 2) $\n"
       ns0:preamble=""
       transform="matrix(5.1627663,0,0,5.1627663,-984.63449,-151.44963)"
       id="g8319">
      <defs
         id="defs8321">
        <g
           id="g8323">
          <symbol
             style="overflow:visible"
             overflow="visible"
             id="textext-25ec0504-0">
            <path
               inkscape:connector-curvature="0"
               style="stroke:none"
               d="m 3.953125,-3.78125 c -0.171875,0 -0.296875,0 -0.4375,0.125 -0.171875,0.15625 -0.1875,0.328125 -0.1875,0.390625 0,0.25 0.1875,0.359375 0.375,0.359375 0.28125,0 0.546875,-0.25 0.546875,-0.640625 0,-0.484375 -0.46875,-0.859375 -1.171875,-0.859375 -1.34375,0 -2.671875,1.421875 -2.671875,2.828125 0,0.90625 0.578125,1.6875 1.625,1.6875 1.421875,0 2.25,-1.0625 2.25,-1.171875 0,-0.0625 -0.046875,-0.140625 -0.109375,-0.140625 -0.0625,0 -0.078125,0.03125 -0.140625,0.109375 -0.78125,0.984375 -1.875,0.984375 -1.984375,0.984375 -0.625,0 -0.90625,-0.484375 -0.90625,-1.09375 0,-0.40625 0.203125,-1.375 0.546875,-1.984375 0.3125,-0.578125 0.859375,-1 1.40625,-1 0.328125,0 0.71875,0.125 0.859375,0.40625 z m 0,0"
               id="path8326" />
          </symbol>
          <symbol
             style="overflow:visible"
             overflow="visible"
             id="textext-25ec0504-1">
            <path
               inkscape:connector-curvature="0"
               style="stroke:none"
               d="m 4.671875,-3.703125 c 0,-0.546875 -0.265625,-0.703125 -0.4375,-0.703125 -0.25,0 -0.5,0.265625 -0.5,0.484375 0,0.125 0.046875,0.1875 0.15625,0.296875 0.21875,0.203125 0.34375,0.453125 0.34375,0.8125 0,0.421875 -0.609375,2.703125 -1.765625,2.703125 -0.515625,0 -0.75,-0.34375 -0.75,-0.875 0,-0.546875 0.28125,-1.28125 0.578125,-2.109375 0.078125,-0.171875 0.125,-0.3125 0.125,-0.5 0,-0.4375 -0.3125,-0.8125 -0.8125,-0.8125 -0.9375,0 -1.3125,1.453125 -1.3125,1.53125 0,0.109375 0.09375,0.109375 0.109375,0.109375 0.109375,0 0.109375,-0.03125 0.15625,-0.1875 0.296875,-1 0.71875,-1.234375 1.015625,-1.234375 0.078125,0 0.25,0 0.25,0.3125 0,0.25 -0.109375,0.53125 -0.171875,0.703125 -0.4375,1.15625 -0.5625,1.609375 -0.5625,2.046875 0,1.078125 0.875,1.234375 1.328125,1.234375 1.671875,0 2.25,-3.296875 2.25,-3.8125 z m 0,0"
               id="path8329" />
          </symbol>
          <symbol
             style="overflow:visible"
             overflow="visible"
             id="textext-25ec0504-2">
            <path
               inkscape:connector-curvature="0"
               style="stroke:none"
               d="M 3.328125,-3.015625 C 3.390625,-3.265625 3.625,-4.1875 4.3125,-4.1875 c 0.046875,0 0.296875,0 0.5,0.125 C 4.53125,-4 4.34375,-3.765625 4.34375,-3.515625 c 0,0.15625 0.109375,0.34375 0.375,0.34375 0.21875,0 0.53125,-0.171875 0.53125,-0.578125 0,-0.515625 -0.578125,-0.65625 -0.921875,-0.65625 -0.578125,0 -0.921875,0.53125 -1.046875,0.75 -0.25,-0.65625 -0.78125,-0.75 -1.078125,-0.75 -1.03125,0 -1.609375,1.28125 -1.609375,1.53125 0,0.109375 0.109375,0.109375 0.125,0.109375 0.078125,0 0.109375,-0.03125 0.125,-0.109375 0.34375,-1.0625 1,-1.3125 1.34375,-1.3125 0.1875,0 0.53125,0.09375 0.53125,0.671875 0,0.3125 -0.171875,0.96875 -0.53125,2.375 -0.15625,0.609375 -0.515625,1.03125 -0.953125,1.03125 -0.0625,0 -0.28125,0 -0.5,-0.125 0.25,-0.0625 0.46875,-0.265625 0.46875,-0.546875 0,-0.265625 -0.21875,-0.34375 -0.359375,-0.34375 -0.3125,0 -0.546875,0.25 -0.546875,0.578125 0,0.453125 0.484375,0.65625 0.921875,0.65625 0.671875,0 1.03125,-0.703125 1.046875,-0.75 0.125,0.359375 0.484375,0.75 1.078125,0.75 1.03125,0 1.59375,-1.28125 1.59375,-1.53125 0,-0.109375 -0.078125,-0.109375 -0.109375,-0.109375 -0.09375,0 -0.109375,0.046875 -0.140625,0.109375 -0.328125,1.078125 -1,1.3125 -1.3125,1.3125 -0.390625,0 -0.546875,-0.3125 -0.546875,-0.65625 0,-0.21875 0.046875,-0.4375 0.15625,-0.875 z m 0,0"
               id="path8332" />
          </symbol>
          <symbol
             style="overflow:visible"
             overflow="visible"
             id="textext-25ec0504-3">
            <path
               inkscape:connector-curvature="0"
               style="stroke:none"
               d="M 3.0625,-4.359375 C 3.0625,-4.46875 2.96875,-4.625 2.78125,-4.625 c -0.203125,0 -0.390625,0.203125 -0.390625,0.390625 0,0.109375 0.078125,0.265625 0.28125,0.265625 0.1875,0 0.390625,-0.1875 0.390625,-0.390625 z M 1.578125,0.34375 C 1.46875,0.828125 1.09375,1.21875 0.6875,1.21875 c -0.09375,0 -0.171875,0 -0.25,-0.03125 0.171875,-0.09375 0.234375,-0.25 0.234375,-0.359375 0,-0.171875 -0.140625,-0.25 -0.28125,-0.25 C 0.1875,0.578125 0,0.765625 0,0.984375 c 0,0.265625 0.265625,0.4375 0.6875,0.4375 0.421875,0 1.234375,-0.25 1.453125,-1.09375 l 0.625,-2.5 c 0.015625,-0.078125 0.03125,-0.140625 0.03125,-0.25 0,-0.375 -0.328125,-0.65625 -0.734375,-0.65625 -0.78125,0 -1.21875,0.96875 -1.21875,1.078125 0,0.078125 0.09375,0.078125 0.109375,0.078125 0.078125,0 0.09375,-0.015625 0.140625,-0.125 C 1.265625,-2.453125 1.625,-2.875 2.03125,-2.875 c 0.171875,0 0.234375,0.109375 0.234375,0.34375 0,0.078125 0,0.171875 -0.015625,0.203125 z m 0,0"
               id="path8335" />
          </symbol>
          <symbol
             style="overflow:visible"
             overflow="visible"
             id="textext-25ec0504-4">
            <path
               inkscape:connector-curvature="0"
               style="stroke:none"
               d="m 4.765625,-2.578125 c 0,-0.203125 -0.09375,-0.5 -0.375,-0.5 -0.171875,0 -0.359375,0.21875 -0.359375,0.390625 0,0.234375 0.375,0.28125 0.375,0.75 0,0.453125 -0.453125,1.453125 -1.234375,1.453125 -0.328125,0 -0.609375,-0.234375 -0.703125,-0.546875 0.09375,-0.140625 0.25,-0.625 0.25,-0.8125 0,-0.09375 -0.0625,-0.203125 -0.171875,-0.203125 -0.359375,0 -0.390625,0.75 -0.390625,1 -0.1875,0.25 -0.546875,0.5625 -1,0.5625 -0.375,0 -0.640625,-0.34375 -0.640625,-0.8125 0,-0.8125 0.703125,-1.484375 0.703125,-1.59375 0,-0.078125 -0.0625,-0.15625 -0.140625,-0.15625 -0.0625,0 -0.109375,0.03125 -0.15625,0.09375 -0.09375,0.109375 -0.1875,0.265625 -0.265625,0.40625 -0.25,0.421875 -0.421875,1 -0.421875,1.515625 0,0.546875 0.21875,1.09375 0.859375,1.09375 0.46875,0 0.875,-0.296875 1.125,-0.671875 0.140625,0.421875 0.4375,0.671875 0.890625,0.671875 1.21875,0 1.65625,-2.0625 1.65625,-2.640625 z m 0,0"
               id="path8338" />
          </symbol>
          <symbol
             style="overflow:visible"
             overflow="visible"
             id="textext-25ec0504-5">
            <path
               inkscape:connector-curvature="0"
               style="stroke:none"
               d="m 6.84375,-3.265625 c 0.15625,0 0.34375,0 0.34375,-0.1875 C 7.1875,-3.65625 7,-3.65625 6.859375,-3.65625 l -5.96875,0 c -0.140625,0 -0.328125,0 -0.328125,0.203125 0,0.1875 0.1875,0.1875 0.328125,0.1875 z m 0.015625,1.9375 c 0.140625,0 0.328125,0 0.328125,-0.203125 0,-0.1875 -0.1875,-0.1875 -0.34375,-0.1875 l -5.953125,0 c -0.140625,0 -0.328125,0 -0.328125,0.1875 0,0.203125 0.1875,0.203125 0.328125,0.203125 z m 0,0"
               id="path8341" />
          </symbol>
          <symbol
             style="overflow:visible"
             overflow="visible"
             id="textext-25ec0504-6">
            <path
               inkscape:connector-curvature="0"
               style="stroke:none"
               d="m 3.296875,2.390625 c 0,-0.03125 0,-0.046875 -0.171875,-0.21875 C 1.890625,0.921875 1.5625,-0.96875 1.5625,-2.5 c 0,-1.734375 0.375,-3.46875 1.609375,-4.703125 0.125,-0.125 0.125,-0.140625 0.125,-0.171875 0,-0.078125 -0.03125,-0.109375 -0.09375,-0.109375 -0.109375,0 -1,0.6875 -1.59375,1.953125 -0.5,1.09375 -0.625,2.203125 -0.625,3.03125 0,0.78125 0.109375,1.984375 0.65625,3.125 C 2.25,1.84375 3.09375,2.5 3.203125,2.5 c 0.0625,0 0.09375,-0.03125 0.09375,-0.109375 z m 0,0"
               id="path8344" />
          </symbol>
          <symbol
             style="overflow:visible"
             overflow="visible"
             id="textext-25ec0504-7">
            <path
               inkscape:connector-curvature="0"
               style="stroke:none"
               d="m 1.09375,-3.421875 0,2.671875 c 0,0.4375 -0.109375,0.4375 -0.78125,0.4375 l 0,0.3125 c 0.359375,-0.015625 0.859375,-0.03125 1.140625,-0.03125 0.25,0 0.765625,0.015625 1.109375,0.03125 l 0,-0.3125 c -0.671875,0 -0.78125,0 -0.78125,-0.4375 l 0,-1.84375 C 1.78125,-3.625 2.5,-4.1875 3.125,-4.1875 c 0.640625,0 0.75,0.53125 0.75,1.109375 l 0,2.328125 c 0,0.4375 -0.109375,0.4375 -0.78125,0.4375 l 0,0.3125 c 0.34375,-0.015625 0.859375,-0.03125 1.125,-0.03125 0.25,0 0.78125,0.015625 1.109375,0.03125 l 0,-0.3125 c -0.65625,0 -0.765625,0 -0.765625,-0.4375 l 0,-1.84375 c 0,-1.03125 0.703125,-1.59375 1.34375,-1.59375 0.625,0 0.734375,0.53125 0.734375,1.109375 l 0,2.328125 c 0,0.4375 -0.109375,0.4375 -0.78125,0.4375 l 0,0.3125 c 0.34375,-0.015625 0.859375,-0.03125 1.125,-0.03125 0.265625,0 0.78125,0.015625 1.125,0.03125 l 0,-0.3125 c -0.515625,0 -0.765625,0 -0.78125,-0.296875 l 0,-1.90625 c 0,-0.859375 0,-1.15625 -0.3125,-1.515625 -0.140625,-0.171875 -0.46875,-0.375 -1.046875,-0.375 -0.828125,0 -1.28125,0.59375 -1.4375,0.984375 C 4.390625,-4.296875 3.65625,-4.40625 3.203125,-4.40625 2.46875,-4.40625 2,-3.984375 1.71875,-3.359375 l 0,-1.046875 -1.40625,0.109375 0,0.3125 c 0.703125,0 0.78125,0.0625 0.78125,0.5625 z m 0,0"
               id="path8347" />
          </symbol>
          <symbol
             style="overflow:visible"
             overflow="visible"
             id="textext-25ec0504-8">
            <path
               inkscape:connector-curvature="0"
               style="stroke:none"
               d="M 4.6875,-2.140625 C 4.6875,-3.40625 3.703125,-4.46875 2.5,-4.46875 c -1.25,0 -2.21875,1.09375 -2.21875,2.328125 0,1.296875 1.03125,2.25 2.203125,2.25 1.203125,0 2.203125,-0.984375 2.203125,-2.25 z m -2.1875,2 c -0.4375,0 -0.875,-0.203125 -1.140625,-0.671875 -0.25,-0.4375 -0.25,-1.046875 -0.25,-1.40625 0,-0.390625 0,-0.921875 0.234375,-1.359375 C 1.609375,-4.03125 2.078125,-4.25 2.484375,-4.25 c 0.4375,0 0.859375,0.21875 1.125,0.65625 0.265625,0.421875 0.265625,1 0.265625,1.375 0,0.359375 0,0.90625 -0.21875,1.34375 C 3.421875,-0.421875 2.984375,-0.140625 2.5,-0.140625 z m 0,0"
               id="path8350" />
          </symbol>
          <symbol
             style="overflow:visible"
             overflow="visible"
             id="textext-25ec0504-9">
            <path
               inkscape:connector-curvature="0"
               style="stroke:none"
               d="m 3.78125,-0.546875 0,0.65625 L 5.25,0 l 0,-0.3125 c -0.6875,0 -0.78125,-0.0625 -0.78125,-0.5625 l 0,-6.046875 -1.421875,0.109375 0,0.3125 c 0.6875,0 0.765625,0.0625 0.765625,0.5625 l 0,2.15625 c -0.28125,-0.359375 -0.71875,-0.625 -1.25,-0.625 -1.171875,0 -2.21875,0.984375 -2.21875,2.265625 0,1.265625 0.96875,2.25 2.109375,2.25 0.640625,0 1.078125,-0.34375 1.328125,-0.65625 z m 0,-2.671875 0,2.046875 c 0,0.171875 0,0.1875 -0.109375,0.359375 C 3.375,-0.328125 2.9375,-0.109375 2.5,-0.109375 2.046875,-0.109375 1.6875,-0.375 1.453125,-0.75 1.203125,-1.15625 1.171875,-1.71875 1.171875,-2.140625 1.171875,-2.5 1.1875,-3.09375 1.46875,-3.546875 1.6875,-3.859375 2.0625,-4.1875 2.609375,-4.1875 c 0.34375,0 0.765625,0.15625 1.0625,0.59375 0.109375,0.171875 0.109375,0.1875 0.109375,0.375 z m 0,0"
               id="path8353" />
          </symbol>
          <symbol
             style="overflow:visible"
             overflow="visible"
             id="textext-25ec0504-10">
            <path
               inkscape:connector-curvature="0"
               style="stroke:none"
               d="m 1.265625,-0.765625 1.0625,-1.03125 c 1.546875,-1.375 2.140625,-1.90625 2.140625,-2.90625 0,-1.140625 -0.890625,-1.9375 -2.109375,-1.9375 -1.125,0 -1.859375,0.921875 -1.859375,1.8125 0,0.546875 0.5,0.546875 0.53125,0.546875 0.171875,0 0.515625,-0.109375 0.515625,-0.53125 0,-0.25 -0.1875,-0.515625 -0.53125,-0.515625 -0.078125,0 -0.09375,0 -0.125,0.015625 0.21875,-0.65625 0.765625,-1.015625 1.34375,-1.015625 0.90625,0 1.328125,0.8125 1.328125,1.625 C 3.5625,-3.90625 3.078125,-3.125 2.515625,-2.5 l -1.90625,2.125 C 0.5,-0.265625 0.5,-0.234375 0.5,0 l 3.703125,0 0.265625,-1.734375 -0.234375,0 C 4.171875,-1.4375 4.109375,-1 4,-0.84375 3.9375,-0.765625 3.28125,-0.765625 3.0625,-0.765625 z m 0,0"
               id="path8356" />
          </symbol>
          <symbol
             style="overflow:visible"
             overflow="visible"
             id="textext-25ec0504-11">
            <path
               inkscape:connector-curvature="0"
               style="stroke:none"
               d="m 2.875,-2.5 c 0,-0.765625 -0.109375,-1.96875 -0.65625,-3.109375 -0.59375,-1.21875 -1.453125,-1.875 -1.546875,-1.875 -0.0625,0 -0.109375,0.046875 -0.109375,0.109375 0,0.03125 0,0.046875 0.1875,0.234375 0.984375,0.984375 1.546875,2.5625 1.546875,4.640625 0,1.71875 -0.359375,3.46875 -1.59375,4.71875 C 0.5625,2.34375 0.5625,2.359375 0.5625,2.390625 0.5625,2.453125 0.609375,2.5 0.671875,2.5 0.765625,2.5 1.671875,1.8125 2.25,0.546875 2.765625,-0.546875 2.875,-1.65625 2.875,-2.5 z m 0,0"
               id="path8359" />
          </symbol>
          <symbol
             style="overflow:visible"
             overflow="visible"
             id="textext-25ec0504-12">
            <path
               inkscape:connector-curvature="0"
               style="stroke:none"
               d="m 7.203125,-2.5 c 0,-1.828125 -1.5,-3.3125 -3.328125,-3.3125 -1.84375,0 -3.328125,1.5 -3.328125,3.3125 0,1.84375 1.5,3.328125 3.328125,3.328125 1.84375,0 3.328125,-1.5 3.328125,-3.328125 z M 0.796875,-2.625 C 0.890625,-4.296875 2.1875,-5.484375 3.75,-5.5625 l 0,2.9375 z M 4,-5.5625 c 1.5625,0.078125 2.84375,1.28125 2.953125,2.9375 L 4,-2.625 z M 3.75,0.578125 C 2.203125,0.5 0.890625,-0.671875 0.796875,-2.375 l 2.953125,0 z M 6.953125,-2.375 C 6.84375,-0.671875 5.53125,0.5 4,0.578125 L 4,-2.375 z m 0,0"
               id="path8362" />
          </symbol>
        </g>
      </defs>
      <g
         id="textext-25ec0504-13">
        <g
           style="fill:#000000;fill-opacity:1"
           id="g8365">
          <use
             height="359.11816"
             width="477.81085"
             xlink:href="#textext-25ec0504-0"
             x="223.43201"
             y="134.765"
             id="use8367" />
        </g>
        <g
           style="fill:#000000;fill-opacity:1"
           id="g8369">
          <use
             height="359.11816"
             width="477.81085"
             xlink:href="#textext-25ec0504-3"
             x="227.743"
             y="136.259"
             id="use8371" />
        </g>
        <g
           style="fill:#000000;fill-opacity:1"
           id="g8373">
          <use
             height="359.11816"
             width="477.81085"
             xlink:href="#textext-25ec0504-5"
             x="234.709"
             y="134.765"
             id="use8375" />
        </g>
        <g
           style="fill:#000000;fill-opacity:1"
           id="g8377">
          <use
             height="359.11816"
             width="477.81085"
             xlink:href="#textext-25ec0504-1"
             x="245.22501"
             y="134.765"
             id="use8379" />
        </g>
        <g
           style="fill:#000000;fill-opacity:1"
           id="g8381">
          <use
             height="359.11816"
             width="477.81085"
             xlink:href="#textext-25ec0504-3"
             x="250.054"
             y="136.259"
             id="use8383" />
        </g>
        <g
           style="fill:#000000;fill-opacity:1"
           id="g8385">
          <use
             height="359.11816"
             width="477.81085"
             xlink:href="#textext-25ec0504-12"
             x="256.466"
             y="134.765"
             id="use8387" />
        </g>
        <g
           style="fill:#000000;fill-opacity:1"
           id="g8389">
          <use
             height="359.11816"
             width="477.81085"
             xlink:href="#textext-25ec0504-6"
             x="266.42801"
             y="134.765"
             id="use8391" />
        </g>
        <g
           style="fill:#000000;fill-opacity:1"
           id="g8393">
          <use
             height="359.11816"
             width="477.81085"
             xlink:href="#textext-25ec0504-2"
             x="270.30301"
             y="134.765"
             id="use8395" />
        </g>
        <g
           style="fill:#000000;fill-opacity:1"
           id="g8397">
          <use
             height="359.11816"
             width="477.81085"
             xlink:href="#textext-25ec0504-3"
             x="275.996"
             y="136.259"
             id="use8399" />
        </g>
        <g
           style="fill:#000000;fill-opacity:1"
           id="g8401">
          <use
             height="359.11816"
             width="477.81085"
             xlink:href="#textext-25ec0504-4"
             x="279.69699"
             y="136.259"
             id="use8403" />
        </g>
        <g
           style="fill:#000000;fill-opacity:1"
           id="g8405">
          <use
             height="359.11816"
             width="477.81085"
             xlink:href="#textext-25ec0504-7"
             x="288.23099"
             y="134.765"
             id="use8407" />
          <use
             height="359.11816"
             width="477.81085"
             xlink:href="#textext-25ec0504-8"
             x="296.53284"
             y="134.765"
             id="use8409" />
        </g>
        <g
           style="fill:#000000;fill-opacity:1"
           id="g8411">
          <use
             height="359.11816"
             width="477.81085"
             xlink:href="#textext-25ec0504-9"
             x="301.79309"
             y="134.765"
             id="use8413" />
        </g>
        <g
           style="fill:#000000;fill-opacity:1"
           id="g8415">
          <use
             height="359.11816"
             width="477.81085"
             xlink:href="#textext-25ec0504-10"
             x="310.0979"
             y="134.765"
             id="use8417" />
          <use
             height="359.11816"
             width="477.81085"
             xlink:href="#textext-25ec0504-11"
             x="315.07922"
             y="134.765"
             id="use8419" />
        </g>
      </g>
    </g>
    <g
       id="g18716"
       transform="matrix(5.1627663,0,0,5.1627663,-1142.4352,-640.04989)"
       ns0:preamble=""
       ns0:text="$dt= 184467440737095516 \\approx \\lfloor 0.01 \\lambda \\rfloor$">
      <defs
         id="defs18718">
        <g
           id="g18720">
          <symbol
             id="textext-eb19986f-0"
             overflow="visible"
             style="overflow:visible">
            <path
               id="path18723"
               d="m 5.140625,-6.8125 c 0,0 0,-0.109375 -0.125,-0.109375 -0.15625,0 -1.09375,0.09375 -1.265625,0.109375 -0.078125,0.015625 -0.140625,0.0625 -0.140625,0.1875 0,0.125 0.09375,0.125 0.234375,0.125 0.484375,0 0.5,0.0625 0.5,0.171875 L 4.3125,-6.125 3.71875,-3.765625 C 3.53125,-4.140625 3.25,-4.40625 2.796875,-4.40625 c -1.15625,0 -2.390625,1.46875 -2.390625,2.921875 0,0.9375 0.546875,1.59375 1.3125,1.59375 0.203125,0 0.703125,-0.046875 1.296875,-0.75 0.078125,0.421875 0.4375,0.75 0.90625,0.75 0.359375,0 0.578125,-0.234375 0.75,-0.546875 0.15625,-0.359375 0.296875,-0.96875 0.296875,-0.984375 0,-0.109375 -0.09375,-0.109375 -0.125,-0.109375 -0.09375,0 -0.109375,0.046875 -0.140625,0.1875 -0.171875,0.640625 -0.34375,1.234375 -0.75,1.234375 -0.28125,0 -0.296875,-0.265625 -0.296875,-0.453125 0,-0.25 0.015625,-0.3125 0.046875,-0.484375 z m -2.0625,5.625 C 3.015625,-1 3.015625,-0.984375 2.875,-0.8125 2.4375,-0.265625 2.03125,-0.109375 1.75,-0.109375 c -0.5,0 -0.640625,-0.546875 -0.640625,-0.9375 0,-0.5 0.3125,-1.71875 0.546875,-2.1875 0.3125,-0.578125 0.75,-0.953125 1.15625,-0.953125 0.640625,0 0.78125,0.8125 0.78125,0.875 0,0.0625 -0.015625,0.125 -0.03125,0.171875 z m 0,0"
               style="stroke:none"
               inkscape:connector-curvature="0" />
          </symbol>
          <symbol
             id="textext-eb19986f-1"
             overflow="visible"
             style="overflow:visible">
            <path
               id="path18726"
               d="m 2.046875,-3.984375 0.9375,0 c 0.203125,0 0.3125,0 0.3125,-0.203125 0,-0.109375 -0.109375,-0.109375 -0.28125,-0.109375 l -0.875,0 C 2.5,-5.71875 2.546875,-5.90625 2.546875,-5.96875 c 0,-0.171875 -0.125,-0.265625 -0.296875,-0.265625 -0.03125,0 -0.3125,0 -0.390625,0.359375 l -0.390625,1.578125 -0.9375,0 c -0.203125,0 -0.296875,0 -0.296875,0.1875 0,0.125 0.078125,0.125 0.28125,0.125 l 0.875,0 C 0.671875,-1.15625 0.625,-0.984375 0.625,-0.8125 0.625,-0.265625 1,0.109375 1.546875,0.109375 2.5625,0.109375 3.125,-1.34375 3.125,-1.421875 3.125,-1.53125 3.046875,-1.53125 3.015625,-1.53125 2.921875,-1.53125 2.90625,-1.5 2.859375,-1.390625 2.4375,-0.34375 1.90625,-0.109375 1.5625,-0.109375 c -0.203125,0 -0.3125,-0.125 -0.3125,-0.453125 0,-0.25 0.03125,-0.3125 0.0625,-0.484375 z m 0,0"
               style="stroke:none"
               inkscape:connector-curvature="0" />
          </symbol>
          <symbol
             id="textext-eb19986f-2"
             overflow="visible"
             style="overflow:visible">
            <path
               id="path18729"
               d="m 1.90625,-0.53125 c 0,-0.28125 -0.234375,-0.53125 -0.515625,-0.53125 -0.296875,0 -0.53125,0.25 -0.53125,0.53125 C 0.859375,-0.234375 1.09375,0 1.390625,0 1.671875,0 1.90625,-0.234375 1.90625,-0.53125 z m 0,0"
               style="stroke:none"
               inkscape:connector-curvature="0" />
          </symbol>
          <symbol
             id="textext-eb19986f-3"
             overflow="visible"
             style="overflow:visible">
            <path
               id="path18732"
               d="m 3.5625,-2.90625 c 0.40625,1.046875 0.890625,2.5625 1.046875,2.796875 0.15625,0.21875 0.25,0.21875 0.53125,0.21875 l 0.21875,0 c 0.09375,-0.015625 0.109375,-0.0625 0.109375,-0.09375 0,-0.03125 -0.03125,-0.0625 -0.0625,-0.09375 C 5.3125,-0.1875 5.25,-0.34375 5.1875,-0.53125 L 3.15625,-6.203125 c -0.21875,-0.578125 -0.75,-0.71875 -1.21875,-0.71875 -0.046875,0 -0.1875,0 -0.1875,0.109375 0,0.078125 0.078125,0.109375 0.09375,0.109375 C 2.171875,-6.65625 2.25,-6.59375 2.5,-5.90625 l 0.953125,2.703125 -2.75,2.734375 c -0.109375,0.125 -0.171875,0.171875 -0.171875,0.3125 0,0.171875 0.140625,0.28125 0.296875,0.28125 0.15625,0 0.25,-0.109375 0.328125,-0.203125 z m 0,0"
               style="stroke:none"
               inkscape:connector-curvature="0" />
          </symbol>
          <symbol
             id="textext-eb19986f-4"
             overflow="visible"
             style="overflow:visible">
            <path
               id="path18735"
               d="m 6.84375,-3.265625 c 0.15625,0 0.34375,0 0.34375,-0.1875 C 7.1875,-3.65625 7,-3.65625 6.859375,-3.65625 l -5.96875,0 c -0.140625,0 -0.328125,0 -0.328125,0.203125 0,0.1875 0.1875,0.1875 0.328125,0.1875 z m 0.015625,1.9375 c 0.140625,0 0.328125,0 0.328125,-0.203125 0,-0.1875 -0.1875,-0.1875 -0.34375,-0.1875 l -5.953125,0 c -0.140625,0 -0.328125,0 -0.328125,0.1875 0,0.203125 0.1875,0.203125 0.328125,0.203125 z m 0,0"
               style="stroke:none"
               inkscape:connector-curvature="0" />
          </symbol>
          <symbol
             id="textext-eb19986f-5"
             overflow="visible"
             style="overflow:visible">
            <path
               id="path18738"
               d="m 2.9375,-6.375 c 0,-0.25 0,-0.265625 -0.234375,-0.265625 C 2.078125,-6 1.203125,-6 0.890625,-6 l 0,0.3125 c 0.203125,0 0.78125,0 1.296875,-0.265625 l 0,5.171875 c 0,0.359375 -0.03125,0.46875 -0.921875,0.46875 l -0.3125,0 0,0.3125 c 0.34375,-0.03125 1.203125,-0.03125 1.609375,-0.03125 0.390625,0 1.265625,0 1.609375,0.03125 l 0,-0.3125 -0.3125,0 c -0.90625,0 -0.921875,-0.109375 -0.921875,-0.46875 z m 0,0"
               style="stroke:none"
               inkscape:connector-curvature="0" />
          </symbol>
          <symbol
             id="textext-eb19986f-6"
             overflow="visible"
             style="overflow:visible">
            <path
               id="path18741"
               d="m 1.625,-4.5625 c -0.453125,-0.296875 -0.5,-0.625 -0.5,-0.796875 0,-0.609375 0.65625,-1.03125 1.359375,-1.03125 0.71875,0 1.359375,0.515625 1.359375,1.234375 0,0.578125 -0.390625,1.046875 -0.984375,1.390625 z m 1.453125,0.953125 C 3.796875,-3.984375 4.28125,-4.5 4.28125,-5.15625 c 0,-0.921875 -0.875,-1.484375 -1.78125,-1.484375 -1,0 -1.8125,0.734375 -1.8125,1.671875 0,0.171875 0.015625,0.625 0.4375,1.09375 0.109375,0.109375 0.484375,0.359375 0.734375,0.53125 C 1.28125,-3.046875 0.421875,-2.5 0.421875,-1.5 c 0,1.046875 1.015625,1.71875 2.0625,1.71875 1.125,0 2.078125,-0.828125 2.078125,-1.890625 0,-0.359375 -0.109375,-0.8125 -0.5,-1.234375 C 3.875,-3.109375 3.71875,-3.203125 3.078125,-3.609375 z m -1,0.421875 1.234375,0.78125 c 0.28125,0.1875 0.75,0.484375 0.75,1.09375 0,0.734375 -0.75,1.25 -1.5625,1.25 -0.859375,0 -1.578125,-0.609375 -1.578125,-1.4375 0,-0.578125 0.3125,-1.21875 1.15625,-1.6875 z m 0,0"
               style="stroke:none"
               inkscape:connector-curvature="0" />
          </symbol>
          <symbol
             id="textext-eb19986f-7"
             overflow="visible"
             style="overflow:visible">
            <path
               id="path18744"
               d="m 2.9375,-1.640625 0,0.859375 c 0,0.359375 -0.03125,0.46875 -0.765625,0.46875 l -0.203125,0 0,0.3125 C 2.375,-0.03125 2.890625,-0.03125 3.3125,-0.03125 c 0.421875,0 0.9375,0 1.359375,0.03125 l 0,-0.3125 -0.21875,0 c -0.734375,0 -0.75,-0.109375 -0.75,-0.46875 l 0,-0.859375 0.984375,0 0,-0.3125 -0.984375,0 0,-4.53125 c 0,-0.203125 0,-0.265625 -0.171875,-0.265625 -0.078125,0 -0.109375,0 -0.1875,0.125 l -3.0625,4.671875 0,0.3125 z m 0.046875,-0.3125 -2.421875,0 2.421875,-3.71875 z m 0,0"
               style="stroke:none"
               inkscape:connector-curvature="0" />
          </symbol>
          <symbol
             id="textext-eb19986f-8"
             overflow="visible"
             style="overflow:visible">
            <path
               id="path18747"
               d="m 1.3125,-3.265625 0,-0.25 c 0,-2.515625 1.234375,-2.875 1.75,-2.875 0.234375,0 0.65625,0.0625 0.875,0.40625 -0.15625,0 -0.546875,0 -0.546875,0.4375 0,0.3125 0.234375,0.46875 0.453125,0.46875 0.15625,0 0.46875,-0.09375 0.46875,-0.484375 0,-0.59375 -0.4375,-1.078125 -1.265625,-1.078125 -1.28125,0 -2.625,1.28125 -2.625,3.484375 0,2.671875 1.15625,3.375 2.078125,3.375 1.109375,0 2.0625,-0.9375 2.0625,-2.25 0,-1.265625 -0.890625,-2.21875 -2,-2.21875 -0.671875,0 -1.046875,0.5 -1.25,0.984375 z M 2.5,-0.0625 c -0.625,0 -0.921875,-0.59375 -0.984375,-0.75 -0.1875,-0.46875 -0.1875,-1.265625 -0.1875,-1.4375 0,-0.78125 0.328125,-1.78125 1.21875,-1.78125 0.171875,0 0.625,0 0.9375,0.625 0.171875,0.359375 0.171875,0.875 0.171875,1.359375 0,0.484375 0,0.984375 -0.171875,1.34375 C 3.1875,-0.109375 2.734375,-0.0625 2.5,-0.0625 z m 0,0"
               style="stroke:none"
               inkscape:connector-curvature="0" />
          </symbol>
          <symbol
             id="textext-eb19986f-9"
             overflow="visible"
             style="overflow:visible">
            <path
               id="path18750"
               d="m 4.75,-6.078125 c 0.078125,-0.109375 0.078125,-0.125 0.078125,-0.34375 l -2.421875,0 c -1.203125,0 -1.234375,-0.125 -1.265625,-0.3125 l -0.25,0 -0.328125,2.046875 0.25,0 c 0.03125,-0.15625 0.109375,-0.78125 0.25,-0.90625 0.0625,-0.0625 0.84375,-0.0625 0.96875,-0.0625 l 2.0625,0 C 3.984375,-5.5 3.203125,-4.40625 2.984375,-4.078125 2.078125,-2.734375 1.75,-1.34375 1.75,-0.328125 c 0,0.09375 0,0.546875 0.46875,0.546875 0.453125,0 0.453125,-0.453125 0.453125,-0.546875 l 0,-0.515625 c 0,-0.546875 0.03125,-1.09375 0.109375,-1.625 0.046875,-0.234375 0.171875,-1.09375 0.625,-1.703125 z m 0,0"
               style="stroke:none"
               inkscape:connector-curvature="0" />
          </symbol>
          <symbol
             id="textext-eb19986f-10"
             overflow="visible"
             style="overflow:visible">
            <path
               id="path18753"
               d="m 4.578125,-3.1875 c 0,-0.796875 -0.046875,-1.59375 -0.390625,-2.328125 -0.453125,-0.96875 -1.28125,-1.125 -1.6875,-1.125 -0.609375,0 -1.328125,0.265625 -1.75,1.1875 -0.3125,0.6875 -0.359375,1.46875 -0.359375,2.265625 0,0.75 0.03125,1.640625 0.453125,2.40625 0.421875,0.796875 1.15625,1 1.640625,1 0.53125,0 1.296875,-0.203125 1.734375,-1.15625 0.3125,-0.6875 0.359375,-1.46875 0.359375,-2.25 z M 2.484375,0 C 2.09375,0 1.5,-0.25 1.328125,-1.203125 1.21875,-1.796875 1.21875,-2.71875 1.21875,-3.3125 c 0,-0.640625 0,-1.296875 0.078125,-1.828125 0.1875,-1.1875 0.9375,-1.28125 1.1875,-1.28125 0.328125,0 0.984375,0.1875 1.171875,1.171875 0.109375,0.5625 0.109375,1.3125 0.109375,1.9375 0,0.75 0,1.421875 -0.109375,2.0625 C 3.5,-0.296875 2.9375,0 2.484375,0 z m 0,0"
               style="stroke:none"
               inkscape:connector-curvature="0" />
          </symbol>
          <symbol
             id="textext-eb19986f-11"
             overflow="visible"
             style="overflow:visible">
            <path
               id="path18756"
               d="m 2.890625,-3.515625 c 0.8125,-0.265625 1.390625,-0.953125 1.390625,-1.75 0,-0.8125 -0.875,-1.375 -1.828125,-1.375 -1,0 -1.765625,0.59375 -1.765625,1.359375 0,0.328125 0.21875,0.515625 0.515625,0.515625 0.296875,0 0.5,-0.21875 0.5,-0.515625 0,-0.484375 -0.46875,-0.484375 -0.609375,-0.484375 0.296875,-0.5 0.953125,-0.625 1.3125,-0.625 0.421875,0 0.96875,0.21875 0.96875,1.109375 0,0.125 -0.03125,0.703125 -0.28125,1.140625 C 2.796875,-3.65625 2.453125,-3.625 2.203125,-3.625 2.125,-3.609375 1.890625,-3.59375 1.8125,-3.59375 c -0.078125,0.015625 -0.140625,0.03125 -0.140625,0.125 0,0.109375 0.0625,0.109375 0.234375,0.109375 l 0.4375,0 c 0.8125,0 1.1875,0.671875 1.1875,1.65625 0,1.359375 -0.6875,1.640625 -1.125,1.640625 -0.4375,0 -1.1875,-0.171875 -1.53125,-0.75 0.34375,0.046875 0.65625,-0.171875 0.65625,-0.546875 0,-0.359375 -0.265625,-0.5625 -0.546875,-0.5625 -0.25,0 -0.5625,0.140625 -0.5625,0.578125 0,0.90625 0.921875,1.5625 2.015625,1.5625 1.21875,0 2.125,-0.90625 2.125,-1.921875 0,-0.8125 -0.640625,-1.59375 -1.671875,-1.8125 z m 0,0"
               style="stroke:none"
               inkscape:connector-curvature="0" />
          </symbol>
          <symbol
             id="textext-eb19986f-12"
             overflow="visible"
             style="overflow:visible">
            <path
               id="path18759"
               d="m 3.65625,-3.171875 0,0.328125 c 0,2.328125 -1.03125,2.78125 -1.609375,2.78125 -0.171875,0 -0.71875,-0.015625 -0.984375,-0.359375 0.4375,0 0.515625,-0.28125 0.515625,-0.453125 0,-0.3125 -0.234375,-0.453125 -0.453125,-0.453125 -0.15625,0 -0.453125,0.078125 -0.453125,0.46875 0,0.671875 0.53125,1.078125 1.375,1.078125 1.296875,0 2.515625,-1.359375 2.515625,-3.5 0,-2.6875 -1.15625,-3.359375 -2.046875,-3.359375 -0.546875,0 -1.03125,0.1875 -1.453125,0.625 -0.421875,0.453125 -0.640625,0.875 -0.640625,1.625 0,1.234375 0.875,2.21875 1.984375,2.21875 0.609375,0 1.015625,-0.421875 1.25,-1 z M 2.421875,-2.40625 c -0.15625,0 -0.625,0 -0.921875,-0.625 -0.1875,-0.375 -0.1875,-0.859375 -0.1875,-1.359375 0,-0.53125 0,-1 0.21875,-1.375 0.265625,-0.5 0.640625,-0.625 0.984375,-0.625 0.46875,0 0.796875,0.34375 0.96875,0.78125 0.109375,0.328125 0.15625,0.953125 0.15625,1.40625 0,0.828125 -0.34375,1.796875 -1.21875,1.796875 z m 0,0"
               style="stroke:none"
               inkscape:connector-curvature="0" />
          </symbol>
          <symbol
             id="textext-eb19986f-13"
             overflow="visible"
             style="overflow:visible">
            <path
               id="path18762"
               d="m 4.46875,-2 c 0,-1.1875 -0.8125,-2.1875 -1.890625,-2.1875 -0.46875,0 -0.90625,0.15625 -1.265625,0.515625 l 0,-1.953125 c 0.203125,0.0625 0.53125,0.125 0.84375,0.125 1.234375,0 1.9375,-0.90625 1.9375,-1.03125 0,-0.0625 -0.03125,-0.109375 -0.109375,-0.109375 0,0 -0.03125,0 -0.078125,0.03125 C 3.703125,-6.515625 3.21875,-6.3125 2.546875,-6.3125 2.15625,-6.3125 1.6875,-6.390625 1.21875,-6.59375 1.140625,-6.625 1.125,-6.625 1.109375,-6.625 1,-6.625 1,-6.546875 1,-6.390625 L 1,-3.4375 c 0,0.171875 0,0.25 0.140625,0.25 0.078125,0 0.09375,-0.015625 0.140625,-0.078125 C 1.390625,-3.421875 1.75,-3.96875 2.5625,-3.96875 c 0.515625,0 0.765625,0.453125 0.84375,0.640625 0.15625,0.375 0.1875,0.75 0.1875,1.25 0,0.359375 0,0.953125 -0.25,1.375 C 3.109375,-0.3125 2.734375,-0.0625 2.28125,-0.0625 c -0.71875,0 -1.296875,-0.53125 -1.46875,-1.109375 0.03125,0 0.0625,0.015625 0.171875,0.015625 0.328125,0 0.5,-0.25 0.5,-0.484375 0,-0.25 -0.171875,-0.5 -0.5,-0.5 C 0.84375,-2.140625 0.5,-2.0625 0.5,-1.609375 0.5,-0.75 1.1875,0.21875 2.296875,0.21875 3.453125,0.21875 4.46875,-0.734375 4.46875,-2 z m 0,0"
               style="stroke:none"
               inkscape:connector-curvature="0" />
          </symbol>
          <symbol
             id="textext-eb19986f-14"
             overflow="visible"
             style="overflow:visible">
            <path
               id="path18765"
               d="m 7.203125,-4.5 c 0,-0.21875 -0.078125,-0.3125 -0.140625,-0.3125 -0.046875,0 -0.140625,0.046875 -0.140625,0.28125 C 6.875,-3.84375 6.1875,-3.4375 5.53125,-3.4375 4.953125,-3.4375 4.453125,-3.75 3.9375,-4.09375 3.40625,-4.453125 2.859375,-4.8125 2.21875,-4.8125 c -0.9375,0 -1.671875,0.703125 -1.671875,1.625 0,0.21875 0.078125,0.296875 0.140625,0.296875 0.09375,0 0.140625,-0.1875 0.140625,-0.234375 C 0.875,-3.953125 1.6875,-4.25 2.21875,-4.25 c 0.578125,0 1.078125,0.296875 1.59375,0.65625 0.53125,0.359375 1.078125,0.71875 1.71875,0.71875 0.921875,0 1.671875,-0.71875 1.671875,-1.625 z m 0,2.328125 c 0,-0.296875 -0.125,-0.3125 -0.140625,-0.3125 -0.046875,0 -0.140625,0.046875 -0.140625,0.265625 C 6.875,-1.53125 6.1875,-1.109375 5.53125,-1.109375 c -0.578125,0 -1.078125,-0.3125 -1.59375,-0.671875 C 3.40625,-2.140625 2.859375,-2.5 2.21875,-2.5 c -0.9375,0 -1.671875,0.71875 -1.671875,1.625 0,0.234375 0.078125,0.3125 0.140625,0.3125 0.09375,0 0.140625,-0.1875 0.140625,-0.234375 C 0.875,-1.640625 1.6875,-1.9375 2.21875,-1.9375 c 0.578125,0 1.078125,0.3125 1.59375,0.65625 0.53125,0.359375 1.078125,0.71875 1.71875,0.71875 0.953125,0 1.671875,-0.734375 1.671875,-1.609375 z m 0,0"
               style="stroke:none"
               inkscape:connector-curvature="0" />
          </symbol>
          <symbol
             id="textext-eb19986f-15"
             overflow="visible"
             style="overflow:visible">
            <path
               id="path18768"
               d="M 3.84375,2.5 C 4,2.5 4.203125,2.5 4.203125,2.296875 4.203125,2.09375 4,2.09375 3.84375,2.09375 l -1.703125,0 0,-9.21875 c 0,-0.171875 0,-0.359375 -0.203125,-0.359375 -0.203125,0 -0.203125,0.21875 -0.203125,0.359375 l 0,9.265625 C 1.734375,2.453125 1.78125,2.5 2.09375,2.5 z m 0,0"
               style="stroke:none"
               inkscape:connector-curvature="0" />
          </symbol>
          <symbol
             id="textext-eb19986f-16"
             overflow="visible"
             style="overflow:visible">
            <path
               id="path18771"
               d="m 2.6875,-7.125 c 0,-0.171875 0,-0.359375 -0.203125,-0.359375 -0.203125,0 -0.203125,0.21875 -0.203125,0.359375 l 0,9.21875 -1.71875,0 c -0.140625,0 -0.359375,0 -0.359375,0.203125 C 0.203125,2.5 0.421875,2.5 0.5625,2.5 l 1.765625,0 C 2.65625,2.5 2.6875,2.46875 2.6875,2.140625 z m 0,0"
               style="stroke:none"
               inkscape:connector-curvature="0" />
          </symbol>
        </g>
      </defs>
      <g
         id="textext-eb19986f-17">
        <g
           id="g18774"
           style="fill:#000000;fill-opacity:1">
          <use
             id="use18776"
             y="134.765"
             x="223.43201"
             xlink:href="#textext-eb19986f-0"
             width="477.81085"
             height="359.11816" />
          <use
             id="use18778"
             y="134.765"
             x="228.61754"
             xlink:href="#textext-eb19986f-1"
             width="477.81085"
             height="359.11816" />
        </g>
        <g
           id="g18780"
           style="fill:#000000;fill-opacity:1">
          <use
             id="use18782"
             y="134.765"
             x="234.98199"
             xlink:href="#textext-eb19986f-4"
             width="477.81085"
             height="359.11816" />
        </g>
        <g
           id="g18784"
           style="fill:#000000;fill-opacity:1">
          <use
             id="use18786"
             y="134.765"
             x="245.50052"
             xlink:href="#textext-eb19986f-5"
             width="477.81085"
             height="359.11816" />
          <use
             id="use18788"
             y="134.765"
             x="250.48181"
             xlink:href="#textext-eb19986f-6"
             width="477.81085"
             height="359.11816" />
          <use
             id="use18790"
             y="134.765"
             x="255.46312"
             xlink:href="#textext-eb19986f-7"
             width="477.81085"
             height="359.11816" />
          <use
             id="use18792"
             y="134.765"
             x="260.44443"
             xlink:href="#textext-eb19986f-7"
             width="477.81085"
             height="359.11816" />
          <use
             id="use18794"
             y="134.765"
             x="265.42572"
             xlink:href="#textext-eb19986f-8"
             width="477.81085"
             height="359.11816" />
          <use
             id="use18796"
             y="134.765"
             x="270.40701"
             xlink:href="#textext-eb19986f-9"
             width="477.81085"
             height="359.11816" />
          <use
             id="use18798"
             y="134.765"
             x="275.38831"
             xlink:href="#textext-eb19986f-7"
             width="477.81085"
             height="359.11816" />
          <use
             id="use18800"
             y="134.765"
             x="280.3696"
             xlink:href="#textext-eb19986f-7"
             width="477.81085"
             height="359.11816" />
          <use
             id="use18802"
             y="134.765"
             x="285.35092"
             xlink:href="#textext-eb19986f-10"
             width="477.81085"
             height="359.11816" />
          <use
             id="use18804"
             y="134.765"
             x="290.33221"
             xlink:href="#textext-eb19986f-9"
             width="477.81085"
             height="359.11816" />
          <use
             id="use18806"
             y="134.765"
             x="295.31351"
             xlink:href="#textext-eb19986f-11"
             width="477.81085"
             height="359.11816" />
          <use
             id="use18808"
             y="134.765"
             x="300.2948"
             xlink:href="#textext-eb19986f-9"
             width="477.81085"
             height="359.11816" />
          <use
             id="use18810"
             y="134.765"
             x="305.27612"
             xlink:href="#textext-eb19986f-10"
             width="477.81085"
             height="359.11816" />
          <use
             id="use18812"
             y="134.765"
             x="310.25742"
             xlink:href="#textext-eb19986f-12"
             width="477.81085"
             height="359.11816" />
          <use
             id="use18814"
             y="134.765"
             x="315.23871"
             xlink:href="#textext-eb19986f-13"
             width="477.81085"
             height="359.11816" />
          <use
             id="use18816"
             y="134.765"
             x="320.22"
             xlink:href="#textext-eb19986f-13"
             width="477.81085"
             height="359.11816" />
          <use
             id="use18818"
             y="134.765"
             x="325.20132"
             xlink:href="#textext-eb19986f-5"
             width="477.81085"
             height="359.11816" />
          <use
             id="use18820"
             y="134.765"
             x="330.18262"
             xlink:href="#textext-eb19986f-8"
             width="477.81085"
             height="359.11816" />
        </g>
        <g
           id="g18822"
           style="fill:#000000;fill-opacity:1">
          <use
             id="use18824"
             y="134.765"
             x="337.92999"
             xlink:href="#textext-eb19986f-14"
             width="477.81085"
             height="359.11816" />
        </g>
        <g
           id="g18826"
           style="fill:#000000;fill-opacity:1">
          <use
             id="use18828"
             y="134.765"
             x="348.44852"
             xlink:href="#textext-eb19986f-15"
             width="477.81085"
             height="359.11816" />
        </g>
        <g
           id="g18830"
           style="fill:#000000;fill-opacity:1">
          <use
             id="use18832"
             y="134.765"
             x="352.87399"
             xlink:href="#textext-eb19986f-10"
             width="477.81085"
             height="359.11816" />
        </g>
        <g
           id="g18834"
           style="fill:#000000;fill-opacity:1">
          <use
             id="use18836"
             y="134.765"
             x="357.85501"
             xlink:href="#textext-eb19986f-2"
             width="477.81085"
             height="359.11816" />
        </g>
        <g
           id="g18838"
           style="fill:#000000;fill-opacity:1">
          <use
             id="use18840"
             y="134.765"
             x="360.62299"
             xlink:href="#textext-eb19986f-10"
             width="477.81085"
             height="359.11816" />
          <use
             id="use18842"
             y="134.765"
             x="365.60431"
             xlink:href="#textext-eb19986f-5"
             width="477.81085"
             height="359.11816" />
        </g>
        <g
           id="g18844"
           style="fill:#000000;fill-opacity:1">
          <use
             id="use18846"
             y="134.765"
             x="370.58499"
             xlink:href="#textext-eb19986f-3"
             width="477.81085"
             height="359.11816" />
        </g>
        <g
           id="g18848"
           style="fill:#000000;fill-opacity:1">
          <use
             id="use18850"
             y="134.765"
             x="376.397"
             xlink:href="#textext-eb19986f-16"
             width="477.81085"
             height="359.11816" />
        </g>
      </g>
    </g>
    <g
       id="g3517"
       transform="matrix(5.1627663,0,0,5.1627663,-1625.0251,-505.22386)"
       ns0:preamble=""
       ns0:text="\\begin{eqnarray}\n\\nonumber\nx_{n+1} &amp; = &amp;x_{n} + \\{ dt \\star [ \\sigma\' \\star (y_{n}-x_{n})] \\}\\\\\n\\nonumber\ny_{n+1} &amp; = &amp; y_{n} +( dt \\star \\{ [x_{n}\\star(\\rho\'-f(n)-z_{n})]-y_{n} \\} ) \\\\\n\\nonumber\nz_{n+1} &amp; = &amp; z_{n} + \\{ dt \\star [(x_{n} \\star y_{n}) - (\\beta\' \\star z_{n})] \\}\n\\end{eqnarray}">
      <defs
         id="defs3519">
        <g
           id="g3521">
          <symbol
             id="textext-122b64aa-0"
             overflow="visible">
            <path
               id="path3524"
               d="M 3.328125 -3.015625 C 3.390625 -3.265625 3.625 -4.1875 4.3125 -4.1875 C 4.359375 -4.1875 4.609375 -4.1875 4.8125 -4.0625 C 4.53125 -4 4.34375 -3.765625 4.34375 -3.515625 C 4.34375 -3.359375 4.453125 -3.171875 4.71875 -3.171875 C 4.9375 -3.171875 5.25 -3.34375 5.25 -3.75 C 5.25 -4.265625 4.671875 -4.40625 4.328125 -4.40625 C 3.75 -4.40625 3.40625 -3.875 3.28125 -3.65625 C 3.03125 -4.3125 2.5 -4.40625 2.203125 -4.40625 C 1.171875 -4.40625 0.59375 -3.125 0.59375 -2.875 C 0.59375 -2.765625 0.703125 -2.765625 0.71875 -2.765625 C 0.796875 -2.765625 0.828125 -2.796875 0.84375 -2.875 C 1.1875 -3.9375 1.84375 -4.1875 2.1875 -4.1875 C 2.375 -4.1875 2.71875 -4.09375 2.71875 -3.515625 C 2.71875 -3.203125 2.546875 -2.546875 2.1875 -1.140625 C 2.03125 -0.53125 1.671875 -0.109375 1.234375 -0.109375 C 1.171875 -0.109375 0.953125 -0.109375 0.734375 -0.234375 C 0.984375 -0.296875 1.203125 -0.5 1.203125 -0.78125 C 1.203125 -1.046875 0.984375 -1.125 0.84375 -1.125 C 0.53125 -1.125 0.296875 -0.875 0.296875 -0.546875 C 0.296875 -0.09375 0.78125 0.109375 1.21875 0.109375 C 1.890625 0.109375 2.25 -0.59375 2.265625 -0.640625 C 2.390625 -0.28125 2.75 0.109375 3.34375 0.109375 C 4.375 0.109375 4.9375 -1.171875 4.9375 -1.421875 C 4.9375 -1.53125 4.859375 -1.53125 4.828125 -1.53125 C 4.734375 -1.53125 4.71875 -1.484375 4.6875 -1.421875 C 4.359375 -0.34375 3.6875 -0.109375 3.375 -0.109375 C 2.984375 -0.109375 2.828125 -0.421875 2.828125 -0.765625 C 2.828125 -0.984375 2.875 -1.203125 2.984375 -1.640625 Z M 3.328125 -3.015625 "
               style="stroke:none;" />
          </symbol>
          <symbol
             id="textext-122b64aa-1"
             overflow="visible">
            <path
               id="path3527"
               d="M 5.140625 -6.8125 C 5.140625 -6.8125 5.140625 -6.921875 5.015625 -6.921875 C 4.859375 -6.921875 3.921875 -6.828125 3.75 -6.8125 C 3.671875 -6.796875 3.609375 -6.75 3.609375 -6.625 C 3.609375 -6.5 3.703125 -6.5 3.84375 -6.5 C 4.328125 -6.5 4.34375 -6.4375 4.34375 -6.328125 L 4.3125 -6.125 L 3.71875 -3.765625 C 3.53125 -4.140625 3.25 -4.40625 2.796875 -4.40625 C 1.640625 -4.40625 0.40625 -2.9375 0.40625 -1.484375 C 0.40625 -0.546875 0.953125 0.109375 1.71875 0.109375 C 1.921875 0.109375 2.421875 0.0625 3.015625 -0.640625 C 3.09375 -0.21875 3.453125 0.109375 3.921875 0.109375 C 4.28125 0.109375 4.5 -0.125 4.671875 -0.4375 C 4.828125 -0.796875 4.96875 -1.40625 4.96875 -1.421875 C 4.96875 -1.53125 4.875 -1.53125 4.84375 -1.53125 C 4.75 -1.53125 4.734375 -1.484375 4.703125 -1.34375 C 4.53125 -0.703125 4.359375 -0.109375 3.953125 -0.109375 C 3.671875 -0.109375 3.65625 -0.375 3.65625 -0.5625 C 3.65625 -0.8125 3.671875 -0.875 3.703125 -1.046875 Z M 3.078125 -1.1875 C 3.015625 -1 3.015625 -0.984375 2.875 -0.8125 C 2.4375 -0.265625 2.03125 -0.109375 1.75 -0.109375 C 1.25 -0.109375 1.109375 -0.65625 1.109375 -1.046875 C 1.109375 -1.546875 1.421875 -2.765625 1.65625 -3.234375 C 1.96875 -3.8125 2.40625 -4.1875 2.8125 -4.1875 C 3.453125 -4.1875 3.59375 -3.375 3.59375 -3.3125 C 3.59375 -3.25 3.578125 -3.1875 3.5625 -3.140625 Z M 3.078125 -1.1875 "
               style="stroke:none;" />
          </symbol>
          <symbol
             id="textext-122b64aa-2"
             overflow="visible">
            <path
               id="path3530"
               d="M 2.046875 -3.984375 L 2.984375 -3.984375 C 3.1875 -3.984375 3.296875 -3.984375 3.296875 -4.1875 C 3.296875 -4.296875 3.1875 -4.296875 3.015625 -4.296875 L 2.140625 -4.296875 C 2.5 -5.71875 2.546875 -5.90625 2.546875 -5.96875 C 2.546875 -6.140625 2.421875 -6.234375 2.25 -6.234375 C 2.21875 -6.234375 1.9375 -6.234375 1.859375 -5.875 L 1.46875 -4.296875 L 0.53125 -4.296875 C 0.328125 -4.296875 0.234375 -4.296875 0.234375 -4.109375 C 0.234375 -3.984375 0.3125 -3.984375 0.515625 -3.984375 L 1.390625 -3.984375 C 0.671875 -1.15625 0.625 -0.984375 0.625 -0.8125 C 0.625 -0.265625 1 0.109375 1.546875 0.109375 C 2.5625 0.109375 3.125 -1.34375 3.125 -1.421875 C 3.125 -1.53125 3.046875 -1.53125 3.015625 -1.53125 C 2.921875 -1.53125 2.90625 -1.5 2.859375 -1.390625 C 2.4375 -0.34375 1.90625 -0.109375 1.5625 -0.109375 C 1.359375 -0.109375 1.25 -0.234375 1.25 -0.5625 C 1.25 -0.8125 1.28125 -0.875 1.3125 -1.046875 Z M 2.046875 -3.984375 "
               style="stroke:none;" />
          </symbol>
          <symbol
             id="textext-122b64aa-3"
             overflow="visible">
            <path
               id="path3533"
               d="M 2.375 -1.5625 C 2.390625 -1.578125 2.46875 -1.65625 2.5 -1.65625 C 2.53125 -1.65625 2.90625 -1.21875 2.984375 -1.140625 C 3.265625 -0.828125 3.5625 -0.515625 3.859375 -0.203125 C 3.890625 -0.15625 3.921875 -0.15625 3.9375 -0.15625 C 4.015625 -0.15625 4.046875 -0.234375 4.046875 -0.265625 C 4.046875 -0.3125 3.734375 -0.859375 3.453125 -1.359375 L 3.0625 -2.078125 L 4.796875 -2.875 C 4.9375 -2.953125 4.9375 -2.984375 4.9375 -3.03125 C 4.9375 -3.078125 4.90625 -3.125 4.828125 -3.125 C 4.828125 -3.125 4.34375 -3.046875 2.84375 -2.734375 L 2.609375 -4.609375 C 2.59375 -4.796875 2.578125 -4.828125 2.5 -4.828125 C 2.40625 -4.828125 2.375 -4.78125 2.359375 -4.609375 L 2.140625 -2.734375 L 0.296875 -3.109375 C 0.25 -3.125 0.171875 -3.125 0.15625 -3.125 C 0.078125 -3.125 0.046875 -3.078125 0.046875 -3.03125 C 0.046875 -2.953125 0.09375 -2.9375 0.203125 -2.875 L 1.9375 -2.078125 L 1 -0.421875 C 0.953125 -0.3125 0.9375 -0.296875 0.9375 -0.265625 C 0.9375 -0.234375 0.96875 -0.15625 1.046875 -0.15625 C 1.0625 -0.15625 1.09375 -0.15625 1.203125 -0.265625 Z M 2.375 -1.5625 "
               style="stroke:none;" />
          </symbol>
          <symbol
             id="textext-122b64aa-4"
             overflow="visible">
            <path
               id="path3536"
               d="M 5.15625 -3.71875 C 5.296875 -3.71875 5.65625 -3.71875 5.65625 -4.0625 C 5.65625 -4.296875 5.4375 -4.296875 5.265625 -4.296875 L 2.984375 -4.296875 C 1.484375 -4.296875 0.375 -2.65625 0.375 -1.46875 C 0.375 -0.59375 0.96875 0.109375 1.875 0.109375 C 3.046875 0.109375 4.375 -1.09375 4.375 -2.625 C 4.375 -2.796875 4.375 -3.28125 4.0625 -3.71875 Z M 1.890625 -0.109375 C 1.390625 -0.109375 1 -0.46875 1 -1.1875 C 1 -1.484375 1.109375 -2.296875 1.46875 -2.890625 C 1.890625 -3.578125 2.484375 -3.71875 2.828125 -3.71875 C 3.65625 -3.71875 3.734375 -3.0625 3.734375 -2.75 C 3.734375 -2.28125 3.53125 -1.46875 3.203125 -0.953125 C 2.8125 -0.375 2.265625 -0.109375 1.890625 -0.109375 Z M 1.890625 -0.109375 "
               style="stroke:none;" />
          </symbol>
          <symbol
             id="textext-122b64aa-5"
             overflow="visible">
            <path
               id="path3539"
               d="M 4.84375 -3.796875 C 4.890625 -3.9375 4.890625 -3.953125 4.890625 -4.03125 C 4.890625 -4.203125 4.75 -4.296875 4.59375 -4.296875 C 4.5 -4.296875 4.34375 -4.234375 4.25 -4.09375 C 4.234375 -4.03125 4.140625 -3.734375 4.109375 -3.546875 C 4.03125 -3.296875 3.96875 -3.015625 3.90625 -2.75 L 3.453125 -0.953125 C 3.421875 -0.8125 2.984375 -0.109375 2.328125 -0.109375 C 1.828125 -0.109375 1.71875 -0.546875 1.71875 -0.921875 C 1.71875 -1.375 1.890625 -2 2.21875 -2.875 C 2.375 -3.28125 2.421875 -3.390625 2.421875 -3.59375 C 2.421875 -4.03125 2.109375 -4.40625 1.609375 -4.40625 C 0.65625 -4.40625 0.296875 -2.953125 0.296875 -2.875 C 0.296875 -2.765625 0.390625 -2.765625 0.40625 -2.765625 C 0.515625 -2.765625 0.515625 -2.796875 0.5625 -2.953125 C 0.84375 -3.890625 1.234375 -4.1875 1.578125 -4.1875 C 1.65625 -4.1875 1.828125 -4.1875 1.828125 -3.875 C 1.828125 -3.625 1.71875 -3.359375 1.65625 -3.171875 C 1.25 -2.109375 1.078125 -1.546875 1.078125 -1.078125 C 1.078125 -0.1875 1.703125 0.109375 2.296875 0.109375 C 2.6875 0.109375 3.015625 -0.0625 3.296875 -0.34375 C 3.171875 0.171875 3.046875 0.671875 2.65625 1.203125 C 2.390625 1.53125 2.015625 1.828125 1.5625 1.828125 C 1.421875 1.828125 0.96875 1.796875 0.796875 1.40625 C 0.953125 1.40625 1.09375 1.40625 1.21875 1.28125 C 1.328125 1.203125 1.421875 1.0625 1.421875 0.875 C 1.421875 0.5625 1.15625 0.53125 1.0625 0.53125 C 0.828125 0.53125 0.5 0.6875 0.5 1.171875 C 0.5 1.671875 0.9375 2.046875 1.5625 2.046875 C 2.578125 2.046875 3.609375 1.140625 3.890625 0.015625 Z M 4.84375 -3.796875 "
               style="stroke:none;" />
          </symbol>
          <symbol
             id="textext-122b64aa-6"
             overflow="visible">
            <path
               id="path3542"
               d="M 0.328125 1.71875 C 0.296875 1.84375 0.296875 1.859375 0.296875 1.890625 C 0.296875 2.03125 0.40625 2.15625 0.578125 2.15625 C 0.78125 2.15625 0.90625 1.96875 0.921875 1.9375 C 0.984375 1.859375 1.296875 0.515625 1.5625 -0.5625 C 1.765625 -0.15625 2.078125 0.109375 2.546875 0.109375 C 3.71875 0.109375 5 -1.296875 5 -2.78125 C 5 -3.84375 4.34375 -4.40625 3.625 -4.40625 C 2.65625 -4.40625 1.609375 -3.40625 1.3125 -2.1875 Z M 2.546875 -0.109375 C 1.84375 -0.109375 1.6875 -0.90625 1.6875 -1 C 1.6875 -1.03125 1.734375 -1.234375 1.765625 -1.359375 C 2.046875 -2.484375 2.140625 -2.84375 2.359375 -3.234375 C 2.796875 -3.96875 3.296875 -4.1875 3.59375 -4.1875 C 3.96875 -4.1875 4.28125 -3.890625 4.28125 -3.203125 C 4.28125 -2.65625 4 -1.546875 3.734375 -1.0625 C 3.40625 -0.421875 2.921875 -0.109375 2.546875 -0.109375 Z M 2.546875 -0.109375 "
               style="stroke:none;" />
          </symbol>
          <symbol
             id="textext-122b64aa-7"
             overflow="visible">
            <path
               id="path3545"
               d="M 3.65625 -3.984375 L 4.515625 -3.984375 C 4.71875 -3.984375 4.8125 -3.984375 4.8125 -4.1875 C 4.8125 -4.296875 4.71875 -4.296875 4.546875 -4.296875 L 3.71875 -4.296875 L 3.921875 -5.4375 C 3.96875 -5.640625 4.109375 -6.34375 4.171875 -6.46875 C 4.25 -6.65625 4.421875 -6.8125 4.640625 -6.8125 C 4.671875 -6.8125 4.9375 -6.8125 5.125 -6.625 C 4.6875 -6.59375 4.578125 -6.234375 4.578125 -6.09375 C 4.578125 -5.859375 4.765625 -5.734375 4.953125 -5.734375 C 5.21875 -5.734375 5.5 -5.96875 5.5 -6.34375 C 5.5 -6.796875 5.046875 -7.03125 4.640625 -7.03125 C 4.296875 -7.03125 3.671875 -6.84375 3.375 -5.859375 C 3.3125 -5.65625 3.28125 -5.546875 3.046875 -4.296875 L 2.359375 -4.296875 C 2.15625 -4.296875 2.046875 -4.296875 2.046875 -4.109375 C 2.046875 -3.984375 2.140625 -3.984375 2.328125 -3.984375 L 2.984375 -3.984375 L 2.25 -0.046875 C 2.0625 0.921875 1.890625 1.828125 1.375 1.828125 C 1.328125 1.828125 1.09375 1.828125 0.890625 1.640625 C 1.359375 1.609375 1.453125 1.25 1.453125 1.109375 C 1.453125 0.875 1.265625 0.75 1.078125 0.75 C 0.8125 0.75 0.53125 0.984375 0.53125 1.359375 C 0.53125 1.796875 0.96875 2.046875 1.375 2.046875 C 1.921875 2.046875 2.328125 1.453125 2.5 1.078125 C 2.828125 0.453125 3.046875 -0.75 3.0625 -0.828125 Z M 3.65625 -3.984375 "
               style="stroke:none;" />
          </symbol>
          <symbol
             id="textext-122b64aa-8"
             overflow="visible">
            <path
               id="path3548"
               d="M 0.875 -0.59375 C 0.84375 -0.4375 0.78125 -0.203125 0.78125 -0.15625 C 0.78125 0.015625 0.921875 0.109375 1.078125 0.109375 C 1.203125 0.109375 1.375 0.03125 1.453125 -0.171875 C 1.453125 -0.1875 1.578125 -0.65625 1.640625 -0.90625 L 1.859375 -1.796875 C 1.90625 -2.03125 1.96875 -2.25 2.03125 -2.46875 C 2.0625 -2.640625 2.140625 -2.9375 2.15625 -2.96875 C 2.296875 -3.28125 2.828125 -4.1875 3.78125 -4.1875 C 4.234375 -4.1875 4.3125 -3.8125 4.3125 -3.484375 C 4.3125 -2.875 3.828125 -1.59375 3.671875 -1.171875 C 3.578125 -0.9375 3.5625 -0.8125 3.5625 -0.703125 C 3.5625 -0.234375 3.921875 0.109375 4.390625 0.109375 C 5.328125 0.109375 5.6875 -1.34375 5.6875 -1.421875 C 5.6875 -1.53125 5.609375 -1.53125 5.578125 -1.53125 C 5.46875 -1.53125 5.46875 -1.5 5.421875 -1.34375 C 5.21875 -0.671875 4.890625 -0.109375 4.40625 -0.109375 C 4.234375 -0.109375 4.171875 -0.203125 4.171875 -0.4375 C 4.171875 -0.6875 4.25 -0.921875 4.34375 -1.140625 C 4.53125 -1.671875 4.953125 -2.765625 4.953125 -3.34375 C 4.953125 -4 4.53125 -4.40625 3.8125 -4.40625 C 2.90625 -4.40625 2.421875 -3.765625 2.25 -3.53125 C 2.203125 -4.09375 1.796875 -4.40625 1.328125 -4.40625 C 0.875 -4.40625 0.6875 -4.015625 0.59375 -3.84375 C 0.421875 -3.5 0.296875 -2.90625 0.296875 -2.875 C 0.296875 -2.765625 0.390625 -2.765625 0.40625 -2.765625 C 0.515625 -2.765625 0.515625 -2.78125 0.578125 -3 C 0.75 -3.703125 0.953125 -4.1875 1.3125 -4.1875 C 1.5 -4.1875 1.609375 -4.0625 1.609375 -3.734375 C 1.609375 -3.515625 1.578125 -3.40625 1.453125 -2.890625 Z M 0.875 -0.59375 "
               style="stroke:none;" />
          </symbol>
          <symbol
             id="textext-122b64aa-9"
             overflow="visible">
            <path
               id="path3551"
               d="M 1.328125 -0.828125 C 1.859375 -1.40625 2.15625 -1.65625 2.515625 -1.96875 C 2.515625 -1.96875 3.125 -2.5 3.484375 -2.859375 C 4.4375 -3.78125 4.65625 -4.265625 4.65625 -4.3125 C 4.65625 -4.40625 4.5625 -4.40625 4.546875 -4.40625 C 4.46875 -4.40625 4.453125 -4.390625 4.390625 -4.296875 C 4.09375 -3.8125 3.890625 -3.65625 3.65625 -3.65625 C 3.40625 -3.65625 3.296875 -3.8125 3.140625 -3.984375 C 2.953125 -4.203125 2.78125 -4.40625 2.453125 -4.40625 C 1.703125 -4.40625 1.25 -3.484375 1.25 -3.265625 C 1.25 -3.21875 1.28125 -3.15625 1.359375 -3.15625 C 1.453125 -3.15625 1.46875 -3.203125 1.5 -3.265625 C 1.6875 -3.734375 2.265625 -3.734375 2.34375 -3.734375 C 2.546875 -3.734375 2.734375 -3.671875 2.96875 -3.59375 C 3.375 -3.4375 3.484375 -3.4375 3.734375 -3.4375 C 3.375 -3.015625 2.546875 -2.296875 2.359375 -2.140625 L 1.453125 -1.296875 C 0.78125 -0.625 0.421875 -0.0625 0.421875 0.015625 C 0.421875 0.109375 0.53125 0.109375 0.546875 0.109375 C 0.625 0.109375 0.640625 0.09375 0.703125 -0.015625 C 0.9375 -0.375 1.234375 -0.640625 1.5625 -0.640625 C 1.78125 -0.640625 1.890625 -0.546875 2.140625 -0.265625 C 2.296875 -0.046875 2.484375 0.109375 2.765625 0.109375 C 3.765625 0.109375 4.34375 -1.15625 4.34375 -1.421875 C 4.34375 -1.46875 4.296875 -1.53125 4.21875 -1.53125 C 4.125 -1.53125 4.109375 -1.46875 4.078125 -1.390625 C 3.84375 -0.75 3.203125 -0.5625 2.875 -0.5625 C 2.6875 -0.5625 2.5 -0.625 2.296875 -0.6875 C 1.953125 -0.8125 1.796875 -0.859375 1.59375 -0.859375 C 1.578125 -0.859375 1.421875 -0.859375 1.328125 -0.828125 Z M 1.328125 -0.828125 "
               style="stroke:none;" />
          </symbol>
          <symbol
             id="textext-122b64aa-10"
             overflow="visible">
            <path
               id="path3554"
               d="M 5.734375 -5.671875 C 5.734375 -6.421875 5.1875 -7.03125 4.375 -7.03125 C 3.796875 -7.03125 3.515625 -6.875 3.171875 -6.625 C 2.625 -6.21875 2.078125 -5.25 1.890625 -4.5 L 0.296875 1.828125 C 0.296875 1.875 0.34375 1.9375 0.421875 1.9375 C 0.5 1.9375 0.53125 1.90625 0.53125 1.890625 L 1.234375 -0.875 C 1.421875 -0.265625 1.859375 0.09375 2.59375 0.09375 C 3.3125 0.09375 4.0625 -0.25 4.515625 -0.6875 C 5 -1.140625 5.3125 -1.78125 5.3125 -2.515625 C 5.3125 -3.234375 4.9375 -3.765625 4.578125 -4 C 5.15625 -4.34375 5.734375 -4.953125 5.734375 -5.671875 Z M 3.9375 -4.015625 C 3.8125 -3.96875 3.703125 -3.953125 3.453125 -3.953125 C 3.3125 -3.953125 3.125 -3.9375 3.015625 -3.984375 C 3.046875 -4.09375 3.40625 -4.0625 3.515625 -4.0625 C 3.71875 -4.0625 3.8125 -4.0625 3.9375 -4.015625 Z M 5.171875 -5.90625 C 5.171875 -5.203125 4.796875 -4.484375 4.28125 -4.171875 C 4 -4.28125 3.8125 -4.296875 3.515625 -4.296875 C 3.296875 -4.296875 2.734375 -4.3125 2.734375 -3.984375 C 2.734375 -3.703125 3.25 -3.734375 3.421875 -3.734375 C 3.796875 -3.734375 3.953125 -3.734375 4.25 -3.859375 C 4.625 -3.5 4.671875 -3.1875 4.6875 -2.734375 C 4.703125 -2.15625 4.46875 -1.40625 4.1875 -1.015625 C 3.796875 -0.484375 3.125 -0.125 2.5625 -0.125 C 1.796875 -0.125 1.421875 -0.703125 1.421875 -1.40625 C 1.421875 -1.5 1.421875 -1.65625 1.46875 -1.84375 L 2.109375 -4.359375 C 2.328125 -5.21875 3.046875 -6.8125 4.25 -6.8125 C 4.828125 -6.8125 5.171875 -6.5 5.171875 -5.90625 Z M 5.171875 -5.90625 "
               style="stroke:none;" />
          </symbol>
          <symbol
             id="textext-122b64aa-11"
             overflow="visible">
            <path
               id="path3557"
               d="M 0.84375 -0.4375 C 0.828125 -0.34375 0.78125 -0.171875 0.78125 -0.15625 C 0.78125 0 0.90625 0.0625 1.015625 0.0625 C 1.140625 0.0625 1.25 -0.015625 1.296875 -0.078125 C 1.328125 -0.140625 1.375 -0.375 1.421875 -0.515625 C 1.453125 -0.640625 1.53125 -0.96875 1.5625 -1.140625 C 1.609375 -1.296875 1.65625 -1.453125 1.6875 -1.609375 C 1.765625 -1.890625 1.78125 -1.953125 1.984375 -2.234375 C 2.171875 -2.515625 2.5 -2.875 3.03125 -2.875 C 3.421875 -2.875 3.4375 -2.515625 3.4375 -2.390625 C 3.4375 -1.96875 3.140625 -1.203125 3.03125 -0.90625 C 2.953125 -0.703125 2.921875 -0.640625 2.921875 -0.53125 C 2.921875 -0.15625 3.21875 0.0625 3.578125 0.0625 C 4.28125 0.0625 4.578125 -0.890625 4.578125 -1 C 4.578125 -1.09375 4.5 -1.09375 4.46875 -1.09375 C 4.375 -1.09375 4.375 -1.046875 4.34375 -0.96875 C 4.1875 -0.40625 3.875 -0.125 3.609375 -0.125 C 3.453125 -0.125 3.421875 -0.21875 3.421875 -0.375 C 3.421875 -0.53125 3.46875 -0.625 3.59375 -0.9375 C 3.671875 -1.15625 3.953125 -1.890625 3.953125 -2.28125 C 3.953125 -2.953125 3.421875 -3.078125 3.046875 -3.078125 C 2.46875 -3.078125 2.078125 -2.71875 1.875 -2.4375 C 1.828125 -2.921875 1.421875 -3.078125 1.125 -3.078125 C 0.828125 -3.078125 0.671875 -2.859375 0.578125 -2.703125 C 0.421875 -2.4375 0.328125 -2.046875 0.328125 -2 C 0.328125 -1.921875 0.421875 -1.921875 0.453125 -1.921875 C 0.546875 -1.921875 0.546875 -1.9375 0.59375 -2.125 C 0.703125 -2.53125 0.84375 -2.875 1.109375 -2.875 C 1.296875 -2.875 1.34375 -2.71875 1.34375 -2.53125 C 1.34375 -2.40625 1.28125 -2.140625 1.21875 -1.953125 C 1.171875 -1.765625 1.109375 -1.484375 1.078125 -1.328125 Z M 0.84375 -0.4375 "
               style="stroke:none;" />
          </symbol>
          <symbol
             id="textext-122b64aa-12"
             overflow="visible">
            <path
               id="path3560"
               d="M 3.21875 -1.578125 L 5.359375 -1.578125 C 5.453125 -1.578125 5.609375 -1.578125 5.609375 -1.734375 C 5.609375 -1.921875 5.453125 -1.921875 5.359375 -1.921875 L 3.21875 -1.921875 L 3.21875 -4.0625 C 3.21875 -4.140625 3.21875 -4.3125 3.0625 -4.3125 C 2.890625 -4.3125 2.890625 -4.15625 2.890625 -4.0625 L 2.890625 -1.921875 L 0.75 -1.921875 C 0.65625 -1.921875 0.484375 -1.921875 0.484375 -1.75 C 0.484375 -1.578125 0.640625 -1.578125 0.75 -1.578125 L 2.890625 -1.578125 L 2.890625 0.5625 C 2.890625 0.65625 2.890625 0.828125 3.046875 0.828125 C 3.21875 0.828125 3.21875 0.65625 3.21875 0.5625 Z M 3.21875 -1.578125 "
               style="stroke:none;" />
          </symbol>
          <symbol
             id="textext-122b64aa-13"
             overflow="visible">
            <path
               id="path3563"
               d="M 2.328125 -4.4375 C 2.328125 -4.625 2.328125 -4.625 2.125 -4.625 C 1.671875 -4.1875 1.046875 -4.1875 0.765625 -4.1875 L 0.765625 -3.9375 C 0.921875 -3.9375 1.390625 -3.9375 1.765625 -4.125 L 1.765625 -0.578125 C 1.765625 -0.34375 1.765625 -0.25 1.078125 -0.25 L 0.8125 -0.25 L 0.8125 0 C 0.9375 0 1.796875 -0.03125 2.046875 -0.03125 C 2.265625 -0.03125 3.140625 0 3.296875 0 L 3.296875 -0.25 L 3.03125 -0.25 C 2.328125 -0.25 2.328125 -0.34375 2.328125 -0.578125 Z M 2.328125 -4.4375 "
               style="stroke:none;" />
          </symbol>
          <symbol
             id="textext-122b64aa-14"
             overflow="visible">
            <path
               id="path3566"
               d="M 6.84375 -3.265625 C 7 -3.265625 7.1875 -3.265625 7.1875 -3.453125 C 7.1875 -3.65625 7 -3.65625 6.859375 -3.65625 L 0.890625 -3.65625 C 0.75 -3.65625 0.5625 -3.65625 0.5625 -3.453125 C 0.5625 -3.265625 0.75 -3.265625 0.890625 -3.265625 Z M 6.859375 -1.328125 C 7 -1.328125 7.1875 -1.328125 7.1875 -1.53125 C 7.1875 -1.71875 7 -1.71875 6.84375 -1.71875 L 0.890625 -1.71875 C 0.75 -1.71875 0.5625 -1.71875 0.5625 -1.53125 C 0.5625 -1.328125 0.75 -1.328125 0.890625 -1.328125 Z M 6.859375 -1.328125 "
               style="stroke:none;" />
          </symbol>
          <symbol
             id="textext-122b64aa-15"
             overflow="visible">
            <path
               id="path3569"
               d="M 4.078125 -2.296875 L 6.859375 -2.296875 C 7 -2.296875 7.1875 -2.296875 7.1875 -2.5 C 7.1875 -2.6875 7 -2.6875 6.859375 -2.6875 L 4.078125 -2.6875 L 4.078125 -5.484375 C 4.078125 -5.625 4.078125 -5.8125 3.875 -5.8125 C 3.671875 -5.8125 3.671875 -5.625 3.671875 -5.484375 L 3.671875 -2.6875 L 0.890625 -2.6875 C 0.75 -2.6875 0.5625 -2.6875 0.5625 -2.5 C 0.5625 -2.296875 0.75 -2.296875 0.890625 -2.296875 L 3.671875 -2.296875 L 3.671875 0.5 C 3.671875 0.640625 3.671875 0.828125 3.875 0.828125 C 4.078125 0.828125 4.078125 0.640625 4.078125 0.5 Z M 4.078125 -2.296875 "
               style="stroke:none;" />
          </symbol>
          <symbol
             id="textext-122b64aa-16"
             overflow="visible">
            <path
               id="path3572"
               d="M 2.546875 2.5 L 2.546875 2.09375 L 1.578125 2.09375 L 1.578125 -7.078125 L 2.546875 -7.078125 L 2.546875 -7.484375 L 1.171875 -7.484375 L 1.171875 2.5 Z M 2.546875 2.5 "
               style="stroke:none;" />
          </symbol>
          <symbol
             id="textext-122b64aa-17"
             overflow="visible">
            <path
               id="path3575"
               d="M 3.296875 2.390625 C 3.296875 2.359375 3.296875 2.34375 3.125 2.171875 C 1.890625 0.921875 1.5625 -0.96875 1.5625 -2.5 C 1.5625 -4.234375 1.9375 -5.96875 3.171875 -7.203125 C 3.296875 -7.328125 3.296875 -7.34375 3.296875 -7.375 C 3.296875 -7.453125 3.265625 -7.484375 3.203125 -7.484375 C 3.09375 -7.484375 2.203125 -6.796875 1.609375 -5.53125 C 1.109375 -4.4375 0.984375 -3.328125 0.984375 -2.5 C 0.984375 -1.71875 1.09375 -0.515625 1.640625 0.625 C 2.25 1.84375 3.09375 2.5 3.203125 2.5 C 3.265625 2.5 3.296875 2.46875 3.296875 2.390625 Z M 3.296875 2.390625 "
               style="stroke:none;" />
          </symbol>
          <symbol
             id="textext-122b64aa-18"
             overflow="visible">
            <path
               id="path3578"
               d="M 2.875 -2.5 C 2.875 -3.265625 2.765625 -4.46875 2.21875 -5.609375 C 1.625 -6.828125 0.765625 -7.484375 0.671875 -7.484375 C 0.609375 -7.484375 0.5625 -7.4375 0.5625 -7.375 C 0.5625 -7.34375 0.5625 -7.328125 0.75 -7.140625 C 1.734375 -6.15625 2.296875 -4.578125 2.296875 -2.5 C 2.296875 -0.78125 1.9375 0.96875 0.703125 2.21875 C 0.5625 2.34375 0.5625 2.359375 0.5625 2.390625 C 0.5625 2.453125 0.609375 2.5 0.671875 2.5 C 0.765625 2.5 1.671875 1.8125 2.25 0.546875 C 2.765625 -0.546875 2.875 -1.65625 2.875 -2.5 Z M 2.875 -2.5 "
               style="stroke:none;" />
          </symbol>
          <symbol
             id="textext-122b64aa-19"
             overflow="visible">
            <path
               id="path3581"
               d="M 1.578125 -7.484375 L 0.21875 -7.484375 L 0.21875 -7.078125 L 1.1875 -7.078125 L 1.1875 2.09375 L 0.21875 2.09375 L 0.21875 2.5 L 1.578125 2.5 Z M 1.578125 -7.484375 "
               style="stroke:none;" />
          </symbol>
          <symbol
             id="textext-122b64aa-20"
             overflow="visible">
            <path
               id="path3584"
               d="M 2.828125 -6.15625 C 2.828125 -6.546875 3.078125 -7.1875 4.171875 -7.25 C 4.21875 -7.265625 4.25 -7.3125 4.25 -7.359375 C 4.25 -7.484375 4.171875 -7.484375 4.0625 -7.484375 C 3.078125 -7.484375 2.15625 -6.96875 2.15625 -6.234375 L 2.15625 -3.953125 C 2.15625 -3.5625 2.15625 -3.25 1.75 -2.921875 C 1.40625 -2.625 1.03125 -2.609375 0.8125 -2.609375 C 0.75 -2.59375 0.71875 -2.546875 0.71875 -2.5 C 0.71875 -2.390625 0.78125 -2.390625 0.875 -2.375 C 1.53125 -2.34375 2.015625 -1.984375 2.125 -1.5 C 2.15625 -1.390625 2.15625 -1.359375 2.15625 -1 L 2.15625 0.96875 C 2.15625 1.390625 2.15625 1.703125 2.625 2.078125 C 3.015625 2.375 3.671875 2.5 4.0625 2.5 C 4.171875 2.5 4.25 2.5 4.25 2.375 C 4.25 2.28125 4.203125 2.28125 4.09375 2.265625 C 3.46875 2.234375 2.984375 1.90625 2.84375 1.40625 C 2.828125 1.3125 2.828125 1.296875 2.828125 0.9375 L 2.828125 -1.15625 C 2.828125 -1.609375 2.734375 -1.78125 2.421875 -2.109375 C 2.21875 -2.3125 1.921875 -2.40625 1.640625 -2.5 C 2.46875 -2.71875 2.828125 -3.1875 2.828125 -3.765625 Z M 2.828125 -6.15625 "
               style="stroke:none;" />
          </symbol>
          <symbol
             id="textext-122b64aa-21"
             overflow="visible">
            <path
               id="path3587"
               d="M 6.5625 -2.296875 C 6.734375 -2.296875 6.921875 -2.296875 6.921875 -2.5 C 6.921875 -2.6875 6.734375 -2.6875 6.5625 -2.6875 L 1.171875 -2.6875 C 1 -2.6875 0.828125 -2.6875 0.828125 -2.5 C 0.828125 -2.296875 1 -2.296875 1.171875 -2.296875 Z M 6.5625 -2.296875 "
               style="stroke:none;" />
          </symbol>
          <symbol
             id="textext-122b64aa-22"
             overflow="visible">
            <path
               id="path3590"
               d="M 2.15625 1.171875 C 2.15625 1.5625 1.890625 2.203125 0.8125 2.265625 C 0.75 2.28125 0.71875 2.328125 0.71875 2.375 C 0.71875 2.5 0.828125 2.5 0.921875 2.5 C 1.890625 2.5 2.8125 2 2.828125 1.25 L 2.828125 -1.03125 C 2.828125 -1.421875 2.828125 -1.734375 3.21875 -2.0625 C 3.5625 -2.359375 3.953125 -2.375 4.171875 -2.375 C 4.21875 -2.390625 4.25 -2.4375 4.25 -2.5 C 4.25 -2.59375 4.203125 -2.59375 4.09375 -2.609375 C 3.4375 -2.640625 2.953125 -3 2.84375 -3.484375 C 2.828125 -3.59375 2.828125 -3.625 2.828125 -3.984375 L 2.828125 -5.953125 C 2.828125 -6.375 2.828125 -6.6875 2.34375 -7.0625 C 1.9375 -7.375 1.25 -7.484375 0.921875 -7.484375 C 0.828125 -7.484375 0.71875 -7.484375 0.71875 -7.359375 C 0.71875 -7.265625 0.78125 -7.265625 0.875 -7.25 C 1.5 -7.21875 2 -6.890625 2.125 -6.390625 C 2.15625 -6.296875 2.15625 -6.28125 2.15625 -5.921875 L 2.15625 -3.828125 C 2.15625 -3.375 2.234375 -3.203125 2.546875 -2.875 C 2.765625 -2.671875 3.046875 -2.578125 3.328125 -2.5 C 2.515625 -2.265625 2.15625 -1.796875 2.15625 -1.21875 Z M 2.15625 1.171875 "
               style="stroke:none;" />
          </symbol>
          <symbol
             id="textext-122b64aa-23"
             overflow="visible">
            <path
               id="path3593"
               d="M 2.015625 -3.296875 C 2.078125 -3.40625 2.078125 -3.46875 2.078125 -3.515625 C 2.078125 -3.734375 1.890625 -3.890625 1.671875 -3.890625 C 1.40625 -3.890625 1.328125 -3.671875 1.296875 -3.5625 L 0.375 -0.546875 C 0.359375 -0.53125 0.328125 -0.453125 0.328125 -0.4375 C 0.328125 -0.359375 0.546875 -0.28125 0.609375 -0.28125 C 0.65625 -0.28125 0.65625 -0.296875 0.703125 -0.40625 Z M 2.015625 -3.296875 "
               style="stroke:none;" />
          </symbol>
        </g>
      </defs>
      <g
         id="textext-122b64aa-24">
        <g
           id="g3596"
           style="fill:rgb(0%,0%,0%);fill-opacity:1;">
          <use
             id="use3598"
             y="134.765"
             x="282.491"
             xlink:href="#textext-122b64aa-0" />
        </g>
        <g
           id="g3600"
           style="fill:rgb(0%,0%,0%);fill-opacity:1;">
          <use
             id="use3602"
             y="136.259"
             x="288.185"
             xlink:href="#textext-122b64aa-11" />
        </g>
        <g
           id="g3604"
           style="fill:rgb(0%,0%,0%);fill-opacity:1;">
          <use
             id="use3606"
             y="136.259"
             x="293.11"
             xlink:href="#textext-122b64aa-12" />
          <use
             id="use3608"
             y="136.259"
             x="299.226023"
             xlink:href="#textext-122b64aa-13" />
        </g>
        <g
           id="g3610"
           style="fill:rgb(0%,0%,0%);fill-opacity:1;">
          <use
             id="use3612"
             y="134.765"
             x="313.658"
             xlink:href="#textext-122b64aa-14" />
        </g>
        <g
           id="g3614"
           style="fill:rgb(0%,0%,0%);fill-opacity:1;">
          <use
             id="use3616"
             y="134.765"
             x="331.369"
             xlink:href="#textext-122b64aa-0" />
        </g>
        <g
           id="g3618"
           style="fill:rgb(0%,0%,0%);fill-opacity:1;">
          <use
             id="use3620"
             y="136.259"
             x="337.063"
             xlink:href="#textext-122b64aa-11" />
        </g>
        <g
           id="g3622"
           style="fill:rgb(0%,0%,0%);fill-opacity:1;">
          <use
             id="use3624"
             y="134.765"
             x="344.7"
             xlink:href="#textext-122b64aa-15" />
        </g>
        <g
           id="g3626"
           style="fill:rgb(0%,0%,0%);fill-opacity:1;">
          <use
             id="use3628"
             y="134.765"
             x="354.663"
             xlink:href="#textext-122b64aa-20" />
        </g>
        <g
           id="g3630"
           style="fill:rgb(0%,0%,0%);fill-opacity:1;">
          <use
             id="use3632"
             y="134.765"
             x="359.644"
             xlink:href="#textext-122b64aa-1" />
          <use
             id="use3634"
             y="134.765"
             x="364.829533"
             xlink:href="#textext-122b64aa-2" />
        </g>
        <g
           id="g3636"
           style="fill:rgb(0%,0%,0%);fill-opacity:1;">
          <use
             id="use3638"
             y="134.765"
             x="370.638725"
             xlink:href="#textext-122b64aa-3" />
        </g>
        <g
           id="g3640"
           style="fill:rgb(0%,0%,0%);fill-opacity:1;">
          <use
             id="use3642"
             y="134.765"
             x="377.836"
             xlink:href="#textext-122b64aa-16" />
        </g>
        <g
           id="g3644"
           style="fill:rgb(0%,0%,0%);fill-opacity:1;">
          <use
             id="use3646"
             y="134.765"
             x="380.604"
             xlink:href="#textext-122b64aa-4" />
        </g>
        <g
           id="g3648"
           style="fill:rgb(0%,0%,0%);fill-opacity:1;">
          <use
             id="use3650"
             y="130.651"
             x="386.654"
             xlink:href="#textext-122b64aa-23" />
        </g>
        <g
           id="g3652"
           style="fill:rgb(0%,0%,0%);fill-opacity:1;">
          <use
             id="use3654"
             y="134.765"
             x="391.663"
             xlink:href="#textext-122b64aa-3" />
        </g>
        <g
           id="g3656"
           style="fill:rgb(0%,0%,0%);fill-opacity:1;">
          <use
             id="use3658"
             y="134.765"
             x="398.858"
             xlink:href="#textext-122b64aa-17" />
        </g>
        <g
           id="g3660"
           style="fill:rgb(0%,0%,0%);fill-opacity:1;">
          <use
             id="use3662"
             y="134.765"
             x="402.732"
             xlink:href="#textext-122b64aa-5" />
        </g>
        <g
           id="g3664"
           style="fill:rgb(0%,0%,0%);fill-opacity:1;">
          <use
             id="use3666"
             y="136.259"
             x="407.617"
             xlink:href="#textext-122b64aa-11" />
        </g>
        <g
           id="g3668"
           style="fill:rgb(0%,0%,0%);fill-opacity:1;">
          <use
             id="use3670"
             y="134.765"
             x="415.254"
             xlink:href="#textext-122b64aa-21" />
        </g>
        <g
           id="g3672"
           style="fill:rgb(0%,0%,0%);fill-opacity:1;">
          <use
             id="use3674"
             y="134.765"
             x="425.216"
             xlink:href="#textext-122b64aa-0" />
        </g>
        <g
           id="g3676"
           style="fill:rgb(0%,0%,0%);fill-opacity:1;">
          <use
             id="use3678"
             y="136.259"
             x="430.91"
             xlink:href="#textext-122b64aa-11" />
        </g>
        <g
           id="g3680"
           style="fill:rgb(0%,0%,0%);fill-opacity:1;">
          <use
             id="use3682"
             y="134.765"
             x="436.333"
             xlink:href="#textext-122b64aa-18" />
          <use
             id="use3684"
             y="134.765"
             x="440.207455"
             xlink:href="#textext-122b64aa-19" />
        </g>
        <g
           id="g3686"
           style="fill:rgb(0%,0%,0%);fill-opacity:1;">
          <use
             id="use3688"
             y="134.765"
             x="442.975"
             xlink:href="#textext-122b64aa-22" />
        </g>
        <g
           id="g3690"
           style="fill:rgb(0%,0%,0%);fill-opacity:1;">
          <use
             id="use3692"
             y="149.709"
             x="283.301"
             xlink:href="#textext-122b64aa-5" />
        </g>
        <g
           id="g3694"
           style="fill:rgb(0%,0%,0%);fill-opacity:1;">
          <use
             id="use3696"
             y="151.203"
             x="288.185"
             xlink:href="#textext-122b64aa-11" />
        </g>
        <g
           id="g3698"
           style="fill:rgb(0%,0%,0%);fill-opacity:1;">
          <use
             id="use3700"
             y="151.203"
             x="293.11"
             xlink:href="#textext-122b64aa-12" />
          <use
             id="use3702"
             y="151.203"
             x="299.226023"
             xlink:href="#textext-122b64aa-13" />
        </g>
        <g
           id="g3704"
           style="fill:rgb(0%,0%,0%);fill-opacity:1;">
          <use
             id="use3706"
             y="149.709"
             x="313.658"
             xlink:href="#textext-122b64aa-14" />
        </g>
        <g
           id="g3708"
           style="fill:rgb(0%,0%,0%);fill-opacity:1;">
          <use
             id="use3710"
             y="149.709"
             x="331.369"
             xlink:href="#textext-122b64aa-5" />
        </g>
        <g
           id="g3712"
           style="fill:rgb(0%,0%,0%);fill-opacity:1;">
          <use
             id="use3714"
             y="151.203"
             x="336.254"
             xlink:href="#textext-122b64aa-11" />
        </g>
        <g
           id="g3716"
           style="fill:rgb(0%,0%,0%);fill-opacity:1;">
          <use
             id="use3718"
             y="149.709"
             x="343.891"
             xlink:href="#textext-122b64aa-15" />
        </g>
        <g
           id="g3720"
           style="fill:rgb(0%,0%,0%);fill-opacity:1;">
          <use
             id="use3722"
             y="149.709"
             x="353.851607"
             xlink:href="#textext-122b64aa-17" />
        </g>
        <g
           id="g3724"
           style="fill:rgb(0%,0%,0%);fill-opacity:1;">
          <use
             id="use3726"
             y="149.709"
             x="357.728"
             xlink:href="#textext-122b64aa-1" />
          <use
             id="use3728"
             y="149.709"
             x="362.913533"
             xlink:href="#textext-122b64aa-2" />
        </g>
        <g
           id="g3730"
           style="fill:rgb(0%,0%,0%);fill-opacity:1;">
          <use
             id="use3732"
             y="149.709"
             x="368.722725"
             xlink:href="#textext-122b64aa-3" />
        </g>
        <g
           id="g3734"
           style="fill:rgb(0%,0%,0%);fill-opacity:1;">
          <use
             id="use3736"
             y="149.709"
             x="375.92"
             xlink:href="#textext-122b64aa-20" />
        </g>
        <g
           id="g3738"
           style="fill:rgb(0%,0%,0%);fill-opacity:1;">
          <use
             id="use3740"
             y="149.709"
             x="380.901"
             xlink:href="#textext-122b64aa-16" />
        </g>
        <g
           id="g3742"
           style="fill:rgb(0%,0%,0%);fill-opacity:1;">
          <use
             id="use3744"
             y="149.709"
             x="383.669"
             xlink:href="#textext-122b64aa-0" />
        </g>
        <g
           id="g3746"
           style="fill:rgb(0%,0%,0%);fill-opacity:1;">
          <use
             id="use3748"
             y="151.203"
             x="389.363"
             xlink:href="#textext-122b64aa-11" />
        </g>
        <g
           id="g3750"
           style="fill:rgb(0%,0%,0%);fill-opacity:1;">
          <use
             id="use3752"
             y="149.709"
             x="396.999"
             xlink:href="#textext-122b64aa-3" />
        </g>
        <g
           id="g3754"
           style="fill:rgb(0%,0%,0%);fill-opacity:1;">
          <use
             id="use3756"
             y="149.709"
             x="404.195"
             xlink:href="#textext-122b64aa-17" />
        </g>
        <g
           id="g3758"
           style="fill:rgb(0%,0%,0%);fill-opacity:1;">
          <use
             id="use3760"
             y="149.709"
             x="408.069"
             xlink:href="#textext-122b64aa-6" />
        </g>
        <g
           id="g3762"
           style="fill:rgb(0%,0%,0%);fill-opacity:1;">
          <use
             id="use3764"
             y="145.595"
             x="413.22"
             xlink:href="#textext-122b64aa-23" />
        </g>
        <g
           id="g3766"
           style="fill:rgb(0%,0%,0%);fill-opacity:1;">
          <use
             id="use3768"
             y="149.709"
             x="418.229"
             xlink:href="#textext-122b64aa-21" />
        </g>
        <g
           id="g3770"
           style="fill:rgb(0%,0%,0%);fill-opacity:1;">
          <use
             id="use3772"
             y="149.709"
             x="428.191"
             xlink:href="#textext-122b64aa-7" />
        </g>
        <g
           id="g3774"
           style="fill:rgb(0%,0%,0%);fill-opacity:1;">
          <use
             id="use3776"
             y="149.709"
             x="434.141"
             xlink:href="#textext-122b64aa-17" />
        </g>
        <g
           id="g3778"
           style="fill:rgb(0%,0%,0%);fill-opacity:1;">
          <use
             id="use3780"
             y="149.709"
             x="438.016"
             xlink:href="#textext-122b64aa-8" />
        </g>
        <g
           id="g3782"
           style="fill:rgb(0%,0%,0%);fill-opacity:1;">
          <use
             id="use3784"
             y="149.709"
             x="443.996"
             xlink:href="#textext-122b64aa-18" />
        </g>
        <g
           id="g3786"
           style="fill:rgb(0%,0%,0%);fill-opacity:1;">
          <use
             id="use3788"
             y="149.709"
             x="450.084"
             xlink:href="#textext-122b64aa-21" />
        </g>
        <g
           id="g3790"
           style="fill:rgb(0%,0%,0%);fill-opacity:1;">
          <use
             id="use3792"
             y="149.709"
             x="460.047"
             xlink:href="#textext-122b64aa-9" />
        </g>
        <g
           id="g3794"
           style="fill:rgb(0%,0%,0%);fill-opacity:1;">
          <use
             id="use3796"
             y="151.203"
             x="464.68"
             xlink:href="#textext-122b64aa-11" />
        </g>
        <g
           id="g3798"
           style="fill:rgb(0%,0%,0%);fill-opacity:1;">
          <use
             id="use3800"
             y="149.709"
             x="470.103"
             xlink:href="#textext-122b64aa-18" />
          <use
             id="use3802"
             y="149.709"
             x="473.977455"
             xlink:href="#textext-122b64aa-19" />
        </g>
        <g
           id="g3804"
           style="fill:rgb(0%,0%,0%);fill-opacity:1;">
          <use
             id="use3806"
             y="149.709"
             x="478.958"
             xlink:href="#textext-122b64aa-21" />
        </g>
        <g
           id="g3808"
           style="fill:rgb(0%,0%,0%);fill-opacity:1;">
          <use
             id="use3810"
             y="149.709"
             x="488.921"
             xlink:href="#textext-122b64aa-5" />
        </g>
        <g
           id="g3812"
           style="fill:rgb(0%,0%,0%);fill-opacity:1;">
          <use
             id="use3814"
             y="151.203"
             x="493.805"
             xlink:href="#textext-122b64aa-11" />
        </g>
        <g
           id="g3816"
           style="fill:rgb(0%,0%,0%);fill-opacity:1;">
          <use
             id="use3818"
             y="149.709"
             x="499.228"
             xlink:href="#textext-122b64aa-22" />
        </g>
        <g
           id="g3820"
           style="fill:rgb(0%,0%,0%);fill-opacity:1;">
          <use
             id="use3822"
             y="149.709"
             x="504.21"
             xlink:href="#textext-122b64aa-18" />
        </g>
        <g
           id="g3824"
           style="fill:rgb(0%,0%,0%);fill-opacity:1;">
          <use
             id="use3826"
             y="164.653"
             x="283.552"
             xlink:href="#textext-122b64aa-9" />
        </g>
        <g
           id="g3828"
           style="fill:rgb(0%,0%,0%);fill-opacity:1;">
          <use
             id="use3830"
             y="166.147"
             x="288.185"
             xlink:href="#textext-122b64aa-11" />
        </g>
        <g
           id="g3832"
           style="fill:rgb(0%,0%,0%);fill-opacity:1;">
          <use
             id="use3834"
             y="166.147"
             x="293.11"
             xlink:href="#textext-122b64aa-12" />
          <use
             id="use3836"
             y="166.147"
             x="299.226023"
             xlink:href="#textext-122b64aa-13" />
        </g>
        <g
           id="g3838"
           style="fill:rgb(0%,0%,0%);fill-opacity:1;">
          <use
             id="use3840"
             y="164.653"
             x="313.658"
             xlink:href="#textext-122b64aa-14" />
        </g>
        <g
           id="g3842"
           style="fill:rgb(0%,0%,0%);fill-opacity:1;">
          <use
             id="use3844"
             y="164.653"
             x="331.369"
             xlink:href="#textext-122b64aa-9" />
        </g>
        <g
           id="g3846"
           style="fill:rgb(0%,0%,0%);fill-opacity:1;">
          <use
             id="use3848"
             y="166.147"
             x="336.003"
             xlink:href="#textext-122b64aa-11" />
        </g>
        <g
           id="g3850"
           style="fill:rgb(0%,0%,0%);fill-opacity:1;">
          <use
             id="use3852"
             y="164.653"
             x="343.639"
             xlink:href="#textext-122b64aa-15" />
        </g>
        <g
           id="g3854"
           style="fill:rgb(0%,0%,0%);fill-opacity:1;">
          <use
             id="use3856"
             y="164.653"
             x="353.602"
             xlink:href="#textext-122b64aa-20" />
        </g>
        <g
           id="g3858"
           style="fill:rgb(0%,0%,0%);fill-opacity:1;">
          <use
             id="use3860"
             y="164.653"
             x="358.583"
             xlink:href="#textext-122b64aa-1" />
          <use
             id="use3862"
             y="164.653"
             x="363.768533"
             xlink:href="#textext-122b64aa-2" />
        </g>
        <g
           id="g3864"
           style="fill:rgb(0%,0%,0%);fill-opacity:1;">
          <use
             id="use3866"
             y="164.653"
             x="369.577725"
             xlink:href="#textext-122b64aa-3" />
        </g>
        <g
           id="g3868"
           style="fill:rgb(0%,0%,0%);fill-opacity:1;">
          <use
             id="use3870"
             y="164.653"
             x="376.776"
             xlink:href="#textext-122b64aa-16" />
          <use
             id="use3872"
             y="164.653"
             x="379.54361"
             xlink:href="#textext-122b64aa-17" />
        </g>
        <g
           id="g3874"
           style="fill:rgb(0%,0%,0%);fill-opacity:1;">
          <use
             id="use3876"
             y="164.653"
             x="383.417"
             xlink:href="#textext-122b64aa-0" />
        </g>
        <g
           id="g3878"
           style="fill:rgb(0%,0%,0%);fill-opacity:1;">
          <use
             id="use3880"
             y="166.147"
             x="389.111"
             xlink:href="#textext-122b64aa-11" />
        </g>
        <g
           id="g3882"
           style="fill:rgb(0%,0%,0%);fill-opacity:1;">
          <use
             id="use3884"
             y="164.653"
             x="396.748"
             xlink:href="#textext-122b64aa-3" />
        </g>
        <g
           id="g3886"
           style="fill:rgb(0%,0%,0%);fill-opacity:1;">
          <use
             id="use3888"
             y="164.653"
             x="403.940997"
             xlink:href="#textext-122b64aa-5" />
        </g>
        <g
           id="g3890"
           style="fill:rgb(0%,0%,0%);fill-opacity:1;">
          <use
             id="use3892"
             y="166.147"
             x="408.828"
             xlink:href="#textext-122b64aa-11" />
        </g>
        <g
           id="g3894"
           style="fill:rgb(0%,0%,0%);fill-opacity:1;">
          <use
             id="use3896"
             y="164.653"
             x="414.251"
             xlink:href="#textext-122b64aa-18" />
        </g>
        <g
           id="g3898"
           style="fill:rgb(0%,0%,0%);fill-opacity:1;">
          <use
             id="use3900"
             y="164.653"
             x="420.339"
             xlink:href="#textext-122b64aa-21" />
        </g>
        <g
           id="g3902"
           style="fill:rgb(0%,0%,0%);fill-opacity:1;">
          <use
             id="use3904"
             y="164.653"
             x="430.302"
             xlink:href="#textext-122b64aa-17" />
        </g>
        <g
           id="g3906"
           style="fill:rgb(0%,0%,0%);fill-opacity:1;">
          <use
             id="use3908"
             y="164.653"
             x="434.176"
             xlink:href="#textext-122b64aa-10" />
        </g>
        <g
           id="g3910"
           style="fill:rgb(0%,0%,0%);fill-opacity:1;">
          <use
             id="use3912"
             y="160.539"
             x="440.337"
             xlink:href="#textext-122b64aa-23" />
        </g>
        <g
           id="g3914"
           style="fill:rgb(0%,0%,0%);fill-opacity:1;">
          <use
             id="use3916"
             y="164.653"
             x="445.346"
             xlink:href="#textext-122b64aa-3" />
        </g>
        <g
           id="g3918"
           style="fill:rgb(0%,0%,0%);fill-opacity:1;">
          <use
             id="use3920"
             y="164.653"
             x="452.538997"
             xlink:href="#textext-122b64aa-9" />
        </g>
        <g
           id="g3922"
           style="fill:rgb(0%,0%,0%);fill-opacity:1;">
          <use
             id="use3924"
             y="166.147"
             x="457.174"
             xlink:href="#textext-122b64aa-11" />
        </g>
        <g
           id="g3926"
           style="fill:rgb(0%,0%,0%);fill-opacity:1;">
          <use
             id="use3928"
             y="164.653"
             x="462.597"
             xlink:href="#textext-122b64aa-18" />
          <use
             id="use3930"
             y="164.653"
             x="466.471455"
             xlink:href="#textext-122b64aa-19" />
        </g>
        <g
           id="g3932"
           style="fill:rgb(0%,0%,0%);fill-opacity:1;">
          <use
             id="use3934"
             y="164.653"
             x="469.239"
             xlink:href="#textext-122b64aa-22" />
        </g>
      </g>
    </g>
  </g>
</svg>
