<?xml version="1.0" encoding="UTF-8" standalone="no"?>
<!-- Created with Inkscape (http://www.inkscape.org/) -->

<svg
   xmlns:ns0="http://www.iki.fi/pav/software/textext/"
   xmlns:dc="http://purl.org/dc/elements/1.1/"
   xmlns:cc="http://creativecommons.org/ns#"
   xmlns:rdf="http://www.w3.org/1999/02/22-rdf-syntax-ns#"
   xmlns:svg="http://www.w3.org/2000/svg"
   xmlns="http://www.w3.org/2000/svg"
   xmlns:xlink="http://www.w3.org/1999/xlink"
   xmlns:sodipodi="http://sodipodi.sourceforge.net/DTD/sodipodi-0.dtd"
   xmlns:inkscape="http://www.inkscape.org/namespaces/inkscape"
   width="993.52856"
   height="542.29431"
   id="svg2"
   version="1.1"
   inkscape:version="0.48.3.1 r9886"
   sodipodi:docname="algP5svg.svg">
  <sodipodi:namedview
     id="base"
     pagecolor="#ffffff"
     bordercolor="#666666"
     borderopacity="1.0"
     inkscape:pageopacity="0.0"
     inkscape:pageshadow="2"
     inkscape:zoom="0.35"
     inkscape:cx="432.82481"
     inkscape:cy="304.9113"
     inkscape:document-units="px"
     inkscape:current-layer="layer1"
     showgrid="false"
     inkscape:window-width="1366"
     inkscape:window-height="709"
     inkscape:window-x="0"
     inkscape:window-y="27"
     inkscape:window-maximized="1"
     fit-margin-top="0"
     fit-margin-left="0"
     fit-margin-right="0"
     fit-margin-bottom="0" />
  <defs
     id="defs4" />
  <metadata
     id="metadata7">
    <rdf:RDF>
      <cc:Work
         rdf:about="">
        <dc:format>image/svg+xml</dc:format>
        <dc:type
           rdf:resource="http://purl.org/dc/dcmitype/StillImage" />
        <dc:title />
      </cc:Work>
    </rdf:RDF>
  </metadata>
  <g
     inkscape:label="Camada 1"
     inkscape:groupmode="layer"
     id="layer1"
     transform="translate(82.824815,-17.070228)">
    <g
       id="g7136"
       transform="matrix(5.1627663,0,0,5.1627663,-841.53048,-258.30676)"
       ns0:preamble=""
       ns0:text="$\\omega=2000 $\n">
      <defs
         id="defs7138">
        <g
           id="g7140">
          <symbol
             id="textext-3b59a703-0"
             overflow="visible"
             style="overflow:visible">
            <path
               id="path7143"
               d="m 6.03125,-3.703125 c 0,-0.453125 -0.171875,-0.703125 -0.40625,-0.703125 -0.25,0 -0.515625,0.234375 -0.515625,0.46875 0,0.09375 0.046875,0.203125 0.140625,0.296875 0.171875,0.15625 0.359375,0.421875 0.359375,0.84375 0,0.390625 -0.203125,0.96875 -0.5,1.421875 C 4.8125,-0.953125 4.4375,-0.609375 3.96875,-0.609375 3.40625,-0.609375 3.09375,-0.96875 3,-1.5 c 0.109375,-0.265625 0.34375,-0.90625 0.34375,-1.1875 0,-0.109375 -0.046875,-0.21875 -0.1875,-0.21875 -0.078125,0 -0.1875,0.03125 -0.265625,0.171875 C 2.78125,-2.53125 2.65625,-1.890625 2.65625,-1.53125 2.328125,-1.0625 1.9375,-0.609375 1.3125,-0.609375 c -0.671875,0 -0.875,-0.59375 -0.875,-1.140625 0,-1.25 1.015625,-2.296875 1.015625,-2.421875 0,-0.109375 -0.078125,-0.1875 -0.1875,-0.1875 -0.125,0 -0.203125,0.125 -0.265625,0.21875 -0.5,0.734375 -0.875,1.921875 -0.875,2.828125 0,0.6875 0.21875,1.421875 1.046875,1.421875 0.703125,0 1.171875,-0.5 1.53125,-1.046875 0.09375,0.578125 0.484375,1.046875 1.09375,1.046875 0.78125,0 1.25,-0.609375 1.609375,-1.359375 0.25,-0.484375 0.625,-1.84375 0.625,-2.453125 z m 0,0"
               style="stroke:none"
               inkscape:connector-curvature="0" />
          </symbol>
          <symbol
             id="textext-3b59a703-1"
             overflow="visible"
             style="overflow:visible">
            <path
               id="path7146"
               d="m 6.84375,-3.265625 c 0.15625,0 0.34375,0 0.34375,-0.1875 C 7.1875,-3.65625 7,-3.65625 6.859375,-3.65625 l -5.96875,0 c -0.140625,0 -0.328125,0 -0.328125,0.203125 0,0.1875 0.1875,0.1875 0.328125,0.1875 z m 0.015625,1.9375 c 0.140625,0 0.328125,0 0.328125,-0.203125 0,-0.1875 -0.1875,-0.1875 -0.34375,-0.1875 l -5.953125,0 c -0.140625,0 -0.328125,0 -0.328125,0.1875 0,0.203125 0.1875,0.203125 0.328125,0.203125 z m 0,0"
               style="stroke:none"
               inkscape:connector-curvature="0" />
          </symbol>
          <symbol
             id="textext-3b59a703-2"
             overflow="visible"
             style="overflow:visible">
            <path
               id="path7149"
               d="m 1.265625,-0.765625 1.0625,-1.03125 c 1.546875,-1.375 2.140625,-1.90625 2.140625,-2.90625 0,-1.140625 -0.890625,-1.9375 -2.109375,-1.9375 -1.125,0 -1.859375,0.921875 -1.859375,1.8125 0,0.546875 0.5,0.546875 0.53125,0.546875 0.171875,0 0.515625,-0.109375 0.515625,-0.53125 0,-0.25 -0.1875,-0.515625 -0.53125,-0.515625 -0.078125,0 -0.09375,0 -0.125,0.015625 0.21875,-0.65625 0.765625,-1.015625 1.34375,-1.015625 0.90625,0 1.328125,0.8125 1.328125,1.625 C 3.5625,-3.90625 3.078125,-3.125 2.515625,-2.5 l -1.90625,2.125 C 0.5,-0.265625 0.5,-0.234375 0.5,0 l 3.703125,0 0.265625,-1.734375 -0.234375,0 C 4.171875,-1.4375 4.109375,-1 4,-0.84375 3.9375,-0.765625 3.28125,-0.765625 3.0625,-0.765625 z m 0,0"
               style="stroke:none"
               inkscape:connector-curvature="0" />
          </symbol>
          <symbol
             id="textext-3b59a703-3"
             overflow="visible"
             style="overflow:visible">
            <path
               id="path7152"
               d="m 4.578125,-3.1875 c 0,-0.796875 -0.046875,-1.59375 -0.390625,-2.328125 -0.453125,-0.96875 -1.28125,-1.125 -1.6875,-1.125 -0.609375,0 -1.328125,0.265625 -1.75,1.1875 -0.3125,0.6875 -0.359375,1.46875 -0.359375,2.265625 0,0.75 0.03125,1.640625 0.453125,2.40625 0.421875,0.796875 1.15625,1 1.640625,1 0.53125,0 1.296875,-0.203125 1.734375,-1.15625 0.3125,-0.6875 0.359375,-1.46875 0.359375,-2.25 z M 2.484375,0 C 2.09375,0 1.5,-0.25 1.328125,-1.203125 1.21875,-1.796875 1.21875,-2.71875 1.21875,-3.3125 c 0,-0.640625 0,-1.296875 0.078125,-1.828125 0.1875,-1.1875 0.9375,-1.28125 1.1875,-1.28125 0.328125,0 0.984375,0.1875 1.171875,1.171875 0.109375,0.5625 0.109375,1.3125 0.109375,1.9375 0,0.75 0,1.421875 -0.109375,2.0625 C 3.5,-0.296875 2.9375,0 2.484375,0 z m 0,0"
               style="stroke:none"
               inkscape:connector-curvature="0" />
          </symbol>
        </g>
      </defs>
      <g
         id="textext-3b59a703-4">
        <g
           id="g7155"
           style="fill:#000000;fill-opacity:1">
          <use
             id="use7157"
             y="134.765"
             x="223.43201"
             xlink:href="#textext-3b59a703-0"
             width="477.81085"
             height="359.11816" />
        </g>
        <g
           id="g7159"
           style="fill:#000000;fill-opacity:1">
          <use
             id="use7161"
             y="134.765"
             x="232.758"
             xlink:href="#textext-3b59a703-1"
             width="477.81085"
             height="359.11816" />
        </g>
        <g
           id="g7163"
           style="fill:#000000;fill-opacity:1">
          <use
             id="use7165"
             y="134.765"
             x="243.27652"
             xlink:href="#textext-3b59a703-2"
             width="477.81085"
             height="359.11816" />
          <use
             id="use7167"
             y="134.765"
             x="248.25781"
             xlink:href="#textext-3b59a703-3"
             width="477.81085"
             height="359.11816" />
          <use
             id="use7169"
             y="134.765"
             x="253.23912"
             xlink:href="#textext-3b59a703-3"
             width="477.81085"
             height="359.11816" />
          <use
             id="use7171"
             y="134.765"
             x="258.2204"
             xlink:href="#textext-3b59a703-3"
             width="477.81085"
             height="359.11816" />
        </g>
      </g>
    </g>
    <g
       ns0:text="$c_j=v_j  \\oplus (x_{j\\omega} \\bmod 2) $\n"
       ns0:preamble=""
       transform="matrix(5.1627663,0,0,5.1627663,-984.63449,-151.44963)"
       id="g8319">
      <defs
         id="defs8321">
        <g
           id="g8323">
          <symbol
             style="overflow:visible"
             overflow="visible"
             id="textext-25ec0504-0">
            <path
               inkscape:connector-curvature="0"
               style="stroke:none"
               d="m 3.953125,-3.78125 c -0.171875,0 -0.296875,0 -0.4375,0.125 -0.171875,0.15625 -0.1875,0.328125 -0.1875,0.390625 0,0.25 0.1875,0.359375 0.375,0.359375 0.28125,0 0.546875,-0.25 0.546875,-0.640625 0,-0.484375 -0.46875,-0.859375 -1.171875,-0.859375 -1.34375,0 -2.671875,1.421875 -2.671875,2.828125 0,0.90625 0.578125,1.6875 1.625,1.6875 1.421875,0 2.25,-1.0625 2.25,-1.171875 0,-0.0625 -0.046875,-0.140625 -0.109375,-0.140625 -0.0625,0 -0.078125,0.03125 -0.140625,0.109375 -0.78125,0.984375 -1.875,0.984375 -1.984375,0.984375 -0.625,0 -0.90625,-0.484375 -0.90625,-1.09375 0,-0.40625 0.203125,-1.375 0.546875,-1.984375 0.3125,-0.578125 0.859375,-1 1.40625,-1 0.328125,0 0.71875,0.125 0.859375,0.40625 z m 0,0"
               id="path8326" />
          </symbol>
          <symbol
             style="overflow:visible"
             overflow="visible"
             id="textext-25ec0504-1">
            <path
               inkscape:connector-curvature="0"
               style="stroke:none"
               d="m 4.671875,-3.703125 c 0,-0.546875 -0.265625,-0.703125 -0.4375,-0.703125 -0.25,0 -0.5,0.265625 -0.5,0.484375 0,0.125 0.046875,0.1875 0.15625,0.296875 0.21875,0.203125 0.34375,0.453125 0.34375,0.8125 0,0.421875 -0.609375,2.703125 -1.765625,2.703125 -0.515625,0 -0.75,-0.34375 -0.75,-0.875 0,-0.546875 0.28125,-1.28125 0.578125,-2.109375 0.078125,-0.171875 0.125,-0.3125 0.125,-0.5 0,-0.4375 -0.3125,-0.8125 -0.8125,-0.8125 -0.9375,0 -1.3125,1.453125 -1.3125,1.53125 0,0.109375 0.09375,0.109375 0.109375,0.109375 0.109375,0 0.109375,-0.03125 0.15625,-0.1875 0.296875,-1 0.71875,-1.234375 1.015625,-1.234375 0.078125,0 0.25,0 0.25,0.3125 0,0.25 -0.109375,0.53125 -0.171875,0.703125 -0.4375,1.15625 -0.5625,1.609375 -0.5625,2.046875 0,1.078125 0.875,1.234375 1.328125,1.234375 1.671875,0 2.25,-3.296875 2.25,-3.8125 z m 0,0"
               id="path8329" />
          </symbol>
          <symbol
             style="overflow:visible"
             overflow="visible"
             id="textext-25ec0504-2">
            <path
               inkscape:connector-curvature="0"
               style="stroke:none"
               d="M 3.328125,-3.015625 C 3.390625,-3.265625 3.625,-4.1875 4.3125,-4.1875 c 0.046875,0 0.296875,0 0.5,0.125 C 4.53125,-4 4.34375,-3.765625 4.34375,-3.515625 c 0,0.15625 0.109375,0.34375 0.375,0.34375 0.21875,0 0.53125,-0.171875 0.53125,-0.578125 0,-0.515625 -0.578125,-0.65625 -0.921875,-0.65625 -0.578125,0 -0.921875,0.53125 -1.046875,0.75 -0.25,-0.65625 -0.78125,-0.75 -1.078125,-0.75 -1.03125,0 -1.609375,1.28125 -1.609375,1.53125 0,0.109375 0.109375,0.109375 0.125,0.109375 0.078125,0 0.109375,-0.03125 0.125,-0.109375 0.34375,-1.0625 1,-1.3125 1.34375,-1.3125 0.1875,0 0.53125,0.09375 0.53125,0.671875 0,0.3125 -0.171875,0.96875 -0.53125,2.375 -0.15625,0.609375 -0.515625,1.03125 -0.953125,1.03125 -0.0625,0 -0.28125,0 -0.5,-0.125 0.25,-0.0625 0.46875,-0.265625 0.46875,-0.546875 0,-0.265625 -0.21875,-0.34375 -0.359375,-0.34375 -0.3125,0 -0.546875,0.25 -0.546875,0.578125 0,0.453125 0.484375,0.65625 0.921875,0.65625 0.671875,0 1.03125,-0.703125 1.046875,-0.75 0.125,0.359375 0.484375,0.75 1.078125,0.75 1.03125,0 1.59375,-1.28125 1.59375,-1.53125 0,-0.109375 -0.078125,-0.109375 -0.109375,-0.109375 -0.09375,0 -0.109375,0.046875 -0.140625,0.109375 -0.328125,1.078125 -1,1.3125 -1.3125,1.3125 -0.390625,0 -0.546875,-0.3125 -0.546875,-0.65625 0,-0.21875 0.046875,-0.4375 0.15625,-0.875 z m 0,0"
               id="path8332" />
          </symbol>
          <symbol
             style="overflow:visible"
             overflow="visible"
             id="textext-25ec0504-3">
            <path
               inkscape:connector-curvature="0"
               style="stroke:none"
               d="M 3.0625,-4.359375 C 3.0625,-4.46875 2.96875,-4.625 2.78125,-4.625 c -0.203125,0 -0.390625,0.203125 -0.390625,0.390625 0,0.109375 0.078125,0.265625 0.28125,0.265625 0.1875,0 0.390625,-0.1875 0.390625,-0.390625 z M 1.578125,0.34375 C 1.46875,0.828125 1.09375,1.21875 0.6875,1.21875 c -0.09375,0 -0.171875,0 -0.25,-0.03125 0.171875,-0.09375 0.234375,-0.25 0.234375,-0.359375 0,-0.171875 -0.140625,-0.25 -0.28125,-0.25 C 0.1875,0.578125 0,0.765625 0,0.984375 c 0,0.265625 0.265625,0.4375 0.6875,0.4375 0.421875,0 1.234375,-0.25 1.453125,-1.09375 l 0.625,-2.5 c 0.015625,-0.078125 0.03125,-0.140625 0.03125,-0.25 0,-0.375 -0.328125,-0.65625 -0.734375,-0.65625 -0.78125,0 -1.21875,0.96875 -1.21875,1.078125 0,0.078125 0.09375,0.078125 0.109375,0.078125 0.078125,0 0.09375,-0.015625 0.140625,-0.125 C 1.265625,-2.453125 1.625,-2.875 2.03125,-2.875 c 0.171875,0 0.234375,0.109375 0.234375,0.34375 0,0.078125 0,0.171875 -0.015625,0.203125 z m 0,0"
               id="path8335" />
          </symbol>
          <symbol
             style="overflow:visible"
             overflow="visible"
             id="textext-25ec0504-4">
            <path
               inkscape:connector-curvature="0"
               style="stroke:none"
               d="m 4.765625,-2.578125 c 0,-0.203125 -0.09375,-0.5 -0.375,-0.5 -0.171875,0 -0.359375,0.21875 -0.359375,0.390625 0,0.234375 0.375,0.28125 0.375,0.75 0,0.453125 -0.453125,1.453125 -1.234375,1.453125 -0.328125,0 -0.609375,-0.234375 -0.703125,-0.546875 0.09375,-0.140625 0.25,-0.625 0.25,-0.8125 0,-0.09375 -0.0625,-0.203125 -0.171875,-0.203125 -0.359375,0 -0.390625,0.75 -0.390625,1 -0.1875,0.25 -0.546875,0.5625 -1,0.5625 -0.375,0 -0.640625,-0.34375 -0.640625,-0.8125 0,-0.8125 0.703125,-1.484375 0.703125,-1.59375 0,-0.078125 -0.0625,-0.15625 -0.140625,-0.15625 -0.0625,0 -0.109375,0.03125 -0.15625,0.09375 -0.09375,0.109375 -0.1875,0.265625 -0.265625,0.40625 -0.25,0.421875 -0.421875,1 -0.421875,1.515625 0,0.546875 0.21875,1.09375 0.859375,1.09375 0.46875,0 0.875,-0.296875 1.125,-0.671875 0.140625,0.421875 0.4375,0.671875 0.890625,0.671875 1.21875,0 1.65625,-2.0625 1.65625,-2.640625 z m 0,0"
               id="path8338" />
          </symbol>
          <symbol
             style="overflow:visible"
             overflow="visible"
             id="textext-25ec0504-5">
            <path
               inkscape:connector-curvature="0"
               style="stroke:none"
               d="m 6.84375,-3.265625 c 0.15625,0 0.34375,0 0.34375,-0.1875 C 7.1875,-3.65625 7,-3.65625 6.859375,-3.65625 l -5.96875,0 c -0.140625,0 -0.328125,0 -0.328125,0.203125 0,0.1875 0.1875,0.1875 0.328125,0.1875 z m 0.015625,1.9375 c 0.140625,0 0.328125,0 0.328125,-0.203125 0,-0.1875 -0.1875,-0.1875 -0.34375,-0.1875 l -5.953125,0 c -0.140625,0 -0.328125,0 -0.328125,0.1875 0,0.203125 0.1875,0.203125 0.328125,0.203125 z m 0,0"
               id="path8341" />
          </symbol>
          <symbol
             style="overflow:visible"
             overflow="visible"
             id="textext-25ec0504-6">
            <path
               inkscape:connector-curvature="0"
               style="stroke:none"
               d="m 3.296875,2.390625 c 0,-0.03125 0,-0.046875 -0.171875,-0.21875 C 1.890625,0.921875 1.5625,-0.96875 1.5625,-2.5 c 0,-1.734375 0.375,-3.46875 1.609375,-4.703125 0.125,-0.125 0.125,-0.140625 0.125,-0.171875 0,-0.078125 -0.03125,-0.109375 -0.09375,-0.109375 -0.109375,0 -1,0.6875 -1.59375,1.953125 -0.5,1.09375 -0.625,2.203125 -0.625,3.03125 0,0.78125 0.109375,1.984375 0.65625,3.125 C 2.25,1.84375 3.09375,2.5 3.203125,2.5 c 0.0625,0 0.09375,-0.03125 0.09375,-0.109375 z m 0,0"
               id="path8344" />
          </symbol>
          <symbol
             style="overflow:visible"
             overflow="visible"
             id="textext-25ec0504-7">
            <path
               inkscape:connector-curvature="0"
               style="stroke:none"
               d="m 1.09375,-3.421875 0,2.671875 c 0,0.4375 -0.109375,0.4375 -0.78125,0.4375 l 0,0.3125 c 0.359375,-0.015625 0.859375,-0.03125 1.140625,-0.03125 0.25,0 0.765625,0.015625 1.109375,0.03125 l 0,-0.3125 c -0.671875,0 -0.78125,0 -0.78125,-0.4375 l 0,-1.84375 C 1.78125,-3.625 2.5,-4.1875 3.125,-4.1875 c 0.640625,0 0.75,0.53125 0.75,1.109375 l 0,2.328125 c 0,0.4375 -0.109375,0.4375 -0.78125,0.4375 l 0,0.3125 c 0.34375,-0.015625 0.859375,-0.03125 1.125,-0.03125 0.25,0 0.78125,0.015625 1.109375,0.03125 l 0,-0.3125 c -0.65625,0 -0.765625,0 -0.765625,-0.4375 l 0,-1.84375 c 0,-1.03125 0.703125,-1.59375 1.34375,-1.59375 0.625,0 0.734375,0.53125 0.734375,1.109375 l 0,2.328125 c 0,0.4375 -0.109375,0.4375 -0.78125,0.4375 l 0,0.3125 c 0.34375,-0.015625 0.859375,-0.03125 1.125,-0.03125 0.265625,0 0.78125,0.015625 1.125,0.03125 l 0,-0.3125 c -0.515625,0 -0.765625,0 -0.78125,-0.296875 l 0,-1.90625 c 0,-0.859375 0,-1.15625 -0.3125,-1.515625 -0.140625,-0.171875 -0.46875,-0.375 -1.046875,-0.375 -0.828125,0 -1.28125,0.59375 -1.4375,0.984375 C 4.390625,-4.296875 3.65625,-4.40625 3.203125,-4.40625 2.46875,-4.40625 2,-3.984375 1.71875,-3.359375 l 0,-1.046875 -1.40625,0.109375 0,0.3125 c 0.703125,0 0.78125,0.0625 0.78125,0.5625 z m 0,0"
               id="path8347" />
          </symbol>
          <symbol
             style="overflow:visible"
             overflow="visible"
             id="textext-25ec0504-8">
            <path
               inkscape:connector-curvature="0"
               style="stroke:none"
               d="M 4.6875,-2.140625 C 4.6875,-3.40625 3.703125,-4.46875 2.5,-4.46875 c -1.25,0 -2.21875,1.09375 -2.21875,2.328125 0,1.296875 1.03125,2.25 2.203125,2.25 1.203125,0 2.203125,-0.984375 2.203125,-2.25 z m -2.1875,2 c -0.4375,0 -0.875,-0.203125 -1.140625,-0.671875 -0.25,-0.4375 -0.25,-1.046875 -0.25,-1.40625 0,-0.390625 0,-0.921875 0.234375,-1.359375 C 1.609375,-4.03125 2.078125,-4.25 2.484375,-4.25 c 0.4375,0 0.859375,0.21875 1.125,0.65625 0.265625,0.421875 0.265625,1 0.265625,1.375 0,0.359375 0,0.90625 -0.21875,1.34375 C 3.421875,-0.421875 2.984375,-0.140625 2.5,-0.140625 z m 0,0"
               id="path8350" />
          </symbol>
          <symbol
             style="overflow:visible"
             overflow="visible"
             id="textext-25ec0504-9">
            <path
               inkscape:connector-curvature="0"
               style="stroke:none"
               d="m 3.78125,-0.546875 0,0.65625 L 5.25,0 l 0,-0.3125 c -0.6875,0 -0.78125,-0.0625 -0.78125,-0.5625 l 0,-6.046875 -1.421875,0.109375 0,0.3125 c 0.6875,0 0.765625,0.0625 0.765625,0.5625 l 0,2.15625 c -0.28125,-0.359375 -0.71875,-0.625 -1.25,-0.625 -1.171875,0 -2.21875,0.984375 -2.21875,2.265625 0,1.265625 0.96875,2.25 2.109375,2.25 0.640625,0 1.078125,-0.34375 1.328125,-0.65625 z m 0,-2.671875 0,2.046875 c 0,0.171875 0,0.1875 -0.109375,0.359375 C 3.375,-0.328125 2.9375,-0.109375 2.5,-0.109375 2.046875,-0.109375 1.6875,-0.375 1.453125,-0.75 1.203125,-1.15625 1.171875,-1.71875 1.171875,-2.140625 1.171875,-2.5 1.1875,-3.09375 1.46875,-3.546875 1.6875,-3.859375 2.0625,-4.1875 2.609375,-4.1875 c 0.34375,0 0.765625,0.15625 1.0625,0.59375 0.109375,0.171875 0.109375,0.1875 0.109375,0.375 z m 0,0"
               id="path8353" />
          </symbol>
          <symbol
             style="overflow:visible"
             overflow="visible"
             id="textext-25ec0504-10">
            <path
               inkscape:connector-curvature="0"
               style="stroke:none"
               d="m 1.265625,-0.765625 1.0625,-1.03125 c 1.546875,-1.375 2.140625,-1.90625 2.140625,-2.90625 0,-1.140625 -0.890625,-1.9375 -2.109375,-1.9375 -1.125,0 -1.859375,0.921875 -1.859375,1.8125 0,0.546875 0.5,0.546875 0.53125,0.546875 0.171875,0 0.515625,-0.109375 0.515625,-0.53125 0,-0.25 -0.1875,-0.515625 -0.53125,-0.515625 -0.078125,0 -0.09375,0 -0.125,0.015625 0.21875,-0.65625 0.765625,-1.015625 1.34375,-1.015625 0.90625,0 1.328125,0.8125 1.328125,1.625 C 3.5625,-3.90625 3.078125,-3.125 2.515625,-2.5 l -1.90625,2.125 C 0.5,-0.265625 0.5,-0.234375 0.5,0 l 3.703125,0 0.265625,-1.734375 -0.234375,0 C 4.171875,-1.4375 4.109375,-1 4,-0.84375 3.9375,-0.765625 3.28125,-0.765625 3.0625,-0.765625 z m 0,0"
               id="path8356" />
          </symbol>
          <symbol
             style="overflow:visible"
             overflow="visible"
             id="textext-25ec0504-11">
            <path
               inkscape:connector-curvature="0"
               style="stroke:none"
               d="m 2.875,-2.5 c 0,-0.765625 -0.109375,-1.96875 -0.65625,-3.109375 -0.59375,-1.21875 -1.453125,-1.875 -1.546875,-1.875 -0.0625,0 -0.109375,0.046875 -0.109375,0.109375 0,0.03125 0,0.046875 0.1875,0.234375 0.984375,0.984375 1.546875,2.5625 1.546875,4.640625 0,1.71875 -0.359375,3.46875 -1.59375,4.71875 C 0.5625,2.34375 0.5625,2.359375 0.5625,2.390625 0.5625,2.453125 0.609375,2.5 0.671875,2.5 0.765625,2.5 1.671875,1.8125 2.25,0.546875 2.765625,-0.546875 2.875,-1.65625 2.875,-2.5 z m 0,0"
               id="path8359" />
          </symbol>
          <symbol
             style="overflow:visible"
             overflow="visible"
             id="textext-25ec0504-12">
            <path
               inkscape:connector-curvature="0"
               style="stroke:none"
               d="m 7.203125,-2.5 c 0,-1.828125 -1.5,-3.3125 -3.328125,-3.3125 -1.84375,0 -3.328125,1.5 -3.328125,3.3125 0,1.84375 1.5,3.328125 3.328125,3.328125 1.84375,0 3.328125,-1.5 3.328125,-3.328125 z M 0.796875,-2.625 C 0.890625,-4.296875 2.1875,-5.484375 3.75,-5.5625 l 0,2.9375 z M 4,-5.5625 c 1.5625,0.078125 2.84375,1.28125 2.953125,2.9375 L 4,-2.625 z M 3.75,0.578125 C 2.203125,0.5 0.890625,-0.671875 0.796875,-2.375 l 2.953125,0 z M 6.953125,-2.375 C 6.84375,-0.671875 5.53125,0.5 4,0.578125 L 4,-2.375 z m 0,0"
               id="path8362" />
          </symbol>
        </g>
      </defs>
      <g
         id="textext-25ec0504-13">
        <g
           style="fill:#000000;fill-opacity:1"
           id="g8365">
          <use
             height="359.11816"
             width="477.81085"
             xlink:href="#textext-25ec0504-0"
             x="223.43201"
             y="134.765"
             id="use8367" />
        </g>
        <g
           style="fill:#000000;fill-opacity:1"
           id="g8369">
          <use
             height="359.11816"
             width="477.81085"
             xlink:href="#textext-25ec0504-3"
             x="227.743"
             y="136.259"
             id="use8371" />
        </g>
        <g
           style="fill:#000000;fill-opacity:1"
           id="g8373">
          <use
             height="359.11816"
             width="477.81085"
             xlink:href="#textext-25ec0504-5"
             x="234.709"
             y="134.765"
             id="use8375" />
        </g>
        <g
           style="fill:#000000;fill-opacity:1"
           id="g8377">
          <use
             height="359.11816"
             width="477.81085"
             xlink:href="#textext-25ec0504-1"
             x="245.22501"
             y="134.765"
             id="use8379" />
        </g>
        <g
           style="fill:#000000;fill-opacity:1"
           id="g8381">
          <use
             height="359.11816"
             width="477.81085"
             xlink:href="#textext-25ec0504-3"
             x="250.054"
             y="136.259"
             id="use8383" />
        </g>
        <g
           style="fill:#000000;fill-opacity:1"
           id="g8385">
          <use
             height="359.11816"
             width="477.81085"
             xlink:href="#textext-25ec0504-12"
             x="256.466"
             y="134.765"
             id="use8387" />
        </g>
        <g
           style="fill:#000000;fill-opacity:1"
           id="g8389">
          <use
             height="359.11816"
             width="477.81085"
             xlink:href="#textext-25ec0504-6"
             x="266.42801"
             y="134.765"
             id="use8391" />
        </g>
        <g
           style="fill:#000000;fill-opacity:1"
           id="g8393">
          <use
             height="359.11816"
             width="477.81085"
             xlink:href="#textext-25ec0504-2"
             x="270.30301"
             y="134.765"
             id="use8395" />
        </g>
        <g
           style="fill:#000000;fill-opacity:1"
           id="g8397">
          <use
             height="359.11816"
             width="477.81085"
             xlink:href="#textext-25ec0504-3"
             x="275.996"
             y="136.259"
             id="use8399" />
        </g>
        <g
           style="fill:#000000;fill-opacity:1"
           id="g8401">
          <use
             height="359.11816"
             width="477.81085"
             xlink:href="#textext-25ec0504-4"
             x="279.69699"
             y="136.259"
             id="use8403" />
        </g>
        <g
           style="fill:#000000;fill-opacity:1"
           id="g8405">
          <use
             height="359.11816"
             width="477.81085"
             xlink:href="#textext-25ec0504-7"
             x="288.23099"
             y="134.765"
             id="use8407" />
          <use
             height="359.11816"
             width="477.81085"
             xlink:href="#textext-25ec0504-8"
             x="296.53284"
             y="134.765"
             id="use8409" />
        </g>
        <g
           style="fill:#000000;fill-opacity:1"
           id="g8411">
          <use
             height="359.11816"
             width="477.81085"
             xlink:href="#textext-25ec0504-9"
             x="301.79309"
             y="134.765"
             id="use8413" />
        </g>
        <g
           style="fill:#000000;fill-opacity:1"
           id="g8415">
          <use
             height="359.11816"
             width="477.81085"
             xlink:href="#textext-25ec0504-10"
             x="310.0979"
             y="134.765"
             id="use8417" />
          <use
             height="359.11816"
             width="477.81085"
             xlink:href="#textext-25ec0504-11"
             x="315.07922"
             y="134.765"
             id="use8419" />
        </g>
      </g>
    </g>
    <g
       id="g29712"
       transform="matrix(5.1627663,0,0,5.1627663,-1108.1495,-591.47846)"
       ns0:preamble=""
       ns0:text="$f(x)=\\left\\{ \\begin{array}{ll}\n\t\t       \\left (  c_{\\left \\lfloor \\frac{x-1}{\\omega} \\right \\rfloor }+1 \\right) \\alpha  &amp;, \\left \\lfloor \\frac{x-1}{\\omega} \\right \\rfloor &gt;0 \\\\[5mm]\n\t\t\t0 &amp; , \\textrm{c.c} \\\\\n\\end{array} \\right.  \\;$">
      <defs
         id="defs29714">
        <g
           id="g29716">
          <symbol
             id="textext-9f12a40b-0"
             overflow="visible">
            <path
               id="path29719"
               d="M 3.65625 -3.984375 L 4.515625 -3.984375 C 4.71875 -3.984375 4.8125 -3.984375 4.8125 -4.1875 C 4.8125 -4.296875 4.71875 -4.296875 4.546875 -4.296875 L 3.71875 -4.296875 L 3.921875 -5.4375 C 3.96875 -5.640625 4.109375 -6.34375 4.171875 -6.46875 C 4.25 -6.65625 4.421875 -6.8125 4.640625 -6.8125 C 4.671875 -6.8125 4.9375 -6.8125 5.125 -6.625 C 4.6875 -6.59375 4.578125 -6.234375 4.578125 -6.09375 C 4.578125 -5.859375 4.765625 -5.734375 4.953125 -5.734375 C 5.21875 -5.734375 5.5 -5.96875 5.5 -6.34375 C 5.5 -6.796875 5.046875 -7.03125 4.640625 -7.03125 C 4.296875 -7.03125 3.671875 -6.84375 3.375 -5.859375 C 3.3125 -5.65625 3.28125 -5.546875 3.046875 -4.296875 L 2.359375 -4.296875 C 2.15625 -4.296875 2.046875 -4.296875 2.046875 -4.109375 C 2.046875 -3.984375 2.140625 -3.984375 2.328125 -3.984375 L 2.984375 -3.984375 L 2.25 -0.046875 C 2.0625 0.921875 1.890625 1.828125 1.375 1.828125 C 1.328125 1.828125 1.09375 1.828125 0.890625 1.640625 C 1.359375 1.609375 1.453125 1.25 1.453125 1.109375 C 1.453125 0.875 1.265625 0.75 1.078125 0.75 C 0.8125 0.75 0.53125 0.984375 0.53125 1.359375 C 0.53125 1.796875 0.96875 2.046875 1.375 2.046875 C 1.921875 2.046875 2.328125 1.453125 2.5 1.078125 C 2.828125 0.453125 3.046875 -0.75 3.0625 -0.828125 Z M 3.65625 -3.984375 "
               style="stroke:none;" />
          </symbol>
          <symbol
             id="textext-9f12a40b-1"
             overflow="visible">
            <path
               id="path29722"
               d="M 3.328125 -3.015625 C 3.390625 -3.265625 3.625 -4.1875 4.3125 -4.1875 C 4.359375 -4.1875 4.609375 -4.1875 4.8125 -4.0625 C 4.53125 -4 4.34375 -3.765625 4.34375 -3.515625 C 4.34375 -3.359375 4.453125 -3.171875 4.71875 -3.171875 C 4.9375 -3.171875 5.25 -3.34375 5.25 -3.75 C 5.25 -4.265625 4.671875 -4.40625 4.328125 -4.40625 C 3.75 -4.40625 3.40625 -3.875 3.28125 -3.65625 C 3.03125 -4.3125 2.5 -4.40625 2.203125 -4.40625 C 1.171875 -4.40625 0.59375 -3.125 0.59375 -2.875 C 0.59375 -2.765625 0.703125 -2.765625 0.71875 -2.765625 C 0.796875 -2.765625 0.828125 -2.796875 0.84375 -2.875 C 1.1875 -3.9375 1.84375 -4.1875 2.1875 -4.1875 C 2.375 -4.1875 2.71875 -4.09375 2.71875 -3.515625 C 2.71875 -3.203125 2.546875 -2.546875 2.1875 -1.140625 C 2.03125 -0.53125 1.671875 -0.109375 1.234375 -0.109375 C 1.171875 -0.109375 0.953125 -0.109375 0.734375 -0.234375 C 0.984375 -0.296875 1.203125 -0.5 1.203125 -0.78125 C 1.203125 -1.046875 0.984375 -1.125 0.84375 -1.125 C 0.53125 -1.125 0.296875 -0.875 0.296875 -0.546875 C 0.296875 -0.09375 0.78125 0.109375 1.21875 0.109375 C 1.890625 0.109375 2.25 -0.59375 2.265625 -0.640625 C 2.390625 -0.28125 2.75 0.109375 3.34375 0.109375 C 4.375 0.109375 4.9375 -1.171875 4.9375 -1.421875 C 4.9375 -1.53125 4.859375 -1.53125 4.828125 -1.53125 C 4.734375 -1.53125 4.71875 -1.484375 4.6875 -1.421875 C 4.359375 -0.34375 3.6875 -0.109375 3.375 -0.109375 C 2.984375 -0.109375 2.828125 -0.421875 2.828125 -0.765625 C 2.828125 -0.984375 2.875 -1.203125 2.984375 -1.640625 Z M 3.328125 -3.015625 "
               style="stroke:none;" />
          </symbol>
          <symbol
             id="textext-9f12a40b-2"
             overflow="visible">
            <path
               id="path29725"
               d="M 3.953125 -3.78125 C 3.78125 -3.78125 3.65625 -3.78125 3.515625 -3.65625 C 3.34375 -3.5 3.328125 -3.328125 3.328125 -3.265625 C 3.328125 -3.015625 3.515625 -2.90625 3.703125 -2.90625 C 3.984375 -2.90625 4.25 -3.15625 4.25 -3.546875 C 4.25 -4.03125 3.78125 -4.40625 3.078125 -4.40625 C 1.734375 -4.40625 0.40625 -2.984375 0.40625 -1.578125 C 0.40625 -0.671875 0.984375 0.109375 2.03125 0.109375 C 3.453125 0.109375 4.28125 -0.953125 4.28125 -1.0625 C 4.28125 -1.125 4.234375 -1.203125 4.171875 -1.203125 C 4.109375 -1.203125 4.09375 -1.171875 4.03125 -1.09375 C 3.25 -0.109375 2.15625 -0.109375 2.046875 -0.109375 C 1.421875 -0.109375 1.140625 -0.59375 1.140625 -1.203125 C 1.140625 -1.609375 1.34375 -2.578125 1.6875 -3.1875 C 2 -3.765625 2.546875 -4.1875 3.09375 -4.1875 C 3.421875 -4.1875 3.8125 -4.0625 3.953125 -3.78125 Z M 3.953125 -3.78125 "
               style="stroke:none;" />
          </symbol>
          <symbol
             id="textext-9f12a40b-3"
             overflow="visible">
            <path
               id="path29728"
               d="M 4.75 -2.359375 C 4.75 -3.921875 3.828125 -4.40625 3.09375 -4.40625 C 1.71875 -4.40625 0.40625 -2.984375 0.40625 -1.578125 C 0.40625 -0.640625 1 0.109375 2.03125 0.109375 C 2.65625 0.109375 3.375 -0.125 4.125 -0.734375 C 4.25 -0.203125 4.578125 0.109375 5.03125 0.109375 C 5.5625 0.109375 5.875 -0.4375 5.875 -0.59375 C 5.875 -0.671875 5.8125 -0.703125 5.75 -0.703125 C 5.6875 -0.703125 5.65625 -0.671875 5.625 -0.59375 C 5.4375 -0.109375 5.078125 -0.109375 5.0625 -0.109375 C 4.75 -0.109375 4.75 -0.890625 4.75 -1.125 C 4.75 -1.328125 4.75 -1.359375 4.859375 -1.46875 C 5.796875 -2.65625 6 -3.8125 6 -3.8125 C 6 -3.84375 5.984375 -3.921875 5.875 -3.921875 C 5.78125 -3.921875 5.78125 -3.890625 5.734375 -3.703125 C 5.546875 -3.078125 5.21875 -2.328125 4.75 -1.734375 Z M 4.09375 -0.984375 C 3.203125 -0.21875 2.4375 -0.109375 2.046875 -0.109375 C 1.453125 -0.109375 1.140625 -0.5625 1.140625 -1.203125 C 1.140625 -1.6875 1.40625 -2.765625 1.71875 -3.265625 C 2.1875 -4 2.734375 -4.1875 3.078125 -4.1875 C 4.0625 -4.1875 4.0625 -2.875 4.0625 -2.109375 C 4.0625 -1.734375 4.0625 -1.15625 4.09375 -0.984375 Z M 4.09375 -0.984375 "
               style="stroke:none;" />
          </symbol>
          <symbol
             id="textext-9f12a40b-4"
             overflow="visible">
            <path
               id="path29731"
               d="M 2.03125 -0.015625 C 2.03125 -0.671875 1.78125 -1.0625 1.390625 -1.0625 C 1.0625 -1.0625 0.859375 -0.8125 0.859375 -0.53125 C 0.859375 -0.265625 1.0625 0 1.390625 0 C 1.5 0 1.640625 -0.046875 1.734375 -0.125 C 1.765625 -0.15625 1.78125 -0.15625 1.78125 -0.15625 C 1.796875 -0.15625 1.796875 -0.15625 1.796875 -0.015625 C 1.796875 0.734375 1.453125 1.328125 1.125 1.65625 C 1.015625 1.765625 1.015625 1.78125 1.015625 1.8125 C 1.015625 1.890625 1.0625 1.921875 1.109375 1.921875 C 1.21875 1.921875 2.03125 1.15625 2.03125 -0.015625 Z M 2.03125 -0.015625 "
               style="stroke:none;" />
          </symbol>
          <symbol
             id="textext-9f12a40b-5"
             overflow="visible">
            <path
               id="path29734"
               d="M 6.734375 -2.265625 C 6.84375 -2.328125 6.921875 -2.375 6.921875 -2.5 C 6.921875 -2.609375 6.84375 -2.65625 6.734375 -2.71875 L 1.203125 -5.3125 C 1.078125 -5.390625 1.0625 -5.390625 1.03125 -5.390625 C 0.921875 -5.390625 0.828125 -5.296875 0.828125 -5.1875 C 0.828125 -5.09375 0.875 -5.03125 1.015625 -4.96875 L 6.25 -2.5 L 1.015625 -0.015625 C 0.875 0.046875 0.828125 0.109375 0.828125 0.203125 C 0.828125 0.3125 0.921875 0.40625 1.03125 0.40625 C 1.0625 0.40625 1.078125 0.40625 1.203125 0.328125 Z M 6.734375 -2.265625 "
               style="stroke:none;" />
          </symbol>
          <symbol
             id="textext-9f12a40b-6"
             overflow="visible">
            <path
               id="path29737"
               d="M 3.296875 2.390625 C 3.296875 2.359375 3.296875 2.34375 3.125 2.171875 C 1.890625 0.921875 1.5625 -0.96875 1.5625 -2.5 C 1.5625 -4.234375 1.9375 -5.96875 3.171875 -7.203125 C 3.296875 -7.328125 3.296875 -7.34375 3.296875 -7.375 C 3.296875 -7.453125 3.265625 -7.484375 3.203125 -7.484375 C 3.09375 -7.484375 2.203125 -6.796875 1.609375 -5.53125 C 1.109375 -4.4375 0.984375 -3.328125 0.984375 -2.5 C 0.984375 -1.71875 1.09375 -0.515625 1.640625 0.625 C 2.25 1.84375 3.09375 2.5 3.203125 2.5 C 3.265625 2.5 3.296875 2.46875 3.296875 2.390625 Z M 3.296875 2.390625 "
               style="stroke:none;" />
          </symbol>
          <symbol
             id="textext-9f12a40b-7"
             overflow="visible">
            <path
               id="path29740"
               d="M 2.875 -2.5 C 2.875 -3.265625 2.765625 -4.46875 2.21875 -5.609375 C 1.625 -6.828125 0.765625 -7.484375 0.671875 -7.484375 C 0.609375 -7.484375 0.5625 -7.4375 0.5625 -7.375 C 0.5625 -7.34375 0.5625 -7.328125 0.75 -7.140625 C 1.734375 -6.15625 2.296875 -4.578125 2.296875 -2.5 C 2.296875 -0.78125 1.9375 0.96875 0.703125 2.21875 C 0.5625 2.34375 0.5625 2.359375 0.5625 2.390625 C 0.5625 2.453125 0.609375 2.5 0.671875 2.5 C 0.765625 2.5 1.671875 1.8125 2.25 0.546875 C 2.765625 -0.546875 2.875 -1.65625 2.875 -2.5 Z M 2.875 -2.5 "
               style="stroke:none;" />
          </symbol>
          <symbol
             id="textext-9f12a40b-8"
             overflow="visible">
            <path
               id="path29743"
               d="M 6.84375 -3.265625 C 7 -3.265625 7.1875 -3.265625 7.1875 -3.453125 C 7.1875 -3.65625 7 -3.65625 6.859375 -3.65625 L 0.890625 -3.65625 C 0.75 -3.65625 0.5625 -3.65625 0.5625 -3.453125 C 0.5625 -3.265625 0.75 -3.265625 0.890625 -3.265625 Z M 6.859375 -1.328125 C 7 -1.328125 7.1875 -1.328125 7.1875 -1.53125 C 7.1875 -1.71875 7 -1.71875 6.84375 -1.71875 L 0.890625 -1.71875 C 0.75 -1.71875 0.5625 -1.71875 0.5625 -1.53125 C 0.5625 -1.328125 0.75 -1.328125 0.890625 -1.328125 Z M 6.859375 -1.328125 "
               style="stroke:none;" />
          </symbol>
          <symbol
             id="textext-9f12a40b-9"
             overflow="visible">
            <path
               id="path29746"
               d="M 4.078125 -2.296875 L 6.859375 -2.296875 C 7 -2.296875 7.1875 -2.296875 7.1875 -2.5 C 7.1875 -2.6875 7 -2.6875 6.859375 -2.6875 L 4.078125 -2.6875 L 4.078125 -5.484375 C 4.078125 -5.625 4.078125 -5.8125 3.875 -5.8125 C 3.671875 -5.8125 3.671875 -5.625 3.671875 -5.484375 L 3.671875 -2.6875 L 0.890625 -2.6875 C 0.75 -2.6875 0.5625 -2.6875 0.5625 -2.5 C 0.5625 -2.296875 0.75 -2.296875 0.890625 -2.296875 L 3.671875 -2.296875 L 3.671875 0.5 C 3.671875 0.640625 3.671875 0.828125 3.875 0.828125 C 4.078125 0.828125 4.078125 0.640625 4.078125 0.5 Z M 4.078125 -2.296875 "
               style="stroke:none;" />
          </symbol>
          <symbol
             id="textext-9f12a40b-10"
             overflow="visible">
            <path
               id="path29749"
               d="M 2.9375 -6.375 C 2.9375 -6.625 2.9375 -6.640625 2.703125 -6.640625 C 2.078125 -6 1.203125 -6 0.890625 -6 L 0.890625 -5.6875 C 1.09375 -5.6875 1.671875 -5.6875 2.1875 -5.953125 L 2.1875 -0.78125 C 2.1875 -0.421875 2.15625 -0.3125 1.265625 -0.3125 L 0.953125 -0.3125 L 0.953125 0 C 1.296875 -0.03125 2.15625 -0.03125 2.5625 -0.03125 C 2.953125 -0.03125 3.828125 -0.03125 4.171875 0 L 4.171875 -0.3125 L 3.859375 -0.3125 C 2.953125 -0.3125 2.9375 -0.421875 2.9375 -0.78125 Z M 2.9375 -6.375 "
               style="stroke:none;" />
          </symbol>
          <symbol
             id="textext-9f12a40b-11"
             overflow="visible">
            <path
               id="path29752"
               d="M 4.578125 -3.1875 C 4.578125 -3.984375 4.53125 -4.78125 4.1875 -5.515625 C 3.734375 -6.484375 2.90625 -6.640625 2.5 -6.640625 C 1.890625 -6.640625 1.171875 -6.375 0.75 -5.453125 C 0.4375 -4.765625 0.390625 -3.984375 0.390625 -3.1875 C 0.390625 -2.4375 0.421875 -1.546875 0.84375 -0.78125 C 1.265625 0.015625 2 0.21875 2.484375 0.21875 C 3.015625 0.21875 3.78125 0.015625 4.21875 -0.9375 C 4.53125 -1.625 4.578125 -2.40625 4.578125 -3.1875 Z M 2.484375 0 C 2.09375 0 1.5 -0.25 1.328125 -1.203125 C 1.21875 -1.796875 1.21875 -2.71875 1.21875 -3.3125 C 1.21875 -3.953125 1.21875 -4.609375 1.296875 -5.140625 C 1.484375 -6.328125 2.234375 -6.421875 2.484375 -6.421875 C 2.8125 -6.421875 3.46875 -6.234375 3.65625 -5.25 C 3.765625 -4.6875 3.765625 -3.9375 3.765625 -3.3125 C 3.765625 -2.5625 3.765625 -1.890625 3.65625 -1.25 C 3.5 -0.296875 2.9375 0 2.484375 0 Z M 2.484375 0 "
               style="stroke:none;" />
          </symbol>
          <symbol
             id="textext-9f12a40b-12"
             overflow="visible">
            <path
               id="path29755"
               d="M 1.171875 -2.171875 C 1.171875 -3.796875 1.984375 -4.21875 2.515625 -4.21875 C 2.609375 -4.21875 3.234375 -4.203125 3.578125 -3.84375 C 3.171875 -3.8125 3.109375 -3.515625 3.109375 -3.390625 C 3.109375 -3.125 3.296875 -2.9375 3.5625 -2.9375 C 3.828125 -2.9375 4.03125 -3.09375 4.03125 -3.40625 C 4.03125 -4.078125 3.265625 -4.46875 2.5 -4.46875 C 1.25 -4.46875 0.34375 -3.390625 0.34375 -2.15625 C 0.34375 -0.875 1.328125 0.109375 2.484375 0.109375 C 3.8125 0.109375 4.140625 -1.09375 4.140625 -1.1875 C 4.140625 -1.28125 4.03125 -1.28125 4 -1.28125 C 3.921875 -1.28125 3.890625 -1.25 3.875 -1.1875 C 3.59375 -0.265625 2.9375 -0.140625 2.578125 -0.140625 C 2.046875 -0.140625 1.171875 -0.5625 1.171875 -2.171875 Z M 1.171875 -2.171875 "
               style="stroke:none;" />
          </symbol>
          <symbol
             id="textext-9f12a40b-13"
             overflow="visible">
            <path
               id="path29758"
               d="M 1.90625 -0.53125 C 1.90625 -0.8125 1.671875 -1.0625 1.390625 -1.0625 C 1.09375 -1.0625 0.859375 -0.8125 0.859375 -0.53125 C 0.859375 -0.234375 1.09375 0 1.390625 0 C 1.671875 0 1.90625 -0.234375 1.90625 -0.53125 Z M 1.90625 -0.53125 "
               style="stroke:none;" />
          </symbol>
          <symbol
             id="textext-9f12a40b-14"
             overflow="visible">
            <path
               id="path29761"
               d="M 5.03125 4.515625 C 5.03125 3.703125 5.25 1.796875 7.015625 0.53125 C 7.140625 0.4375 7.15625 0.421875 7.15625 0.25 C 7.15625 0.015625 7.140625 0.015625 6.890625 0.015625 L 6.734375 0.015625 C 4.59375 1.171875 3.828125 3.046875 3.828125 4.515625 L 3.828125 8.796875 C 3.828125 9.0625 3.84375 9.078125 4.109375 9.078125 L 4.75 9.078125 C 5.015625 9.078125 5.03125 9.0625 5.03125 8.796875 Z M 5.03125 4.515625 "
               style="stroke:none;" />
          </symbol>
          <symbol
             id="textext-9f12a40b-15"
             overflow="visible">
            <path
               id="path29764"
               d="M 5.03125 0.171875 C 5.03125 -0.09375 5.015625 -0.09375 4.75 -0.09375 L 4.109375 -0.09375 C 3.84375 -0.09375 3.828125 -0.09375 3.828125 0.171875 L 3.828125 2.828125 C 3.828125 3.078125 3.84375 3.09375 4.109375 3.09375 L 4.75 3.09375 C 5.015625 3.09375 5.03125 3.078125 5.03125 2.828125 Z M 5.03125 0.171875 "
               style="stroke:none;" />
          </symbol>
          <symbol
             id="textext-9f12a40b-16"
             overflow="visible">
            <path
               id="path29767"
               d="M 3.828125 17.78125 C 3.828125 18.03125 3.84375 18.046875 4.109375 18.046875 L 4.75 18.046875 C 5.015625 18.046875 5.03125 18.03125 5.03125 17.78125 L 5.03125 13.5625 C 5.03125 12.359375 4.515625 10.328125 2.28125 8.96875 C 4.53125 7.609375 5.03125 5.546875 5.03125 4.375 L 5.03125 0.171875 C 5.03125 -0.09375 5.015625 -0.09375 4.75 -0.09375 L 4.109375 -0.09375 C 3.84375 -0.09375 3.828125 -0.09375 3.828125 0.171875 L 3.828125 4.390625 C 3.828125 5.21875 3.65625 7.296875 1.8125 8.6875 C 1.703125 8.78125 1.6875 8.796875 1.6875 8.96875 C 1.6875 9.15625 1.703125 9.15625 1.8125 9.25 C 2.078125 9.453125 2.765625 9.984375 3.234375 10.984375 C 3.625 11.78125 3.828125 12.671875 3.828125 13.5625 Z M 3.828125 17.78125 "
               style="stroke:none;" />
          </symbol>
          <symbol
             id="textext-9f12a40b-17"
             overflow="visible">
            <path
               id="path29770"
               d="M 6.890625 8.96875 C 7.140625 8.96875 7.15625 8.953125 7.15625 8.71875 C 7.15625 8.546875 7.140625 8.53125 7.109375 8.5 C 6.796875 8.28125 6.078125 7.765625 5.609375 6.84375 C 5.21875 6.09375 5.03125 5.328125 5.03125 4.453125 L 5.03125 0.171875 C 5.03125 -0.09375 5.015625 -0.09375 4.75 -0.09375 L 4.109375 -0.09375 C 3.84375 -0.09375 3.828125 -0.09375 3.828125 0.171875 L 3.828125 4.453125 C 3.828125 5.9375 4.59375 7.8125 6.734375 8.96875 Z M 6.890625 8.96875 "
               style="stroke:none;" />
          </symbol>
          <symbol
             id="textext-9f12a40b-18"
             overflow="visible">
            <path
               id="path29773"
               d="M 5.140625 17.421875 C 5.15625 17.4375 5.25 17.53125 5.25 17.53125 L 5.46875 17.53125 C 5.5 17.53125 5.578125 17.53125 5.578125 17.4375 C 5.578125 17.390625 5.5625 17.375 5.546875 17.34375 C 5.1875 16.984375 4.640625 16.4375 4.03125 15.34375 C 2.953125 13.421875 2.546875 10.96875 2.546875 8.578125 C 2.546875 4.140625 3.8125 1.546875 5.546875 -0.21875 C 5.578125 -0.25 5.578125 -0.28125 5.578125 -0.296875 C 5.578125 -0.40625 5.515625 -0.40625 5.390625 -0.40625 C 5.265625 -0.40625 5.25 -0.40625 5.15625 -0.3125 C 4.203125 0.5 3.140625 1.890625 2.453125 3.984375 C 2.03125 5.296875 1.796875 6.90625 1.796875 8.5625 C 1.796875 10.921875 2.21875 13.59375 3.78125 15.90625 C 4.0625 16.296875 4.421875 16.703125 4.421875 16.71875 C 4.53125 16.84375 4.671875 17 4.75 17.0625 Z M 5.140625 17.421875 "
               style="stroke:none;" />
          </symbol>
          <symbol
             id="textext-9f12a40b-19"
             overflow="visible">
            <path
               id="path29776"
               d="M 4.140625 8.5625 C 4.140625 5.703125 3.484375 2.65625 1.515625 0.421875 C 1.375 0.265625 1 -0.125 0.765625 -0.34375 C 0.703125 -0.40625 0.671875 -0.40625 0.546875 -0.40625 C 0.453125 -0.40625 0.359375 -0.40625 0.359375 -0.296875 C 0.359375 -0.265625 0.40625 -0.21875 0.421875 -0.203125 C 0.75 0.15625 1.296875 0.703125 1.90625 1.796875 C 2.984375 3.703125 3.390625 6.171875 3.390625 8.5625 C 3.390625 12.890625 2.1875 15.53125 0.40625 17.359375 C 0.375 17.375 0.359375 17.40625 0.359375 17.4375 C 0.359375 17.53125 0.453125 17.53125 0.546875 17.53125 C 0.671875 17.53125 0.703125 17.53125 0.78125 17.453125 C 1.734375 16.640625 2.796875 15.25 3.484375 13.15625 C 3.921875 11.78125 4.140625 10.171875 4.140625 8.5625 Z M 4.140625 8.5625 "
               style="stroke:none;" />
          </symbol>
          <symbol
             id="textext-9f12a40b-20"
             overflow="visible">
            <path
               id="path29779"
               d="M 2.015625 11.546875 L 4.46875 11.546875 L 4.46875 11.15625 L 2.40625 11.15625 L 2.40625 -0.40625 L 2.015625 -0.40625 Z M 2.015625 11.546875 "
               style="stroke:none;" />
          </symbol>
          <symbol
             id="textext-9f12a40b-21"
             overflow="visible">
            <path
               id="path29782"
               d="M 2.6875 11.546875 L 2.6875 -0.40625 L 2.28125 -0.40625 L 2.28125 11.15625 L 0.21875 11.15625 L 0.21875 11.546875 Z M 2.6875 11.546875 "
               style="stroke:none;" />
          </symbol>
          <symbol
             id="textext-9f12a40b-22"
             overflow="visible">
            <path
               id="path29785"
               d="M 3.84375 2.5 C 4 2.5 4.203125 2.5 4.203125 2.296875 C 4.203125 2.09375 4 2.09375 3.84375 2.09375 L 2.140625 2.09375 L 2.140625 -7.125 C 2.140625 -7.296875 2.140625 -7.484375 1.9375 -7.484375 C 1.734375 -7.484375 1.734375 -7.265625 1.734375 -7.125 L 1.734375 2.140625 C 1.734375 2.453125 1.78125 2.5 2.09375 2.5 Z M 3.84375 2.5 "
               style="stroke:none;" />
          </symbol>
          <symbol
             id="textext-9f12a40b-23"
             overflow="visible">
            <path
               id="path29788"
               d="M 2.6875 -7.125 C 2.6875 -7.296875 2.6875 -7.484375 2.484375 -7.484375 C 2.28125 -7.484375 2.28125 -7.265625 2.28125 -7.125 L 2.28125 2.09375 L 0.5625 2.09375 C 0.421875 2.09375 0.203125 2.09375 0.203125 2.296875 C 0.203125 2.5 0.421875 2.5 0.5625 2.5 L 2.328125 2.5 C 2.65625 2.5 2.6875 2.46875 2.6875 2.140625 Z M 2.6875 -7.125 "
               style="stroke:none;" />
          </symbol>
          <symbol
             id="textext-9f12a40b-24"
             overflow="visible">
            <path
               id="path29791"
               d="M 3.09375 -1.953125 C 2.859375 -1.890625 2.859375 -1.671875 2.859375 -1.65625 C 2.859375 -1.578125 2.921875 -1.453125 3.09375 -1.453125 C 3.234375 -1.453125 3.40625 -1.578125 3.40625 -1.796875 C 3.40625 -2.09375 3.078125 -2.203125 2.8125 -2.203125 C 2.484375 -2.203125 2.265625 -2 2.171875 -1.859375 C 2.015625 -2.140625 1.6875 -2.203125 1.515625 -2.203125 C 0.890625 -2.203125 0.53125 -1.609375 0.53125 -1.4375 C 0.53125 -1.359375 0.609375 -1.359375 0.640625 -1.359375 C 0.6875 -1.359375 0.71875 -1.359375 0.75 -1.421875 C 0.890625 -1.90625 1.296875 -2.03125 1.484375 -2.03125 C 1.65625 -2.03125 1.84375 -1.96875 1.84375 -1.703125 C 1.84375 -1.578125 1.75 -1.234375 1.578125 -0.5625 C 1.515625 -0.28125 1.28125 -0.109375 1.0625 -0.109375 C 1.03125 -0.109375 0.890625 -0.109375 0.765625 -0.1875 C 0.984375 -0.28125 0.984375 -0.46875 0.984375 -0.484375 C 0.984375 -0.625 0.875 -0.6875 0.765625 -0.6875 C 0.640625 -0.6875 0.46875 -0.59375 0.46875 -0.359375 C 0.46875 -0.046875 0.796875 0.0625 1.0625 0.0625 C 1.328125 0.0625 1.5625 -0.109375 1.671875 -0.28125 C 1.875 0.015625 2.1875 0.0625 2.34375 0.0625 C 2.96875 0.0625 3.328125 -0.53125 3.328125 -0.71875 C 3.328125 -0.78125 3.25 -0.78125 3.21875 -0.78125 C 3.140625 -0.78125 3.125 -0.75 3.109375 -0.71875 C 2.96875 -0.265625 2.59375 -0.109375 2.375 -0.109375 C 2.21875 -0.109375 2.015625 -0.171875 2.015625 -0.453125 C 2.015625 -0.515625 2.015625 -0.546875 2.046875 -0.71875 C 2.140625 -1.0625 2.265625 -1.609375 2.3125 -1.703125 C 2.375 -1.828125 2.546875 -2.03125 2.796875 -2.03125 C 2.8125 -2.03125 2.984375 -2.03125 3.09375 -1.953125 Z M 3.09375 -1.953125 "
               style="stroke:none;" />
          </symbol>
          <symbol
             id="textext-9f12a40b-25"
             overflow="visible">
            <path
               id="path29794"
               d="M 4.015625 -1.78125 C 4.015625 -1.96875 3.9375 -2.203125 3.71875 -2.203125 C 3.578125 -2.203125 3.421875 -2.0625 3.421875 -1.921875 C 3.421875 -1.71875 3.71875 -1.703125 3.71875 -1.359375 C 3.71875 -0.96875 3.28125 -0.375 2.796875 -0.375 C 2.546875 -0.375 2.3125 -0.5 2.203125 -0.734375 C 2.265625 -0.859375 2.390625 -1.125 2.390625 -1.28125 C 2.390625 -1.390625 2.359375 -1.46875 2.234375 -1.46875 C 1.9375 -1.46875 1.921875 -0.953125 1.921875 -0.75 C 1.78125 -0.546875 1.453125 -0.390625 1.203125 -0.390625 C 0.859375 -0.390625 0.625 -0.625 0.625 -0.96875 C 0.625 -1.484375 1.15625 -1.953125 1.15625 -2.046875 C 1.15625 -2.140625 1.09375 -2.171875 1.015625 -2.171875 C 0.96875 -2.171875 0.9375 -2.140625 0.90625 -2.109375 C 0.609375 -1.75 0.40625 -1.28125 0.40625 -0.8125 C 0.40625 -0.375 0.625 0.0625 1.125 0.0625 C 1.53125 0.0625 1.8125 -0.203125 2.015625 -0.421875 C 2.15625 -0.0625 2.46875 0.0625 2.734375 0.0625 C 3.25 0.0625 3.59375 -0.40625 3.796875 -0.875 C 3.9375 -1.203125 4.015625 -1.5625 4.015625 -1.78125 Z M 4.015625 -1.78125 "
               style="stroke:none;" />
          </symbol>
          <symbol
             id="textext-9f12a40b-26"
             overflow="visible">
            <path
               id="path29797"
               d="M 4.390625 -1.109375 C 4.46875 -1.109375 4.59375 -1.109375 4.59375 -1.25 C 4.59375 -1.390625 4.46875 -1.390625 4.390625 -1.390625 L 1.015625 -1.390625 C 0.9375 -1.390625 0.796875 -1.390625 0.796875 -1.25 C 0.796875 -1.109375 0.9375 -1.109375 1.015625 -1.109375 Z M 4.390625 -1.109375 "
               style="stroke:none;" />
          </symbol>
          <symbol
             id="textext-9f12a40b-27"
             overflow="visible">
            <path
               id="path29800"
               d="M 1.984375 -3.171875 C 1.984375 -3.3125 1.96875 -3.3125 1.796875 -3.3125 C 1.453125 -3 0.890625 -3 0.796875 -3 L 0.71875 -3 L 0.71875 -2.78125 L 0.796875 -2.78125 C 0.90625 -2.78125 1.234375 -2.796875 1.53125 -2.921875 L 1.53125 -0.421875 C 1.53125 -0.28125 1.53125 -0.21875 1 -0.21875 L 0.75 -0.21875 L 0.75 0 C 1.015625 -0.015625 1.46875 -0.015625 1.75 -0.015625 C 2.046875 -0.015625 2.484375 -0.015625 2.765625 0 L 2.765625 -0.21875 L 2.515625 -0.21875 C 1.984375 -0.21875 1.984375 -0.28125 1.984375 -0.421875 Z M 1.984375 -3.171875 "
               style="stroke:none;" />
          </symbol>
          <symbol
             id="textext-9f12a40b-28"
             overflow="visible">
            <path
               id="path29803"
               d="M 1.734375 -0.734375 C 1.671875 -0.5 1.4375 -0.125 1.078125 -0.125 C 1.0625 -0.125 0.84375 -0.125 0.703125 -0.21875 C 0.984375 -0.3125 1.015625 -0.5625 1.015625 -0.609375 C 1.015625 -0.765625 0.890625 -0.859375 0.734375 -0.859375 C 0.53125 -0.859375 0.328125 -0.703125 0.328125 -0.4375 C 0.328125 -0.09375 0.71875 0.0625 1.0625 0.0625 C 1.390625 0.0625 1.671875 -0.125 1.84375 -0.421875 C 2.015625 -0.0625 2.390625 0.0625 2.671875 0.0625 C 3.484375 0.0625 3.90625 -0.796875 3.90625 -1 C 3.90625 -1.09375 3.8125 -1.09375 3.796875 -1.09375 C 3.6875 -1.09375 3.6875 -1.046875 3.65625 -0.96875 C 3.515625 -0.484375 3.09375 -0.125 2.703125 -0.125 C 2.421875 -0.125 2.28125 -0.3125 2.28125 -0.578125 C 2.28125 -0.765625 2.453125 -1.390625 2.640625 -2.171875 C 2.78125 -2.703125 3.09375 -2.875 3.328125 -2.875 C 3.34375 -2.875 3.546875 -2.875 3.703125 -2.78125 C 3.484375 -2.71875 3.390625 -2.515625 3.390625 -2.390625 C 3.390625 -2.25 3.515625 -2.140625 3.671875 -2.140625 C 3.828125 -2.140625 4.0625 -2.265625 4.0625 -2.5625 C 4.0625 -2.953125 3.609375 -3.078125 3.34375 -3.078125 C 2.984375 -3.078125 2.703125 -2.84375 2.5625 -2.578125 C 2.4375 -2.859375 2.109375 -3.078125 1.71875 -3.078125 C 0.9375 -3.078125 0.5 -2.21875 0.5 -2 C 0.5 -1.921875 0.59375 -1.921875 0.609375 -1.921875 C 0.703125 -1.921875 0.703125 -1.9375 0.75 -2.03125 C 0.921875 -2.578125 1.359375 -2.875 1.703125 -2.875 C 1.9375 -2.875 2.125 -2.75 2.125 -2.421875 C 2.125 -2.28125 2.03125 -1.9375 1.96875 -1.6875 Z M 1.734375 -0.734375 "
               style="stroke:none;" />
          </symbol>
          <symbol
             id="textext-9f12a40b-29"
             overflow="visible">
            <path
               id="path29806"
               d="M 4.765625 -2.578125 C 4.765625 -2.78125 4.671875 -3.078125 4.390625 -3.078125 C 4.21875 -3.078125 4.03125 -2.859375 4.03125 -2.6875 C 4.03125 -2.453125 4.40625 -2.40625 4.40625 -1.9375 C 4.40625 -1.484375 3.953125 -0.484375 3.171875 -0.484375 C 2.84375 -0.484375 2.5625 -0.71875 2.46875 -1.03125 C 2.5625 -1.171875 2.71875 -1.65625 2.71875 -1.84375 C 2.71875 -1.9375 2.65625 -2.046875 2.546875 -2.046875 C 2.1875 -2.046875 2.15625 -1.296875 2.15625 -1.046875 C 1.96875 -0.796875 1.609375 -0.484375 1.15625 -0.484375 C 0.78125 -0.484375 0.515625 -0.828125 0.515625 -1.296875 C 0.515625 -2.109375 1.21875 -2.78125 1.21875 -2.890625 C 1.21875 -2.96875 1.15625 -3.046875 1.078125 -3.046875 C 1.015625 -3.046875 0.96875 -3.015625 0.921875 -2.953125 C 0.828125 -2.84375 0.734375 -2.6875 0.65625 -2.546875 C 0.40625 -2.125 0.234375 -1.546875 0.234375 -1.03125 C 0.234375 -0.484375 0.453125 0.0625 1.09375 0.0625 C 1.5625 0.0625 1.96875 -0.234375 2.21875 -0.609375 C 2.359375 -0.1875 2.65625 0.0625 3.109375 0.0625 C 4.328125 0.0625 4.765625 -2 4.765625 -2.578125 Z M 4.765625 -2.578125 "
               style="stroke:none;" />
          </symbol>
          <symbol
             id="textext-9f12a40b-30"
             overflow="visible">
            <path
               id="path29809"
               d="M 5.1875 -1.578125 C 5.296875 -1.578125 5.46875 -1.578125 5.46875 -1.734375 C 5.46875 -1.921875 5.296875 -1.921875 5.1875 -1.921875 L 1.03125 -1.921875 C 0.921875 -1.921875 0.75 -1.921875 0.75 -1.75 C 0.75 -1.578125 0.90625 -1.578125 1.03125 -1.578125 Z M 5.1875 -1.578125 "
               style="stroke:none;" />
          </symbol>
          <symbol
             id="textext-9f12a40b-31"
             overflow="visible">
            <path
               id="path29812"
               d="M 2.328125 -4.4375 C 2.328125 -4.625 2.328125 -4.625 2.125 -4.625 C 1.671875 -4.1875 1.046875 -4.1875 0.765625 -4.1875 L 0.765625 -3.9375 C 0.921875 -3.9375 1.390625 -3.9375 1.765625 -4.125 L 1.765625 -0.578125 C 1.765625 -0.34375 1.765625 -0.25 1.078125 -0.25 L 0.8125 -0.25 L 0.8125 0 C 0.9375 0 1.796875 -0.03125 2.046875 -0.03125 C 2.265625 -0.03125 3.140625 0 3.296875 0 L 3.296875 -0.25 L 3.03125 -0.25 C 2.328125 -0.25 2.328125 -0.34375 2.328125 -0.578125 Z M 2.328125 -4.4375 "
               style="stroke:none;" />
          </symbol>
        </g>
      </defs>
      <g
         id="textext-9f12a40b-32">
        <g
           id="g29815"
           style="fill:rgb(0%,0%,0%);fill-opacity:1;">
          <use
             id="use29817"
             y="148.215"
             x="223.432"
             xlink:href="#textext-9f12a40b-0" />
        </g>
        <g
           id="g29819"
           style="fill:rgb(0%,0%,0%);fill-opacity:1;">
          <use
             id="use29821"
             y="148.215"
             x="229.382"
             xlink:href="#textext-9f12a40b-6" />
        </g>
        <g
           id="g29823"
           style="fill:rgb(0%,0%,0%);fill-opacity:1;">
          <use
             id="use29825"
             y="148.215"
             x="233.256"
             xlink:href="#textext-9f12a40b-1" />
        </g>
        <g
           id="g29827"
           style="fill:rgb(0%,0%,0%);fill-opacity:1;">
          <use
             id="use29829"
             y="148.215"
             x="238.95"
             xlink:href="#textext-9f12a40b-7" />
        </g>
        <g
           id="g29831"
           style="fill:rgb(0%,0%,0%);fill-opacity:1;">
          <use
             id="use29833"
             y="148.215"
             x="245.594058"
             xlink:href="#textext-9f12a40b-8" />
        </g>
        <g
           id="g29835"
           style="fill:rgb(0%,0%,0%);fill-opacity:1;">
          <use
             id="use29837"
             y="124.802"
             x="256.108"
             xlink:href="#textext-9f12a40b-14" />
        </g>
        <g
           id="g29839"
           style="fill:rgb(0%,0%,0%);fill-opacity:1;">
          <use
             id="use29841"
             y="133.769"
             x="256.108"
             xlink:href="#textext-9f12a40b-15" />
        </g>
        <g
           id="g29843"
           style="fill:rgb(0%,0%,0%);fill-opacity:1;">
          <use
             id="use29845"
             y="136.758"
             x="256.108"
             xlink:href="#textext-9f12a40b-16" />
        </g>
        <g
           id="g29847"
           style="fill:rgb(0%,0%,0%);fill-opacity:1;">
          <use
             id="use29849"
             y="154.69"
             x="256.108"
             xlink:href="#textext-9f12a40b-15" />
        </g>
        <g
           id="g29851"
           style="fill:rgb(0%,0%,0%);fill-opacity:1;">
          <use
             id="use29853"
             y="157.679"
             x="256.108"
             xlink:href="#textext-9f12a40b-17" />
        </g>
        <g
           id="g29855"
           style="fill:rgb(0%,0%,0%);fill-opacity:1;">
          <use
             id="use29857"
             y="125.536"
             x="269.945"
             xlink:href="#textext-9f12a40b-18" />
        </g>
        <g
           id="g29859"
           style="fill:rgb(0%,0%,0%);fill-opacity:1;">
          <use
             id="use29861"
             y="136.595"
             x="275.895"
             xlink:href="#textext-9f12a40b-2" />
        </g>
        <g
           id="g29863"
           style="fill:rgb(0%,0%,0%);fill-opacity:1;">
          <use
             id="use29865"
             y="140.635"
             x="280.206"
             xlink:href="#textext-9f12a40b-22" />
        </g>
        <g
           id="g29867"
           style="fill:rgb(0%,0%,0%);fill-opacity:1;">
          <use
             id="use29869"
             y="136.717"
             x="285.83"
             xlink:href="#textext-9f12a40b-24" />
        </g>
        <g
           id="g29871"
           style="fill:rgb(0%,0%,0%);fill-opacity:1;">
          <use
             id="use29873"
             y="136.717"
             x="289.773"
             xlink:href="#textext-9f12a40b-26" />
        </g>
        <g
           id="g29875"
           style="fill:rgb(0%,0%,0%);fill-opacity:1;">
          <use
             id="use29877"
             y="136.717"
             x="295.17"
             xlink:href="#textext-9f12a40b-27" />
        </g>
        <path
           id="path29879"
           transform="matrix(1,0,0,-1,285.83,138.145)"
           d="M -0.33 -0.355 L 12.67 -0.355 "
           style="fill:none;stroke-width:1;stroke-linecap:butt;stroke-linejoin:miter;stroke:rgb(0%,0%,0%);stroke-opacity:1;stroke-miterlimit:10;" />
        <g
           id="g29881"
           style="fill:rgb(0%,0%,0%);fill-opacity:1;">
          <use
             id="use29883"
             y="142.289"
             x="289.898"
             xlink:href="#textext-9f12a40b-25" />
        </g>
        <g
           id="g29885"
           style="fill:rgb(0%,0%,0%);fill-opacity:1;">
          <use
             id="use29887"
             y="140.635"
             x="299.756"
             xlink:href="#textext-9f12a40b-23" />
        </g>
        <g
           id="g29889"
           style="fill:rgb(0%,0%,0%);fill-opacity:1;">
          <use
             id="use29891"
             y="136.595"
             x="306.895"
             xlink:href="#textext-9f12a40b-9" />
        </g>
        <g
           id="g29893"
           style="fill:rgb(0%,0%,0%);fill-opacity:1;">
          <use
             id="use29895"
             y="136.595"
             x="316.855607"
             xlink:href="#textext-9f12a40b-10" />
        </g>
        <g
           id="g29897"
           style="fill:rgb(0%,0%,0%);fill-opacity:1;">
          <use
             id="use29899"
             y="125.536"
             x="321.839"
             xlink:href="#textext-9f12a40b-19" />
        </g>
        <g
           id="g29901"
           style="fill:rgb(0%,0%,0%);fill-opacity:1;">
          <use
             id="use29903"
             y="136.595"
             x="329.45"
             xlink:href="#textext-9f12a40b-3" />
        </g>
        <g
           id="g29905"
           style="fill:rgb(0%,0%,0%);fill-opacity:1;">
          <use
             id="use29907"
             y="136.595"
             x="345.825526"
             xlink:href="#textext-9f12a40b-4" />
        </g>
        <g
           id="g29909"
           style="fill:rgb(0%,0%,0%);fill-opacity:1;">
          <use
             id="use29911"
             y="128.525"
             x="350.25"
             xlink:href="#textext-9f12a40b-20" />
        </g>
        <g
           id="g29913"
           style="fill:rgb(0%,0%,0%);fill-opacity:1;">
          <use
             id="use29915"
             y="132.672"
             x="356.15"
             xlink:href="#textext-9f12a40b-28" />
        </g>
        <g
           id="g29917"
           style="fill:rgb(0%,0%,0%);fill-opacity:1;">
          <use
             id="use29919"
             y="132.672"
             x="360.668"
             xlink:href="#textext-9f12a40b-30" />
        </g>
        <g
           id="g29921"
           style="fill:rgb(0%,0%,0%);fill-opacity:1;">
          <use
             id="use29923"
             y="132.672"
             x="366.895"
             xlink:href="#textext-9f12a40b-31" />
        </g>
        <path
           id="path29925"
           transform="matrix(1,0,0,-1,356.15,134.104)"
           d="M 0.35 -0.396 L 14.35 -0.396 "
           style="fill:none;stroke-width:1;stroke-linecap:butt;stroke-linejoin:miter;stroke:rgb(0%,0%,0%);stroke-opacity:1;stroke-miterlimit:10;" />
        <g
           id="g29927"
           style="fill:rgb(0%,0%,0%);fill-opacity:1;">
          <use
             id="use29929"
             y="140.031"
             x="360.873"
             xlink:href="#textext-9f12a40b-29" />
        </g>
        <g
           id="g29931"
           style="fill:rgb(0%,0%,0%);fill-opacity:1;">
          <use
             id="use29933"
             y="128.525"
             x="372.061"
             xlink:href="#textext-9f12a40b-21" />
        </g>
        <g
           id="g29935"
           style="fill:rgb(0%,0%,0%);fill-opacity:1;">
          <use
             id="use29937"
             y="136.595"
             x="379.533"
             xlink:href="#textext-9f12a40b-5" />
        </g>
        <g
           id="g29939"
           style="fill:rgb(0%,0%,0%);fill-opacity:1;">
          <use
             id="use29941"
             y="136.595"
             x="390.049"
             xlink:href="#textext-9f12a40b-11" />
        </g>
        <g
           id="g29943"
           style="fill:rgb(0%,0%,0%);fill-opacity:1;">
          <use
             id="use29945"
             y="162.723"
             x="269.945"
             xlink:href="#textext-9f12a40b-11" />
        </g>
        <g
           id="g29947"
           style="fill:rgb(0%,0%,0%);fill-opacity:1;">
          <use
             id="use29949"
             y="162.723"
             x="345.822"
             xlink:href="#textext-9f12a40b-4" />
        </g>
        <g
           id="g29951"
           style="fill:rgb(0%,0%,0%);fill-opacity:1;">
          <use
             id="use29953"
             y="162.723"
             x="350.25"
             xlink:href="#textext-9f12a40b-12" />
          <use
             id="use29955"
             y="162.723"
             x="354.677379"
             xlink:href="#textext-9f12a40b-13" />
          <use
             id="use29957"
             y="162.723"
             x="357.44499"
             xlink:href="#textext-9f12a40b-12" />
        </g>
      </g>
    </g>
  </g>
</svg>
