<?xml version="1.0" encoding="UTF-8" standalone="no"?>
<!-- Created with Inkscape (http://www.inkscape.org/) -->

<svg
   xmlns:ns0="http://www.iki.fi/pav/software/textext/"
   xmlns:dc="http://purl.org/dc/elements/1.1/"
   xmlns:cc="http://creativecommons.org/ns#"
   xmlns:rdf="http://www.w3.org/1999/02/22-rdf-syntax-ns#"
   xmlns:svg="http://www.w3.org/2000/svg"
   xmlns="http://www.w3.org/2000/svg"
   xmlns:xlink="http://www.w3.org/1999/xlink"
   xmlns:sodipodi="http://sodipodi.sourceforge.net/DTD/sodipodi-0.dtd"
   xmlns:inkscape="http://www.inkscape.org/namespaces/inkscape"
   width="92.517639"
   height="36.612976"
   id="svg8172"
   version="1.1"
   inkscape:version="0.48.3.1 r9886"
   sodipodi:docname="comutatividadeMult.svg"
   inkscape:export-filename="/home/kite/Dropbox/private/documentos/relatorioTccOdemir/apresentacaoCurtaTcc2/img/pontoFixoCon.png"
   inkscape:export-xdpi="90.409485"
   inkscape:export-ydpi="90.409485">
  <sodipodi:namedview
     id="base"
     pagecolor="#ffffff"
     bordercolor="#666666"
     borderopacity="1.0"
     inkscape:pageopacity="0.0"
     inkscape:pageshadow="2"
     inkscape:zoom="3.3319985"
     inkscape:cx="168.59811"
     inkscape:cy="20.930672"
     inkscape:document-units="px"
     inkscape:current-layer="svg8172"
     showgrid="false"
     inkscape:window-width="1366"
     inkscape:window-height="709"
     inkscape:window-x="0"
     inkscape:window-y="27"
     inkscape:window-maximized="1"
     fit-margin-top="0"
     fit-margin-left="0"
     fit-margin-right="0"
     fit-margin-bottom="0" />
  <defs
     id="defs8174" />
  <metadata
     id="metadata8177">
    <rdf:RDF>
      <cc:Work
         rdf:about="">
        <dc:format>image/svg+xml</dc:format>
        <dc:type
           rdf:resource="http://purl.org/dc/dcmitype/StillImage" />
        <dc:title />
      </cc:Work>
    </rdf:RDF>
  </metadata>
  <g
     inkscape:label="Layer 1"
     inkscape:groupmode="layer"
     id="layer1"
     transform="translate(-11.355697,-23.690307)" />
  <g
     transform="translate(-224.03836,-127.28062)"
     ns0:text="$(a \\star b) \\star c \\neq a \\star (b  \\star c)$"
     ns0:preamble=""
     id="g3305">
    <defs
       id="defs3307">
      <g
         id="g3309">
        <symbol
           style="overflow:visible"
           overflow="visible"
           id="textext-c29e393b-0">
          <path
             inkscape:connector-curvature="0"
             style="stroke:none"
             d="m 3.296875,2.390625 c 0,-0.03125 0,-0.046875 -0.171875,-0.21875 C 1.890625,0.921875 1.5625,-0.96875 1.5625,-2.5 c 0,-1.734375 0.375,-3.46875 1.609375,-4.703125 0.125,-0.125 0.125,-0.140625 0.125,-0.171875 0,-0.078125 -0.03125,-0.109375 -0.09375,-0.109375 -0.109375,0 -1,0.6875 -1.59375,1.953125 -0.5,1.09375 -0.625,2.203125 -0.625,3.03125 0,0.78125 0.109375,1.984375 0.65625,3.125 C 2.25,1.84375 3.09375,2.5 3.203125,2.5 c 0.0625,0 0.09375,-0.03125 0.09375,-0.109375 z m 0,0"
             id="path3312" />
        </symbol>
        <symbol
           style="overflow:visible"
           overflow="visible"
           id="textext-c29e393b-1">
          <path
             inkscape:connector-curvature="0"
             style="stroke:none"
             d="m 2.875,-2.5 c 0,-0.765625 -0.109375,-1.96875 -0.65625,-3.109375 -0.59375,-1.21875 -1.453125,-1.875 -1.546875,-1.875 -0.0625,0 -0.109375,0.046875 -0.109375,0.109375 0,0.03125 0,0.046875 0.1875,0.234375 0.984375,0.984375 1.546875,2.5625 1.546875,4.640625 0,1.71875 -0.359375,3.46875 -1.59375,4.71875 C 0.5625,2.34375 0.5625,2.359375 0.5625,2.390625 0.5625,2.453125 0.609375,2.5 0.671875,2.5 0.765625,2.5 1.671875,1.8125 2.25,0.546875 2.765625,-0.546875 2.875,-1.65625 2.875,-2.5 z m 0,0"
             id="path3315" />
        </symbol>
        <symbol
           style="overflow:visible"
           overflow="visible"
           id="textext-c29e393b-2">
          <path
             inkscape:connector-curvature="0"
             style="stroke:none"
             d="m 6.84375,-3.265625 c 0.15625,0 0.34375,0 0.34375,-0.1875 C 7.1875,-3.65625 7,-3.65625 6.859375,-3.65625 l -5.96875,0 c -0.140625,0 -0.328125,0 -0.328125,0.203125 0,0.1875 0.1875,0.1875 0.328125,0.1875 z m 0.015625,1.9375 c 0.140625,0 0.328125,0 0.328125,-0.203125 0,-0.1875 -0.1875,-0.1875 -0.34375,-0.1875 l -5.953125,0 c -0.140625,0 -0.328125,0 -0.328125,0.1875 0,0.203125 0.1875,0.203125 0.328125,0.203125 z m 0,0"
             id="path3318" />
        </symbol>
        <symbol
           style="overflow:visible"
           overflow="visible"
           id="textext-c29e393b-3">
          <path
             inkscape:connector-curvature="0"
             style="stroke:none"
             d="M 3.71875,-3.765625 C 3.53125,-4.140625 3.25,-4.40625 2.796875,-4.40625 c -1.15625,0 -2.390625,1.46875 -2.390625,2.921875 0,0.9375 0.546875,1.59375 1.3125,1.59375 0.203125,0 0.703125,-0.046875 1.296875,-0.75 0.078125,0.421875 0.4375,0.75 0.90625,0.75 0.359375,0 0.578125,-0.234375 0.75,-0.546875 0.15625,-0.359375 0.296875,-0.96875 0.296875,-0.984375 0,-0.109375 -0.09375,-0.109375 -0.125,-0.109375 -0.09375,0 -0.109375,0.046875 -0.140625,0.1875 -0.171875,0.640625 -0.34375,1.234375 -0.75,1.234375 -0.28125,0 -0.296875,-0.265625 -0.296875,-0.453125 0,-0.21875 0.015625,-0.3125 0.125,-0.75 C 3.890625,-1.71875 3.90625,-1.828125 4,-2.203125 L 4.359375,-3.59375 c 0.0625,-0.28125 0.0625,-0.296875 0.0625,-0.34375 0,-0.171875 -0.109375,-0.265625 -0.28125,-0.265625 -0.25,0 -0.390625,0.21875 -0.421875,0.4375 z M 3.078125,-1.1875 C 3.015625,-1 3.015625,-0.984375 2.875,-0.8125 2.4375,-0.265625 2.03125,-0.109375 1.75,-0.109375 c -0.5,0 -0.640625,-0.546875 -0.640625,-0.9375 0,-0.5 0.3125,-1.71875 0.546875,-2.1875 0.3125,-0.578125 0.75,-0.953125 1.15625,-0.953125 0.640625,0 0.78125,0.8125 0.78125,0.875 0,0.0625 -0.015625,0.125 -0.03125,0.171875 z m 0,0"
             id="path3322" />
        </symbol>
        <symbol
           style="overflow:visible"
           overflow="visible"
           id="textext-c29e393b-4">
          <path
             inkscape:connector-curvature="0"
             style="stroke:none"
             d="m 2.375,-1.5625 c 0.015625,-0.015625 0.09375,-0.09375 0.125,-0.09375 0.03125,0 0.40625,0.4375 0.484375,0.515625 0.28125,0.3125 0.578125,0.625 0.875,0.9375 0.03125,0.046875 0.0625,0.046875 0.078125,0.046875 0.078125,0 0.109375,-0.078125 0.109375,-0.109375 0,-0.046875 -0.3125,-0.59375 -0.59375,-1.09375 L 3.0625,-2.078125 4.796875,-2.875 C 4.9375,-2.953125 4.9375,-2.984375 4.9375,-3.03125 4.9375,-3.078125 4.90625,-3.125 4.828125,-3.125 c 0,0 -0.484375,0.078125 -1.984375,0.390625 l -0.234375,-1.875 C 2.59375,-4.796875 2.578125,-4.828125 2.5,-4.828125 c -0.09375,0 -0.125,0.046875 -0.140625,0.21875 l -0.21875,1.875 -1.84375,-0.375 C 0.25,-3.125 0.171875,-3.125 0.15625,-3.125 c -0.078125,0 -0.109375,0.046875 -0.109375,0.09375 0,0.078125 0.046875,0.09375 0.15625,0.15625 L 1.9375,-2.078125 1,-0.421875 c -0.046875,0.109375 -0.0625,0.125 -0.0625,0.15625 0,0.03125 0.03125,0.109375 0.109375,0.109375 0.015625,0 0.046875,0 0.15625,-0.109375 z m 0,0"
             id="path3326" />
        </symbol>
        <symbol
           style="overflow:visible"
           overflow="visible"
           id="textext-c29e393b-5">
          <path
             inkscape:connector-curvature="0"
             style="stroke:none"
             d="m 2.375,-6.8125 c 0,0 0,-0.109375 -0.125,-0.109375 -0.21875,0 -0.953125,0.078125 -1.21875,0.109375 -0.078125,0 -0.1875,0.015625 -0.1875,0.1875 0,0.125 0.09375,0.125 0.25,0.125 0.46875,0 0.484375,0.0625 0.484375,0.171875 0,0.0625 -0.078125,0.40625 -0.125,0.609375 l -0.828125,3.25 c -0.109375,0.5 -0.15625,0.671875 -0.15625,1.015625 0,0.9375 0.53125,1.5625 1.265625,1.5625 1.171875,0 2.40625,-1.484375 2.40625,-2.921875 0,-0.90625 -0.53125,-1.59375 -1.328125,-1.59375 -0.453125,0 -0.875,0.296875 -1.171875,0.59375 z M 1.453125,-3.046875 C 1.5,-3.265625 1.5,-3.28125 1.59375,-3.390625 2.078125,-4.03125 2.53125,-4.1875 2.796875,-4.1875 c 0.359375,0 0.625,0.296875 0.625,0.9375 0,0.59375 -0.328125,1.734375 -0.515625,2.109375 -0.328125,0.671875 -0.78125,1.03125 -1.171875,1.03125 -0.34375,0 -0.671875,-0.265625 -0.671875,-1 0,-0.203125 0,-0.390625 0.15625,-1.015625 z m 0,0"
             id="path3329" />
        </symbol>
        <symbol
           style="overflow:visible"
           overflow="visible"
           id="textext-c29e393b-6">
          <path
             inkscape:connector-curvature="0"
             style="stroke:none"
             d="m 3.953125,-3.78125 c -0.171875,0 -0.296875,0 -0.4375,0.125 -0.171875,0.15625 -0.1875,0.328125 -0.1875,0.390625 0,0.25 0.1875,0.359375 0.375,0.359375 0.28125,0 0.546875,-0.25 0.546875,-0.640625 0,-0.484375 -0.46875,-0.859375 -1.171875,-0.859375 -1.34375,0 -2.671875,1.421875 -2.671875,2.828125 0,0.90625 0.578125,1.6875 1.625,1.6875 1.421875,0 2.25,-1.0625 2.25,-1.171875 0,-0.0625 -0.046875,-0.140625 -0.109375,-0.140625 -0.0625,0 -0.078125,0.03125 -0.140625,0.109375 -0.78125,0.984375 -1.875,0.984375 -1.984375,0.984375 -0.625,0 -0.90625,-0.484375 -0.90625,-1.09375 0,-0.40625 0.203125,-1.375 0.546875,-1.984375 0.3125,-0.578125 0.859375,-1 1.40625,-1 0.328125,0 0.71875,0.125 0.859375,0.40625 z m 0,0"
             id="path3332" />
        </symbol>
        <symbol
           style="overflow:visible"
           overflow="visible"
           id="textext-c29e393b-7">
          <path
             inkscape:connector-curvature="0"
             style="stroke:none"
             d="m 6.28125,-6.75 c 0.078125,-0.140625 0.078125,-0.15625 0.078125,-0.1875 0,-0.078125 -0.0625,-0.203125 -0.203125,-0.203125 -0.109375,0 -0.140625,0.0625 -0.21875,0.203125 L 1.46875,1.765625 c -0.078125,0.140625 -0.078125,0.15625 -0.078125,0.1875 0,0.078125 0.0625,0.203125 0.1875,0.203125 0.125,0 0.15625,-0.0625 0.21875,-0.203125 z m 0,0"
             id="path3335" />
        </symbol>
      </g>
    </defs>
    <g
       id="textext-c29e393b-8">
      <g
         style="fill:#000000;fill-opacity:1"
         id="g3338">
        <use
           height="22.046614"
           width="57.899879"
           xlink:href="#textext-c29e393b-0"
           x="223.43201"
           y="134.765"
           id="use3340" />
      </g>
      <g
         style="fill:#000000;fill-opacity:1"
         id="g3342">
        <use
           height="22.046614"
           width="57.899879"
           xlink:href="#textext-c29e393b-3"
           x="227.306"
           y="134.765"
           id="use3344" />
      </g>
      <g
         style="fill:#000000;fill-opacity:1"
         id="g3346">
        <use
           height="22.046614"
           width="57.899879"
           xlink:href="#textext-c29e393b-4"
           x="234.78394"
           y="134.765"
           id="use3348" />
      </g>
      <g
         style="fill:#000000;fill-opacity:1"
         id="g3350">
        <use
           height="22.046614"
           width="57.899879"
           xlink:href="#textext-c29e393b-5"
           x="241.97693"
           y="134.765"
           id="use3352" />
      </g>
      <g
         style="fill:#000000;fill-opacity:1"
         id="g3354">
        <use
           height="22.046614"
           width="57.899879"
           xlink:href="#textext-c29e393b-1"
           x="246.257"
           y="134.765"
           id="use3356" />
      </g>
      <g
         style="fill:#000000;fill-opacity:1"
         id="g3358">
        <use
           height="22.046614"
           width="57.899879"
           xlink:href="#textext-c29e393b-4"
           x="252.34599"
           y="134.765"
           id="use3360" />
      </g>
      <g
         style="fill:#000000;fill-opacity:1"
         id="g3362">
        <use
           height="22.046614"
           width="57.899879"
           xlink:href="#textext-c29e393b-6"
           x="259.539"
           y="134.765"
           id="use3364" />
      </g>
      <g
         style="fill:#000000;fill-opacity:1"
         id="g3366">
        <use
           height="22.046614"
           width="57.899879"
           xlink:href="#textext-c29e393b-7"
           x="266.61899"
           y="134.765"
           id="use3368" />
      </g>
      <g
         style="fill:#000000;fill-opacity:1"
         id="g3370">
        <use
           height="22.046614"
           width="57.899879"
           xlink:href="#textext-c29e393b-2"
           x="266.61899"
           y="134.765"
           id="use3372" />
      </g>
      <g
         style="fill:#000000;fill-opacity:1"
         id="g3374">
        <use
           height="22.046614"
           width="57.899879"
           xlink:href="#textext-c29e393b-3"
           x="277.13599"
           y="134.765"
           id="use3376" />
      </g>
      <g
         style="fill:#000000;fill-opacity:1"
         id="g3378">
        <use
           height="22.046614"
           width="57.899879"
           xlink:href="#textext-c29e393b-4"
           x="284.61392"
           y="134.765"
           id="use3380" />
      </g>
      <g
         style="fill:#000000;fill-opacity:1"
         id="g3382">
        <use
           height="22.046614"
           width="57.899879"
           xlink:href="#textext-c29e393b-0"
           x="291.811"
           y="134.765"
           id="use3384" />
      </g>
      <g
         style="fill:#000000;fill-opacity:1"
         id="g3386">
        <use
           height="22.046614"
           width="57.899879"
           xlink:href="#textext-c29e393b-5"
           x="295.685"
           y="134.765"
           id="use3388" />
      </g>
      <g
         style="fill:#000000;fill-opacity:1"
         id="g3390">
        <use
           height="22.046614"
           width="57.899879"
           xlink:href="#textext-c29e393b-4"
           x="302.17264"
           y="134.765"
           id="use3392" />
      </g>
      <g
         style="fill:#000000;fill-opacity:1"
         id="g3394">
        <use
           height="22.046614"
           width="57.899879"
           xlink:href="#textext-c29e393b-6"
           x="309.36563"
           y="134.765"
           id="use3396" />
      </g>
      <g
         style="fill:#000000;fill-opacity:1"
         id="g3398">
        <use
           height="22.046614"
           width="57.899879"
           xlink:href="#textext-c29e393b-1"
           x="313.681"
           y="134.765"
           id="use3400" />
      </g>
    </g>
  </g>
  <g
     id="g3689"
     transform="translate(-224.41638,-100.65202)"
     ns0:preamble=""
     ns0:text="$(a \\star b) \\star c \\approx a \\star (b  \\star c)$">
    <defs
       id="defs3691">
      <g
         id="g3693">
        <symbol
           id="textext-cf15746b-0"
           overflow="visible"
           style="overflow:visible">
          <path
             id="path3696"
             d="m 3.296875,2.390625 c 0,-0.03125 0,-0.046875 -0.171875,-0.21875 C 1.890625,0.921875 1.5625,-0.96875 1.5625,-2.5 c 0,-1.734375 0.375,-3.46875 1.609375,-4.703125 0.125,-0.125 0.125,-0.140625 0.125,-0.171875 0,-0.078125 -0.03125,-0.109375 -0.09375,-0.109375 -0.109375,0 -1,0.6875 -1.59375,1.953125 -0.5,1.09375 -0.625,2.203125 -0.625,3.03125 0,0.78125 0.109375,1.984375 0.65625,3.125 C 2.25,1.84375 3.09375,2.5 3.203125,2.5 c 0.0625,0 0.09375,-0.03125 0.09375,-0.109375 z m 0,0"
             style="stroke:none"
             inkscape:connector-curvature="0" />
        </symbol>
        <symbol
           id="textext-cf15746b-1"
           overflow="visible"
           style="overflow:visible">
          <path
             id="path3699"
             d="m 2.875,-2.5 c 0,-0.765625 -0.109375,-1.96875 -0.65625,-3.109375 -0.59375,-1.21875 -1.453125,-1.875 -1.546875,-1.875 -0.0625,0 -0.109375,0.046875 -0.109375,0.109375 0,0.03125 0,0.046875 0.1875,0.234375 0.984375,0.984375 1.546875,2.5625 1.546875,4.640625 0,1.71875 -0.359375,3.46875 -1.59375,4.71875 C 0.5625,2.34375 0.5625,2.359375 0.5625,2.390625 0.5625,2.453125 0.609375,2.5 0.671875,2.5 0.765625,2.5 1.671875,1.8125 2.25,0.546875 2.765625,-0.546875 2.875,-1.65625 2.875,-2.5 z m 0,0"
             style="stroke:none"
             inkscape:connector-curvature="0" />
        </symbol>
        <symbol
           id="textext-cf15746b-2"
           overflow="visible"
           style="overflow:visible">
          <path
             id="path3702"
             d="M 3.71875,-3.765625 C 3.53125,-4.140625 3.25,-4.40625 2.796875,-4.40625 c -1.15625,0 -2.390625,1.46875 -2.390625,2.921875 0,0.9375 0.546875,1.59375 1.3125,1.59375 0.203125,0 0.703125,-0.046875 1.296875,-0.75 0.078125,0.421875 0.4375,0.75 0.90625,0.75 0.359375,0 0.578125,-0.234375 0.75,-0.546875 0.15625,-0.359375 0.296875,-0.96875 0.296875,-0.984375 0,-0.109375 -0.09375,-0.109375 -0.125,-0.109375 -0.09375,0 -0.109375,0.046875 -0.140625,0.1875 -0.171875,0.640625 -0.34375,1.234375 -0.75,1.234375 -0.28125,0 -0.296875,-0.265625 -0.296875,-0.453125 0,-0.21875 0.015625,-0.3125 0.125,-0.75 C 3.890625,-1.71875 3.90625,-1.828125 4,-2.203125 L 4.359375,-3.59375 c 0.0625,-0.28125 0.0625,-0.296875 0.0625,-0.34375 0,-0.171875 -0.109375,-0.265625 -0.28125,-0.265625 -0.25,0 -0.390625,0.21875 -0.421875,0.4375 z M 3.078125,-1.1875 C 3.015625,-1 3.015625,-0.984375 2.875,-0.8125 2.4375,-0.265625 2.03125,-0.109375 1.75,-0.109375 c -0.5,0 -0.640625,-0.546875 -0.640625,-0.9375 0,-0.5 0.3125,-1.71875 0.546875,-2.1875 0.3125,-0.578125 0.75,-0.953125 1.15625,-0.953125 0.640625,0 0.78125,0.8125 0.78125,0.875 0,0.0625 -0.015625,0.125 -0.03125,0.171875 z m 0,0"
             style="stroke:none"
             inkscape:connector-curvature="0" />
        </symbol>
        <symbol
           id="textext-cf15746b-3"
           overflow="visible"
           style="overflow:visible">
          <path
             id="path3705"
             d="m 2.375,-1.5625 c 0.015625,-0.015625 0.09375,-0.09375 0.125,-0.09375 0.03125,0 0.40625,0.4375 0.484375,0.515625 0.28125,0.3125 0.578125,0.625 0.875,0.9375 0.03125,0.046875 0.0625,0.046875 0.078125,0.046875 0.078125,0 0.109375,-0.078125 0.109375,-0.109375 0,-0.046875 -0.3125,-0.59375 -0.59375,-1.09375 L 3.0625,-2.078125 4.796875,-2.875 C 4.9375,-2.953125 4.9375,-2.984375 4.9375,-3.03125 4.9375,-3.078125 4.90625,-3.125 4.828125,-3.125 c 0,0 -0.484375,0.078125 -1.984375,0.390625 l -0.234375,-1.875 C 2.59375,-4.796875 2.578125,-4.828125 2.5,-4.828125 c -0.09375,0 -0.125,0.046875 -0.140625,0.21875 l -0.21875,1.875 -1.84375,-0.375 C 0.25,-3.125 0.171875,-3.125 0.15625,-3.125 c -0.078125,0 -0.109375,0.046875 -0.109375,0.09375 0,0.078125 0.046875,0.09375 0.15625,0.15625 L 1.9375,-2.078125 1,-0.421875 c -0.046875,0.109375 -0.0625,0.125 -0.0625,0.15625 0,0.03125 0.03125,0.109375 0.109375,0.109375 0.015625,0 0.046875,0 0.15625,-0.109375 z m 0,0"
             style="stroke:none"
             inkscape:connector-curvature="0" />
        </symbol>
        <symbol
           id="textext-cf15746b-4"
           overflow="visible"
           style="overflow:visible">
          <path
             id="path3708"
             d="m 2.375,-6.8125 c 0,0 0,-0.109375 -0.125,-0.109375 -0.21875,0 -0.953125,0.078125 -1.21875,0.109375 -0.078125,0 -0.1875,0.015625 -0.1875,0.1875 0,0.125 0.09375,0.125 0.25,0.125 0.46875,0 0.484375,0.0625 0.484375,0.171875 0,0.0625 -0.078125,0.40625 -0.125,0.609375 l -0.828125,3.25 c -0.109375,0.5 -0.15625,0.671875 -0.15625,1.015625 0,0.9375 0.53125,1.5625 1.265625,1.5625 1.171875,0 2.40625,-1.484375 2.40625,-2.921875 0,-0.90625 -0.53125,-1.59375 -1.328125,-1.59375 -0.453125,0 -0.875,0.296875 -1.171875,0.59375 z M 1.453125,-3.046875 C 1.5,-3.265625 1.5,-3.28125 1.59375,-3.390625 2.078125,-4.03125 2.53125,-4.1875 2.796875,-4.1875 c 0.359375,0 0.625,0.296875 0.625,0.9375 0,0.59375 -0.328125,1.734375 -0.515625,2.109375 -0.328125,0.671875 -0.78125,1.03125 -1.171875,1.03125 -0.34375,0 -0.671875,-0.265625 -0.671875,-1 0,-0.203125 0,-0.390625 0.15625,-1.015625 z m 0,0"
             style="stroke:none"
             inkscape:connector-curvature="0" />
        </symbol>
        <symbol
           id="textext-cf15746b-5"
           overflow="visible"
           style="overflow:visible">
          <path
             id="path3711"
             d="m 3.953125,-3.78125 c -0.171875,0 -0.296875,0 -0.4375,0.125 -0.171875,0.15625 -0.1875,0.328125 -0.1875,0.390625 0,0.25 0.1875,0.359375 0.375,0.359375 0.28125,0 0.546875,-0.25 0.546875,-0.640625 0,-0.484375 -0.46875,-0.859375 -1.171875,-0.859375 -1.34375,0 -2.671875,1.421875 -2.671875,2.828125 0,0.90625 0.578125,1.6875 1.625,1.6875 1.421875,0 2.25,-1.0625 2.25,-1.171875 0,-0.0625 -0.046875,-0.140625 -0.109375,-0.140625 -0.0625,0 -0.078125,0.03125 -0.140625,0.109375 -0.78125,0.984375 -1.875,0.984375 -1.984375,0.984375 -0.625,0 -0.90625,-0.484375 -0.90625,-1.09375 0,-0.40625 0.203125,-1.375 0.546875,-1.984375 0.3125,-0.578125 0.859375,-1 1.40625,-1 0.328125,0 0.71875,0.125 0.859375,0.40625 z m 0,0"
             style="stroke:none"
             inkscape:connector-curvature="0" />
        </symbol>
        <symbol
           id="textext-cf15746b-6"
           overflow="visible"
           style="overflow:visible">
          <path
             id="path3714"
             d="m 7.203125,-4.5 c 0,-0.21875 -0.078125,-0.3125 -0.140625,-0.3125 -0.046875,0 -0.140625,0.046875 -0.140625,0.28125 C 6.875,-3.84375 6.1875,-3.4375 5.53125,-3.4375 4.953125,-3.4375 4.453125,-3.75 3.9375,-4.09375 3.40625,-4.453125 2.859375,-4.8125 2.21875,-4.8125 c -0.9375,0 -1.671875,0.703125 -1.671875,1.625 0,0.21875 0.078125,0.296875 0.140625,0.296875 0.09375,0 0.140625,-0.1875 0.140625,-0.234375 C 0.875,-3.953125 1.6875,-4.25 2.21875,-4.25 c 0.578125,0 1.078125,0.296875 1.59375,0.65625 0.53125,0.359375 1.078125,0.71875 1.71875,0.71875 0.921875,0 1.671875,-0.71875 1.671875,-1.625 z m 0,2.328125 c 0,-0.296875 -0.125,-0.3125 -0.140625,-0.3125 -0.046875,0 -0.140625,0.046875 -0.140625,0.265625 C 6.875,-1.53125 6.1875,-1.109375 5.53125,-1.109375 c -0.578125,0 -1.078125,-0.3125 -1.59375,-0.671875 C 3.40625,-2.140625 2.859375,-2.5 2.21875,-2.5 c -0.9375,0 -1.671875,0.71875 -1.671875,1.625 0,0.234375 0.078125,0.3125 0.140625,0.3125 0.09375,0 0.140625,-0.1875 0.140625,-0.234375 C 0.875,-1.640625 1.6875,-1.9375 2.21875,-1.9375 c 0.578125,0 1.078125,0.3125 1.59375,0.65625 0.53125,0.359375 1.078125,0.71875 1.71875,0.71875 0.953125,0 1.671875,-0.734375 1.671875,-1.609375 z m 0,0"
             style="stroke:none"
             inkscape:connector-curvature="0" />
        </symbol>
      </g>
    </defs>
    <g
       id="textext-cf15746b-7">
      <g
         id="g3717"
         style="fill:#000000;fill-opacity:1">
        <use
           id="use3719"
           y="134.765"
           x="223.43201"
           xlink:href="#textext-cf15746b-0"
           width="57.899879"
           height="22.046614" />
      </g>
      <g
         id="g3721"
         style="fill:#000000;fill-opacity:1">
        <use
           id="use3723"
           y="134.765"
           x="227.306"
           xlink:href="#textext-cf15746b-2"
           width="57.899879"
           height="22.046614" />
      </g>
      <g
         id="g3725"
         style="fill:#000000;fill-opacity:1">
        <use
           id="use3727"
           y="134.765"
           x="234.78394"
           xlink:href="#textext-cf15746b-3"
           width="57.899879"
           height="22.046614" />
      </g>
      <g
         id="g3729"
         style="fill:#000000;fill-opacity:1">
        <use
           id="use3731"
           y="134.765"
           x="241.97693"
           xlink:href="#textext-cf15746b-4"
           width="57.899879"
           height="22.046614" />
      </g>
      <g
         id="g3733"
         style="fill:#000000;fill-opacity:1">
        <use
           id="use3735"
           y="134.765"
           x="246.257"
           xlink:href="#textext-cf15746b-1"
           width="57.899879"
           height="22.046614" />
      </g>
      <g
         id="g3737"
         style="fill:#000000;fill-opacity:1">
        <use
           id="use3739"
           y="134.765"
           x="252.34599"
           xlink:href="#textext-cf15746b-3"
           width="57.899879"
           height="22.046614" />
      </g>
      <g
         id="g3741"
         style="fill:#000000;fill-opacity:1">
        <use
           id="use3743"
           y="134.765"
           x="259.539"
           xlink:href="#textext-cf15746b-5"
           width="57.899879"
           height="22.046614" />
      </g>
      <g
         id="g3745"
         style="fill:#000000;fill-opacity:1">
        <use
           id="use3747"
           y="134.765"
           x="266.61899"
           xlink:href="#textext-cf15746b-6"
           width="57.899879"
           height="22.046614" />
      </g>
      <g
         id="g3749"
         style="fill:#000000;fill-opacity:1">
        <use
           id="use3751"
           y="134.765"
           x="277.13599"
           xlink:href="#textext-cf15746b-2"
           width="57.899879"
           height="22.046614" />
      </g>
      <g
         id="g3753"
         style="fill:#000000;fill-opacity:1">
        <use
           id="use3755"
           y="134.765"
           x="284.61392"
           xlink:href="#textext-cf15746b-3"
           width="57.899879"
           height="22.046614" />
      </g>
      <g
         id="g3757"
         style="fill:#000000;fill-opacity:1">
        <use
           id="use3759"
           y="134.765"
           x="291.811"
           xlink:href="#textext-cf15746b-0"
           width="57.899879"
           height="22.046614" />
      </g>
      <g
         id="g3761"
         style="fill:#000000;fill-opacity:1">
        <use
           id="use3763"
           y="134.765"
           x="295.685"
           xlink:href="#textext-cf15746b-4"
           width="57.899879"
           height="22.046614" />
      </g>
      <g
         id="g3765"
         style="fill:#000000;fill-opacity:1">
        <use
           id="use3767"
           y="134.765"
           x="302.17264"
           xlink:href="#textext-cf15746b-3"
           width="57.899879"
           height="22.046614" />
      </g>
      <g
         id="g3769"
         style="fill:#000000;fill-opacity:1">
        <use
           id="use3771"
           y="134.765"
           x="309.36563"
           xlink:href="#textext-cf15746b-5"
           width="57.899879"
           height="22.046614" />
      </g>
      <g
         id="g3773"
         style="fill:#000000;fill-opacity:1">
        <use
           id="use3775"
           y="134.765"
           x="313.681"
           xlink:href="#textext-cf15746b-1"
           width="57.899879"
           height="22.046614" />
      </g>
    </g>
  </g>
</svg>
