<?xml version="1.0" encoding="UTF-8" standalone="no"?>
<!-- Created with Inkscape (http://www.inkscape.org/) -->

<svg
   xmlns:ns0="http://www.iki.fi/pav/software/textext/"
   xmlns:dc="http://purl.org/dc/elements/1.1/"
   xmlns:cc="http://creativecommons.org/ns#"
   xmlns:rdf="http://www.w3.org/1999/02/22-rdf-syntax-ns#"
   xmlns:svg="http://www.w3.org/2000/svg"
   xmlns="http://www.w3.org/2000/svg"
   xmlns:xlink="http://www.w3.org/1999/xlink"
   xmlns:sodipodi="http://sodipodi.sourceforge.net/DTD/sodipodi-0.dtd"
   xmlns:inkscape="http://www.inkscape.org/namespaces/inkscape"
   width="147.24173"
   height="35.413349"
   id="svg2"
   version="1.1"
   inkscape:version="0.48.3.1 r9886"
   sodipodi:docname="lorenzEqP3.svg">
  <sodipodi:namedview
     id="base"
     pagecolor="#ffffff"
     bordercolor="#666666"
     borderopacity="1.0"
     inkscape:pageopacity="0.0"
     inkscape:pageshadow="2"
     inkscape:zoom="0.35"
     inkscape:cx="464.45056"
     inkscape:cy="-340.69649"
     inkscape:document-units="px"
     inkscape:current-layer="layer1"
     showgrid="false"
     inkscape:window-width="1366"
     inkscape:window-height="709"
     inkscape:window-x="0"
     inkscape:window-y="27"
     inkscape:window-maximized="1"
     fit-margin-top="0"
     fit-margin-left="0"
     fit-margin-right="0"
     fit-margin-bottom="0" />
  <defs
     id="defs4" />
  <metadata
     id="metadata7">
    <rdf:RDF>
      <cc:Work
         rdf:about="">
        <dc:format>image/svg+xml</dc:format>
        <dc:type
           rdf:resource="http://purl.org/dc/dcmitype/StillImage" />
        <dc:title></dc:title>
      </cc:Work>
    </rdf:RDF>
  </metadata>
  <g
     inkscape:label="Camada 1"
     inkscape:groupmode="layer"
     id="layer1"
     transform="translate(-298.93077,-156.25234)">
    <g
       id="g5141"
       transform="matrix(5.1627663,0,0,5.1627663,-1616.724,-505.22386)"
       ns0:preamble=""
       ns0:text="\\begin{eqnarray}\n\\nonumber\n\\sigma=10\n\\end{eqnarray}">
      <defs
         id="defs5143">
        <g
           id="g5145">
          <symbol
             id="textext-3f10e73f-0"
             overflow="visible"
             style="overflow:visible">
            <path
               id="path5148"
               d="m 5.15625,-3.71875 c 0.140625,0 0.5,0 0.5,-0.34375 0,-0.234375 -0.21875,-0.234375 -0.390625,-0.234375 l -2.28125,0 c -1.5,0 -2.609375,1.640625 -2.609375,2.828125 0,0.875 0.59375,1.578125 1.5,1.578125 1.171875,0 2.5,-1.203125 2.5,-2.734375 0,-0.171875 0,-0.65625 -0.3125,-1.09375 z M 1.890625,-0.109375 C 1.390625,-0.109375 1,-0.46875 1,-1.1875 c 0,-0.296875 0.109375,-1.109375 0.46875,-1.703125 0.421875,-0.6875 1.015625,-0.828125 1.359375,-0.828125 0.828125,0 0.90625,0.65625 0.90625,0.96875 0,0.46875 -0.203125,1.28125 -0.53125,1.796875 -0.390625,0.578125 -0.9375,0.84375 -1.3125,0.84375 z m 0,0"
               style="stroke:none"
               inkscape:connector-curvature="0" />
          </symbol>
          <symbol
             id="textext-3f10e73f-1"
             overflow="visible"
             style="overflow:visible">
            <path
               id="path5151"
               d="m 6.84375,-3.265625 c 0.15625,0 0.34375,0 0.34375,-0.1875 C 7.1875,-3.65625 7,-3.65625 6.859375,-3.65625 l -5.96875,0 c -0.140625,0 -0.328125,0 -0.328125,0.203125 0,0.1875 0.1875,0.1875 0.328125,0.1875 z m 0.015625,1.9375 c 0.140625,0 0.328125,0 0.328125,-0.203125 0,-0.1875 -0.1875,-0.1875 -0.34375,-0.1875 l -5.953125,0 c -0.140625,0 -0.328125,0 -0.328125,0.1875 0,0.203125 0.1875,0.203125 0.328125,0.203125 z m 0,0"
               style="stroke:none"
               inkscape:connector-curvature="0" />
          </symbol>
          <symbol
             id="textext-3f10e73f-2"
             overflow="visible"
             style="overflow:visible">
            <path
               id="path5154"
               d="m 2.9375,-6.375 c 0,-0.25 0,-0.265625 -0.234375,-0.265625 C 2.078125,-6 1.203125,-6 0.890625,-6 l 0,0.3125 c 0.203125,0 0.78125,0 1.296875,-0.265625 l 0,5.171875 c 0,0.359375 -0.03125,0.46875 -0.921875,0.46875 l -0.3125,0 0,0.3125 c 0.34375,-0.03125 1.203125,-0.03125 1.609375,-0.03125 0.390625,0 1.265625,0 1.609375,0.03125 l 0,-0.3125 -0.3125,0 c -0.90625,0 -0.921875,-0.109375 -0.921875,-0.46875 z m 0,0"
               style="stroke:none"
               inkscape:connector-curvature="0" />
          </symbol>
          <symbol
             id="textext-3f10e73f-3"
             overflow="visible"
             style="overflow:visible">
            <path
               id="path5157"
               d="m 4.578125,-3.1875 c 0,-0.796875 -0.046875,-1.59375 -0.390625,-2.328125 -0.453125,-0.96875 -1.28125,-1.125 -1.6875,-1.125 -0.609375,0 -1.328125,0.265625 -1.75,1.1875 -0.3125,0.6875 -0.359375,1.46875 -0.359375,2.265625 0,0.75 0.03125,1.640625 0.453125,2.40625 0.421875,0.796875 1.15625,1 1.640625,1 0.53125,0 1.296875,-0.203125 1.734375,-1.15625 0.3125,-0.6875 0.359375,-1.46875 0.359375,-2.25 z M 2.484375,0 C 2.09375,0 1.5,-0.25 1.328125,-1.203125 1.21875,-1.796875 1.21875,-2.71875 1.21875,-3.3125 c 0,-0.640625 0,-1.296875 0.078125,-1.828125 0.1875,-1.1875 0.9375,-1.28125 1.1875,-1.28125 0.328125,0 0.984375,0.1875 1.171875,1.171875 0.109375,0.5625 0.109375,1.3125 0.109375,1.9375 0,0.75 0,1.421875 -0.109375,2.0625 C 3.5,-0.296875 2.9375,0 2.484375,0 z m 0,0"
               style="stroke:none"
               inkscape:connector-curvature="0" />
          </symbol>
        </g>
      </defs>
      <g
         id="textext-3f10e73f-4">
        <g
           id="g5160"
           style="fill:#000000;fill-opacity:1">
          <use
             id="use5162"
             y="134.765"
             x="370.677"
             xlink:href="#textext-3f10e73f-0"
             width="1007.2253"
             height="51.546993" />
        </g>
        <g
           id="g5164"
           style="fill:#000000;fill-opacity:1">
          <use
             id="use5166"
             y="134.765"
             x="379.49399"
             xlink:href="#textext-3f10e73f-1"
             width="1007.2253"
             height="51.546993" />
        </g>
        <g
           id="g5168"
           style="fill:#000000;fill-opacity:1">
          <use
             id="use5170"
             y="134.765"
             x="390.01251"
             xlink:href="#textext-3f10e73f-2"
             width="1007.2253"
             height="51.546993" />
          <use
             id="use5172"
             y="134.765"
             x="394.9938"
             xlink:href="#textext-3f10e73f-3"
             width="1007.2253"
             height="51.546993" />
        </g>
      </g>
    </g>
  </g>
</svg>
