<?xml version="1.0" encoding="UTF-8" standalone="no"?>
<!-- Created with Inkscape (http://www.inkscape.org/) -->

<svg
   xmlns:ns0="http://www.iki.fi/pav/software/textext/"
   xmlns:dc="http://purl.org/dc/elements/1.1/"
   xmlns:cc="http://creativecommons.org/ns#"
   xmlns:rdf="http://www.w3.org/1999/02/22-rdf-syntax-ns#"
   xmlns:svg="http://www.w3.org/2000/svg"
   xmlns="http://www.w3.org/2000/svg"
   xmlns:xlink="http://www.w3.org/1999/xlink"
   xmlns:sodipodi="http://sodipodi.sourceforge.net/DTD/sodipodi-0.dtd"
   xmlns:inkscape="http://www.inkscape.org/namespaces/inkscape"
   width="477.81085"
   height="359.11816"
   id="svg2"
   version="1.1"
   inkscape:version="0.48.3.1 r9886"
   sodipodi:docname="Novo documento 1">
  <sodipodi:namedview
     id="base"
     pagecolor="#ffffff"
     bordercolor="#666666"
     borderopacity="1.0"
     inkscape:pageopacity="0.0"
     inkscape:pageshadow="2"
     inkscape:zoom="0.35"
     inkscape:cx="162.39268"
     inkscape:cy="-34.159211"
     inkscape:document-units="px"
     inkscape:current-layer="layer1"
     showgrid="false"
     inkscape:window-width="1366"
     inkscape:window-height="709"
     inkscape:window-x="0"
     inkscape:window-y="27"
     inkscape:window-maximized="1"
     fit-margin-top="0"
     fit-margin-left="0"
     fit-margin-right="0"
     fit-margin-bottom="0" />
  <defs
     id="defs4" />
  <metadata
     id="metadata7">
    <rdf:RDF>
      <cc:Work
         rdf:about="">
        <dc:format>image/svg+xml</dc:format>
        <dc:type
           rdf:resource="http://purl.org/dc/dcmitype/StillImage" />
        <dc:title></dc:title>
      </cc:Work>
    </rdf:RDF>
  </metadata>
  <g
     inkscape:label="Camada 1"
     inkscape:groupmode="layer"
     id="layer1"
     transform="translate(-187.60732,-139.08482)">
    <g
       id="g3340"
       transform="matrix(5.1627663,0,0,5.1627663,-1616.724,-505.22386)"
       ns0:preamble=""
       ns0:text="\\begin{eqnarray}\n\\nonumber\n\\frac{dx}{dt} &amp; = &amp;\\sigma (y-x) \\\\\n\\nonumber\n\\frac{dy}{dt} &amp; = &amp; x(\\rho-z)-y \\\\\n\\nonumber\n\\frac{dz}{dt} &amp; = &amp; xy - \\beta z\n\\end{eqnarray}">
      <defs
         id="defs3342">
        <g
           id="g3344">
          <symbol
             id="textext-b9ba1ba7-0"
             overflow="visible"
             style="overflow:visible">
            <path
               id="path3347"
               d="m 5.140625,-6.8125 c 0,0 0,-0.109375 -0.125,-0.109375 -0.15625,0 -1.09375,0.09375 -1.265625,0.109375 -0.078125,0.015625 -0.140625,0.0625 -0.140625,0.1875 0,0.125 0.09375,0.125 0.234375,0.125 0.484375,0 0.5,0.0625 0.5,0.171875 L 4.3125,-6.125 3.71875,-3.765625 C 3.53125,-4.140625 3.25,-4.40625 2.796875,-4.40625 c -1.15625,0 -2.390625,1.46875 -2.390625,2.921875 0,0.9375 0.546875,1.59375 1.3125,1.59375 0.203125,0 0.703125,-0.046875 1.296875,-0.75 0.078125,0.421875 0.4375,0.75 0.90625,0.75 0.359375,0 0.578125,-0.234375 0.75,-0.546875 0.15625,-0.359375 0.296875,-0.96875 0.296875,-0.984375 0,-0.109375 -0.09375,-0.109375 -0.125,-0.109375 -0.09375,0 -0.109375,0.046875 -0.140625,0.1875 -0.171875,0.640625 -0.34375,1.234375 -0.75,1.234375 -0.28125,0 -0.296875,-0.265625 -0.296875,-0.453125 0,-0.25 0.015625,-0.3125 0.046875,-0.484375 z m -2.0625,5.625 C 3.015625,-1 3.015625,-0.984375 2.875,-0.8125 2.4375,-0.265625 2.03125,-0.109375 1.75,-0.109375 c -0.5,0 -0.640625,-0.546875 -0.640625,-0.9375 0,-0.5 0.3125,-1.71875 0.546875,-2.1875 0.3125,-0.578125 0.75,-0.953125 1.15625,-0.953125 0.640625,0 0.78125,0.8125 0.78125,0.875 0,0.0625 -0.015625,0.125 -0.03125,0.171875 z m 0,0"
               style="stroke:none"
               inkscape:connector-curvature="0" />
          </symbol>
          <symbol
             id="textext-b9ba1ba7-1"
             overflow="visible"
             style="overflow:visible">
            <path
               id="path3350"
               d="M 3.328125,-3.015625 C 3.390625,-3.265625 3.625,-4.1875 4.3125,-4.1875 c 0.046875,0 0.296875,0 0.5,0.125 C 4.53125,-4 4.34375,-3.765625 4.34375,-3.515625 c 0,0.15625 0.109375,0.34375 0.375,0.34375 0.21875,0 0.53125,-0.171875 0.53125,-0.578125 0,-0.515625 -0.578125,-0.65625 -0.921875,-0.65625 -0.578125,0 -0.921875,0.53125 -1.046875,0.75 -0.25,-0.65625 -0.78125,-0.75 -1.078125,-0.75 -1.03125,0 -1.609375,1.28125 -1.609375,1.53125 0,0.109375 0.109375,0.109375 0.125,0.109375 0.078125,0 0.109375,-0.03125 0.125,-0.109375 0.34375,-1.0625 1,-1.3125 1.34375,-1.3125 0.1875,0 0.53125,0.09375 0.53125,0.671875 0,0.3125 -0.171875,0.96875 -0.53125,2.375 -0.15625,0.609375 -0.515625,1.03125 -0.953125,1.03125 -0.0625,0 -0.28125,0 -0.5,-0.125 0.25,-0.0625 0.46875,-0.265625 0.46875,-0.546875 0,-0.265625 -0.21875,-0.34375 -0.359375,-0.34375 -0.3125,0 -0.546875,0.25 -0.546875,0.578125 0,0.453125 0.484375,0.65625 0.921875,0.65625 0.671875,0 1.03125,-0.703125 1.046875,-0.75 0.125,0.359375 0.484375,0.75 1.078125,0.75 1.03125,0 1.59375,-1.28125 1.59375,-1.53125 0,-0.109375 -0.078125,-0.109375 -0.109375,-0.109375 -0.09375,0 -0.109375,0.046875 -0.140625,0.109375 -0.328125,1.078125 -1,1.3125 -1.3125,1.3125 -0.390625,0 -0.546875,-0.3125 -0.546875,-0.65625 0,-0.21875 0.046875,-0.4375 0.15625,-0.875 z m 0,0"
               style="stroke:none"
               inkscape:connector-curvature="0" />
          </symbol>
          <symbol
             id="textext-b9ba1ba7-2"
             overflow="visible"
             style="overflow:visible">
            <path
               id="path3353"
               d="m 2.046875,-3.984375 0.9375,0 c 0.203125,0 0.3125,0 0.3125,-0.203125 0,-0.109375 -0.109375,-0.109375 -0.28125,-0.109375 l -0.875,0 C 2.5,-5.71875 2.546875,-5.90625 2.546875,-5.96875 c 0,-0.171875 -0.125,-0.265625 -0.296875,-0.265625 -0.03125,0 -0.3125,0 -0.390625,0.359375 l -0.390625,1.578125 -0.9375,0 c -0.203125,0 -0.296875,0 -0.296875,0.1875 0,0.125 0.078125,0.125 0.28125,0.125 l 0.875,0 C 0.671875,-1.15625 0.625,-0.984375 0.625,-0.8125 0.625,-0.265625 1,0.109375 1.546875,0.109375 2.5625,0.109375 3.125,-1.34375 3.125,-1.421875 3.125,-1.53125 3.046875,-1.53125 3.015625,-1.53125 2.921875,-1.53125 2.90625,-1.5 2.859375,-1.390625 2.4375,-0.34375 1.90625,-0.109375 1.5625,-0.109375 c -0.203125,0 -0.3125,-0.125 -0.3125,-0.453125 0,-0.25 0.03125,-0.3125 0.0625,-0.484375 z m 0,0"
               style="stroke:none"
               inkscape:connector-curvature="0" />
          </symbol>
          <symbol
             id="textext-b9ba1ba7-3"
             overflow="visible"
             style="overflow:visible">
            <path
               id="path3356"
               d="m 5.15625,-3.71875 c 0.140625,0 0.5,0 0.5,-0.34375 0,-0.234375 -0.21875,-0.234375 -0.390625,-0.234375 l -2.28125,0 c -1.5,0 -2.609375,1.640625 -2.609375,2.828125 0,0.875 0.59375,1.578125 1.5,1.578125 1.171875,0 2.5,-1.203125 2.5,-2.734375 0,-0.171875 0,-0.65625 -0.3125,-1.09375 z M 1.890625,-0.109375 C 1.390625,-0.109375 1,-0.46875 1,-1.1875 c 0,-0.296875 0.109375,-1.109375 0.46875,-1.703125 0.421875,-0.6875 1.015625,-0.828125 1.359375,-0.828125 0.828125,0 0.90625,0.65625 0.90625,0.96875 0,0.46875 -0.203125,1.28125 -0.53125,1.796875 -0.390625,0.578125 -0.9375,0.84375 -1.3125,0.84375 z m 0,0"
               style="stroke:none"
               inkscape:connector-curvature="0" />
          </symbol>
          <symbol
             id="textext-b9ba1ba7-4"
             overflow="visible"
             style="overflow:visible">
            <path
               id="path3359"
               d="m 4.84375,-3.796875 c 0.046875,-0.140625 0.046875,-0.15625 0.046875,-0.234375 0,-0.171875 -0.140625,-0.265625 -0.296875,-0.265625 -0.09375,0 -0.25,0.0625 -0.34375,0.203125 -0.015625,0.0625 -0.109375,0.359375 -0.140625,0.546875 -0.078125,0.25 -0.140625,0.53125 -0.203125,0.796875 l -0.453125,1.796875 c -0.03125,0.140625 -0.46875,0.84375 -1.125,0.84375 -0.5,0 -0.609375,-0.4375 -0.609375,-0.8125 C 1.71875,-1.375 1.890625,-2 2.21875,-2.875 2.375,-3.28125 2.421875,-3.390625 2.421875,-3.59375 c 0,-0.4375 -0.3125,-0.8125 -0.8125,-0.8125 -0.953125,0 -1.3125,1.453125 -1.3125,1.53125 0,0.109375 0.09375,0.109375 0.109375,0.109375 0.109375,0 0.109375,-0.03125 0.15625,-0.1875 0.28125,-0.9375 0.671875,-1.234375 1.015625,-1.234375 0.078125,0 0.25,0 0.25,0.3125 0,0.25 -0.109375,0.515625 -0.171875,0.703125 -0.40625,1.0625 -0.578125,1.625 -0.578125,2.09375 0,0.890625 0.625,1.1875 1.21875,1.1875 0.390625,0 0.71875,-0.171875 1,-0.453125 -0.125,0.515625 -0.25,1.015625 -0.640625,1.546875 -0.265625,0.328125 -0.640625,0.625 -1.09375,0.625 -0.140625,0 -0.59375,-0.03125 -0.765625,-0.421875 0.15625,0 0.296875,0 0.421875,-0.125 C 1.328125,1.203125 1.421875,1.0625 1.421875,0.875 1.421875,0.5625 1.15625,0.53125 1.0625,0.53125 0.828125,0.53125 0.5,0.6875 0.5,1.171875 c 0,0.5 0.4375,0.875 1.0625,0.875 1.015625,0 2.046875,-0.90625 2.328125,-2.03125 z m 0,0"
               style="stroke:none"
               inkscape:connector-curvature="0" />
          </symbol>
          <symbol
             id="textext-b9ba1ba7-5"
             overflow="visible"
             style="overflow:visible">
            <path
               id="path3362"
               d="m 0.328125,1.71875 c -0.03125,0.125 -0.03125,0.140625 -0.03125,0.171875 0,0.140625 0.109375,0.265625 0.28125,0.265625 0.203125,0 0.328125,-0.1875 0.34375,-0.21875 0.0625,-0.078125 0.375,-1.421875 0.640625,-2.5 0.203125,0.40625 0.515625,0.671875 0.984375,0.671875 C 3.71875,0.109375 5,-1.296875 5,-2.78125 c 0,-1.0625 -0.65625,-1.625 -1.375,-1.625 -0.96875,0 -2.015625,1 -2.3125,2.21875 z m 2.21875,-1.828125 C 1.84375,-0.109375 1.6875,-0.90625 1.6875,-1 c 0,-0.03125 0.046875,-0.234375 0.078125,-0.359375 0.28125,-1.125 0.375,-1.484375 0.59375,-1.875 0.4375,-0.734375 0.9375,-0.953125 1.234375,-0.953125 0.375,0 0.6875,0.296875 0.6875,0.984375 0,0.546875 -0.28125,1.65625 -0.546875,2.140625 -0.328125,0.640625 -0.8125,0.953125 -1.1875,0.953125 z m 0,0"
               style="stroke:none"
               inkscape:connector-curvature="0" />
          </symbol>
          <symbol
             id="textext-b9ba1ba7-6"
             overflow="visible"
             style="overflow:visible">
            <path
               id="path3365"
               d="m 1.328125,-0.828125 c 0.53125,-0.578125 0.828125,-0.828125 1.1875,-1.140625 0,0 0.609375,-0.53125 0.96875,-0.890625 C 4.4375,-3.78125 4.65625,-4.265625 4.65625,-4.3125 c 0,-0.09375 -0.09375,-0.09375 -0.109375,-0.09375 -0.078125,0 -0.09375,0.015625 -0.15625,0.109375 -0.296875,0.484375 -0.5,0.640625 -0.734375,0.640625 -0.25,0 -0.359375,-0.15625 -0.515625,-0.328125 -0.1875,-0.21875 -0.359375,-0.421875 -0.6875,-0.421875 -0.75,0 -1.203125,0.921875 -1.203125,1.140625 0,0.046875 0.03125,0.109375 0.109375,0.109375 0.09375,0 0.109375,-0.046875 0.140625,-0.109375 0.1875,-0.46875 0.765625,-0.46875 0.84375,-0.46875 0.203125,0 0.390625,0.0625 0.625,0.140625 0.40625,0.15625 0.515625,0.15625 0.765625,0.15625 -0.359375,0.421875 -1.1875,1.140625 -1.375,1.296875 l -0.90625,0.84375 C 0.78125,-0.625 0.421875,-0.0625 0.421875,0.015625 c 0,0.09375 0.109375,0.09375 0.125,0.09375 0.078125,0 0.09375,-0.015625 0.15625,-0.125 0.234375,-0.359375 0.53125,-0.625 0.859375,-0.625 0.21875,0 0.328125,0.09375 0.578125,0.375 0.15625,0.21875 0.34375,0.375 0.625,0.375 1,0 1.578125,-1.265625 1.578125,-1.53125 0,-0.046875 -0.046875,-0.109375 -0.125,-0.109375 -0.09375,0 -0.109375,0.0625 -0.140625,0.140625 C 3.84375,-0.75 3.203125,-0.5625 2.875,-0.5625 c -0.1875,0 -0.375,-0.0625 -0.578125,-0.125 -0.34375,-0.125 -0.5,-0.171875 -0.703125,-0.171875 -0.015625,0 -0.171875,0 -0.265625,0.03125 z m 0,0"
               style="stroke:none"
               inkscape:connector-curvature="0" />
          </symbol>
          <symbol
             id="textext-b9ba1ba7-7"
             overflow="visible"
             style="overflow:visible">
            <path
               id="path3368"
               d="m 5.734375,-5.671875 c 0,-0.75 -0.546875,-1.359375 -1.359375,-1.359375 -0.578125,0 -0.859375,0.15625 -1.203125,0.40625 C 2.625,-6.21875 2.078125,-5.25 1.890625,-4.5 L 0.296875,1.828125 C 0.296875,1.875 0.34375,1.9375 0.421875,1.9375 0.5,1.9375 0.53125,1.90625 0.53125,1.890625 L 1.234375,-0.875 c 0.1875,0.609375 0.625,0.96875 1.359375,0.96875 C 3.3125,0.09375 4.0625,-0.25 4.515625,-0.6875 5,-1.140625 5.3125,-1.78125 5.3125,-2.515625 c 0,-0.71875 -0.375,-1.25 -0.734375,-1.484375 0.578125,-0.34375 1.15625,-0.953125 1.15625,-1.671875 z M 3.9375,-4.015625 c -0.125,0.046875 -0.234375,0.0625 -0.484375,0.0625 -0.140625,0 -0.328125,0.015625 -0.4375,-0.03125 0.03125,-0.109375 0.390625,-0.078125 0.5,-0.078125 0.203125,0 0.296875,0 0.421875,0.046875 z M 5.171875,-5.90625 c 0,0.703125 -0.375,1.421875 -0.890625,1.734375 C 4,-4.28125 3.8125,-4.296875 3.515625,-4.296875 c -0.21875,0 -0.78125,-0.015625 -0.78125,0.3125 0,0.28125 0.515625,0.25 0.6875,0.25 0.375,0 0.53125,0 0.828125,-0.125 0.375,0.359375 0.421875,0.671875 0.4375,1.125 0.015625,0.578125 -0.21875,1.328125 -0.5,1.71875 C 3.796875,-0.484375 3.125,-0.125 2.5625,-0.125 c -0.765625,0 -1.140625,-0.578125 -1.140625,-1.28125 0,-0.09375 0,-0.25 0.046875,-0.4375 L 2.109375,-4.359375 C 2.328125,-5.21875 3.046875,-6.8125 4.25,-6.8125 c 0.578125,0 0.921875,0.3125 0.921875,0.90625 z m 0,0"
               style="stroke:none"
               inkscape:connector-curvature="0" />
          </symbol>
          <symbol
             id="textext-b9ba1ba7-8"
             overflow="visible"
             style="overflow:visible">
            <path
               id="path3371"
               d="m 6.84375,-3.265625 c 0.15625,0 0.34375,0 0.34375,-0.1875 C 7.1875,-3.65625 7,-3.65625 6.859375,-3.65625 l -5.96875,0 c -0.140625,0 -0.328125,0 -0.328125,0.203125 0,0.1875 0.1875,0.1875 0.328125,0.1875 z m 0.015625,1.9375 c 0.140625,0 0.328125,0 0.328125,-0.203125 0,-0.1875 -0.1875,-0.1875 -0.34375,-0.1875 l -5.953125,0 c -0.140625,0 -0.328125,0 -0.328125,0.1875 0,0.203125 0.1875,0.203125 0.328125,0.203125 z m 0,0"
               style="stroke:none"
               inkscape:connector-curvature="0" />
          </symbol>
          <symbol
             id="textext-b9ba1ba7-9"
             overflow="visible"
             style="overflow:visible">
            <path
               id="path3374"
               d="m 3.296875,2.390625 c 0,-0.03125 0,-0.046875 -0.171875,-0.21875 C 1.890625,0.921875 1.5625,-0.96875 1.5625,-2.5 c 0,-1.734375 0.375,-3.46875 1.609375,-4.703125 0.125,-0.125 0.125,-0.140625 0.125,-0.171875 0,-0.078125 -0.03125,-0.109375 -0.09375,-0.109375 -0.109375,0 -1,0.6875 -1.59375,1.953125 -0.5,1.09375 -0.625,2.203125 -0.625,3.03125 0,0.78125 0.109375,1.984375 0.65625,3.125 C 2.25,1.84375 3.09375,2.5 3.203125,2.5 c 0.0625,0 0.09375,-0.03125 0.09375,-0.109375 z m 0,0"
               style="stroke:none"
               inkscape:connector-curvature="0" />
          </symbol>
          <symbol
             id="textext-b9ba1ba7-10"
             overflow="visible"
             style="overflow:visible">
            <path
               id="path3377"
               d="m 2.875,-2.5 c 0,-0.765625 -0.109375,-1.96875 -0.65625,-3.109375 -0.59375,-1.21875 -1.453125,-1.875 -1.546875,-1.875 -0.0625,0 -0.109375,0.046875 -0.109375,0.109375 0,0.03125 0,0.046875 0.1875,0.234375 0.984375,0.984375 1.546875,2.5625 1.546875,4.640625 0,1.71875 -0.359375,3.46875 -1.59375,4.71875 C 0.5625,2.34375 0.5625,2.359375 0.5625,2.390625 0.5625,2.453125 0.609375,2.5 0.671875,2.5 0.765625,2.5 1.671875,1.8125 2.25,0.546875 2.765625,-0.546875 2.875,-1.65625 2.875,-2.5 z m 0,0"
               style="stroke:none"
               inkscape:connector-curvature="0" />
          </symbol>
          <symbol
             id="textext-b9ba1ba7-11"
             overflow="visible"
             style="overflow:visible">
            <path
               id="path3380"
               d="m 6.5625,-2.296875 c 0.171875,0 0.359375,0 0.359375,-0.203125 0,-0.1875 -0.1875,-0.1875 -0.359375,-0.1875 l -5.390625,0 c -0.171875,0 -0.34375,0 -0.34375,0.1875 0,0.203125 0.171875,0.203125 0.34375,0.203125 z m 0,0"
               style="stroke:none"
               inkscape:connector-curvature="0" />
          </symbol>
        </g>
      </defs>
      <g
         id="textext-b9ba1ba7-12">
        <g
           id="g3383"
           style="fill:#000000;fill-opacity:1">
          <use
             id="use3385"
             y="131.72099"
             x="349.38101"
             xlink:href="#textext-b9ba1ba7-0"
             width="744.09448"
             height="1052.3622" />
          <use
             id="use3387"
             y="131.72099"
             x="354.56653"
             xlink:href="#textext-b9ba1ba7-1"
             width="744.09448"
             height="1052.3622" />
        </g>
        <path
           id="path3389"
           transform="matrix(1,0,0,-1,349.381,135.97)"
           d="m 0.119,0.47 11,0"
           style="fill:none;stroke:#000000;stroke-width:1;stroke-linecap:butt;stroke-linejoin:miter;stroke-miterlimit:10;stroke-opacity:1"
           inkscape:connector-curvature="0" />
        <g
           id="g3391"
           style="fill:#000000;fill-opacity:1">
          <use
             id="use3393"
             y="145.29401"
             x="350.42899"
             xlink:href="#textext-b9ba1ba7-0"
             width="744.09448"
             height="1052.3622" />
          <use
             id="use3395"
             y="145.29401"
             x="355.61453"
             xlink:href="#textext-b9ba1ba7-2"
             width="744.09448"
             height="1052.3622" />
        </g>
        <g
           id="g3397"
           style="fill:#000000;fill-opacity:1">
          <use
             id="use3399"
             y="138.461"
             x="371.41901"
             xlink:href="#textext-b9ba1ba7-8"
             width="744.09448"
             height="1052.3622" />
        </g>
        <g
           id="g3401"
           style="fill:#000000;fill-opacity:1">
          <use
             id="use3403"
             y="138.461"
             x="389.13"
             xlink:href="#textext-b9ba1ba7-3"
             width="744.09448"
             height="1052.3622" />
        </g>
        <g
           id="g3405"
           style="fill:#000000;fill-opacity:1">
          <use
             id="use3407"
             y="138.461"
             x="395.17999"
             xlink:href="#textext-b9ba1ba7-9"
             width="744.09448"
             height="1052.3622" />
        </g>
        <g
           id="g3409"
           style="fill:#000000;fill-opacity:1">
          <use
             id="use3411"
             y="138.461"
             x="399.05499"
             xlink:href="#textext-b9ba1ba7-4"
             width="744.09448"
             height="1052.3622" />
        </g>
        <g
           id="g3413"
           style="fill:#000000;fill-opacity:1">
          <use
             id="use3415"
             y="138.461"
             x="406.51001"
             xlink:href="#textext-b9ba1ba7-11"
             width="744.09448"
             height="1052.3622" />
        </g>
        <g
           id="g3417"
           style="fill:#000000;fill-opacity:1">
          <use
             id="use3419"
             y="138.461"
             x="416.47299"
             xlink:href="#textext-b9ba1ba7-1"
             width="744.09448"
             height="1052.3622" />
        </g>
        <g
           id="g3421"
           style="fill:#000000;fill-opacity:1">
          <use
             id="use3423"
             y="138.461"
             x="422.16699"
             xlink:href="#textext-b9ba1ba7-10"
             width="744.09448"
             height="1052.3622" />
        </g>
        <g
           id="g3425"
           style="fill:#000000;fill-opacity:1">
          <use
             id="use3427"
             y="156.198"
             x="349.83301"
             xlink:href="#textext-b9ba1ba7-0"
             width="744.09448"
             height="1052.3622" />
          <use
             id="use3429"
             y="156.198"
             x="355.01852"
             xlink:href="#textext-b9ba1ba7-4"
             width="744.09448"
             height="1052.3622" />
        </g>
        <path
           id="path3431"
           transform="matrix(1,0,0,-1,349.833,160.447)"
           d="m -0.333,-0.053 11,0"
           style="fill:none;stroke:#000000;stroke-width:1;stroke-linecap:butt;stroke-linejoin:miter;stroke-miterlimit:10;stroke-opacity:1"
           inkscape:connector-curvature="0" />
        <g
           id="g3433"
           style="fill:#000000;fill-opacity:1">
          <use
             id="use3435"
             y="169.772"
             x="350.655"
             xlink:href="#textext-b9ba1ba7-0"
             width="744.09448"
             height="1052.3622" />
          <use
             id="use3437"
             y="169.772"
             x="355.84055"
             xlink:href="#textext-b9ba1ba7-2"
             width="744.09448"
             height="1052.3622" />
        </g>
        <g
           id="g3439"
           style="fill:#000000;fill-opacity:1">
          <use
             id="use3441"
             y="162.938"
             x="371.41901"
             xlink:href="#textext-b9ba1ba7-8"
             width="744.09448"
             height="1052.3622" />
        </g>
        <g
           id="g3443"
           style="fill:#000000;fill-opacity:1">
          <use
             id="use3445"
             y="162.938"
             x="389.13"
             xlink:href="#textext-b9ba1ba7-1"
             width="744.09448"
             height="1052.3622" />
        </g>
        <g
           id="g3447"
           style="fill:#000000;fill-opacity:1">
          <use
             id="use3449"
             y="162.938"
             x="394.82401"
             xlink:href="#textext-b9ba1ba7-9"
             width="744.09448"
             height="1052.3622" />
        </g>
        <g
           id="g3451"
           style="fill:#000000;fill-opacity:1">
          <use
             id="use3453"
             y="162.938"
             x="398.698"
             xlink:href="#textext-b9ba1ba7-5"
             width="744.09448"
             height="1052.3622" />
        </g>
        <g
           id="g3455"
           style="fill:#000000;fill-opacity:1">
          <use
             id="use3457"
             y="162.938"
             x="406.06299"
             xlink:href="#textext-b9ba1ba7-11"
             width="744.09448"
             height="1052.3622" />
        </g>
        <g
           id="g3459"
           style="fill:#000000;fill-opacity:1">
          <use
             id="use3461"
             y="162.938"
             x="416.026"
             xlink:href="#textext-b9ba1ba7-6"
             width="744.09448"
             height="1052.3622" />
        </g>
        <g
           id="g3463"
           style="fill:#000000;fill-opacity:1">
          <use
             id="use3465"
             y="162.938"
             x="421.09698"
             xlink:href="#textext-b9ba1ba7-10"
             width="744.09448"
             height="1052.3622" />
        </g>
        <g
           id="g3467"
           style="fill:#000000;fill-opacity:1">
          <use
             id="use3469"
             y="162.938"
             x="427.185"
             xlink:href="#textext-b9ba1ba7-11"
             width="744.09448"
             height="1052.3622" />
        </g>
        <g
           id="g3471"
           style="fill:#000000;fill-opacity:1">
          <use
             id="use3473"
             y="162.938"
             x="437.14801"
             xlink:href="#textext-b9ba1ba7-4"
             width="744.09448"
             height="1052.3622" />
        </g>
        <g
           id="g3475"
           style="fill:#000000;fill-opacity:1">
          <use
             id="use3477"
             y="180.675"
             x="350.004"
             xlink:href="#textext-b9ba1ba7-0"
             width="744.09448"
             height="1052.3622" />
          <use
             id="use3479"
             y="180.675"
             x="355.18954"
             xlink:href="#textext-b9ba1ba7-6"
             width="744.09448"
             height="1052.3622" />
        </g>
        <path
           id="path3481"
           transform="matrix(1,0,0,-1,350.004,184.924)"
           d="m 0.496,0.424 10,0"
           style="fill:none;stroke:#000000;stroke-width:1;stroke-linecap:butt;stroke-linejoin:miter;stroke-miterlimit:10;stroke-opacity:1"
           inkscape:connector-curvature="0" />
        <g
           id="g3483"
           style="fill:#000000;fill-opacity:1">
          <use
             id="use3485"
             y="194.24899"
             x="350.741"
             xlink:href="#textext-b9ba1ba7-0"
             width="744.09448"
             height="1052.3622" />
          <use
             id="use3487"
             y="194.24899"
             x="355.92654"
             xlink:href="#textext-b9ba1ba7-2"
             width="744.09448"
             height="1052.3622" />
        </g>
        <g
           id="g3489"
           style="fill:#000000;fill-opacity:1">
          <use
             id="use3491"
             y="187.41499"
             x="371.41901"
             xlink:href="#textext-b9ba1ba7-8"
             width="744.09448"
             height="1052.3622" />
        </g>
        <g
           id="g3493"
           style="fill:#000000;fill-opacity:1">
          <use
             id="use3495"
             y="187.41499"
             x="389.13"
             xlink:href="#textext-b9ba1ba7-1"
             width="744.09448"
             height="1052.3622" />
          <use
             id="use3497"
             y="187.41499"
             x="394.82364"
             xlink:href="#textext-b9ba1ba7-4"
             width="744.09448"
             height="1052.3622" />
        </g>
        <g
           id="g3499"
           style="fill:#000000;fill-opacity:1">
          <use
             id="use3501"
             y="187.41499"
             x="402.28"
             xlink:href="#textext-b9ba1ba7-11"
             width="744.09448"
             height="1052.3622" />
        </g>
        <g
           id="g3503"
           style="fill:#000000;fill-opacity:1">
          <use
             id="use3505"
             y="187.41499"
             x="412.242"
             xlink:href="#textext-b9ba1ba7-7"
             width="744.09448"
             height="1052.3622" />
        </g>
        <g
           id="g3507"
           style="fill:#000000;fill-opacity:1">
          <use
             id="use3509"
             y="187.41499"
             x="418.40488"
             xlink:href="#textext-b9ba1ba7-6"
             width="744.09448"
             height="1052.3622" />
        </g>
      </g>
    </g>
  </g>
</svg>
