<?xml version="1.0" encoding="UTF-8" standalone="no"?>
<!-- Created with Inkscape (http://www.inkscape.org/) -->

<svg
   xmlns:ns0="http://www.iki.fi/pav/software/textext/"
   xmlns:dc="http://purl.org/dc/elements/1.1/"
   xmlns:cc="http://creativecommons.org/ns#"
   xmlns:rdf="http://www.w3.org/1999/02/22-rdf-syntax-ns#"
   xmlns:svg="http://www.w3.org/2000/svg"
   xmlns="http://www.w3.org/2000/svg"
   xmlns:xlink="http://www.w3.org/1999/xlink"
   xmlns:sodipodi="http://sodipodi.sourceforge.net/DTD/sodipodi-0.dtd"
   xmlns:inkscape="http://www.inkscape.org/namespaces/inkscape"
   width="250.03146"
   height="29.261715"
   id="svg2"
   version="1.1"
   inkscape:version="0.48.3.1 r9886"
   sodipodi:docname="mapaLogistico.svg">
  <sodipodi:namedview
     id="base"
     pagecolor="#ffffff"
     bordercolor="#666666"
     borderopacity="1.0"
     inkscape:pageopacity="0.0"
     inkscape:pageshadow="2"
     inkscape:zoom="0.35"
     inkscape:cx="126.27109"
     inkscape:cy="-387.24841"
     inkscape:document-units="px"
     inkscape:current-layer="layer1"
     showgrid="false"
     inkscape:window-width="1366"
     inkscape:window-height="709"
     inkscape:window-x="0"
     inkscape:window-y="27"
     inkscape:window-maximized="1" />
  <defs
     id="defs4">
    <inkscape:perspective
       id="perspective10"
       inkscape:persp3d-origin="372.04724 : 350.78739 : 1"
       inkscape:vp_z="744.09448 : 526.18109 : 1"
       inkscape:vp_y="0 : 1000 : 0"
       inkscape:vp_x="0 : 526.18109 : 1"
       sodipodi:type="inkscape:persp3d" />
  </defs>
  <metadata
     id="metadata7">
    <rdf:RDF>
      <cc:Work
         rdf:about="">
        <dc:format>image/svg+xml</dc:format>
        <dc:type
           rdf:resource="http://purl.org/dc/dcmitype/StillImage" />
        <dc:title />
      </cc:Work>
    </rdf:RDF>
  </metadata>
  <g
     id="layer1"
     inkscape:groupmode="layer"
     inkscape:label="Camada 1"
     transform="translate(-223.72891,-127.28063)">
    <g
       id="g2822"
       ns0:preamble=""
       ns0:text="$x_{n+1}=4 x_{n}(1-x_{n}) $"
       transform="matrix(2.9307507,0,0,2.9307507,-431.96467,-245.74715)"
       style="fill:#000000">
      <defs
         id="defs2824">
        <g
           id="g2826">
          <symbol
             id="textext-084b686b-0"
             overflow="visible"
             style="overflow:visible">
            <path
               id="path2829"
               d=""
               style="stroke:none" />
          </symbol>
          <symbol
             id="textext-084b686b-1"
             overflow="visible"
             style="overflow:visible">
            <path
               id="path2832"
               d="M 3.328125,-3.015625 C 3.390625,-3.265625 3.625,-4.1875 4.3125,-4.1875 c 0.046875,0 0.296875,0 0.5,0.125 C 4.53125,-4 4.34375,-3.765625 4.34375,-3.515625 c 0,0.15625 0.109375,0.34375 0.375,0.34375 0.21875,0 0.53125,-0.171875 0.53125,-0.578125 0,-0.515625 -0.578125,-0.65625 -0.921875,-0.65625 -0.578125,0 -0.921875,0.53125 -1.046875,0.75 -0.25,-0.65625 -0.78125,-0.75 -1.078125,-0.75 -1.03125,0 -1.609375,1.28125 -1.609375,1.53125 0,0.109375 0.109375,0.109375 0.125,0.109375 0.078125,0 0.109375,-0.03125 0.125,-0.109375 0.34375,-1.0625 1,-1.3125 1.34375,-1.3125 0.1875,0 0.53125,0.09375 0.53125,0.671875 0,0.3125 -0.171875,0.96875 -0.53125,2.375 -0.15625,0.609375 -0.515625,1.03125 -0.953125,1.03125 -0.0625,0 -0.28125,0 -0.5,-0.125 0.25,-0.0625 0.46875,-0.265625 0.46875,-0.546875 0,-0.265625 -0.21875,-0.34375 -0.359375,-0.34375 -0.3125,0 -0.546875,0.25 -0.546875,0.578125 0,0.453125 0.484375,0.65625 0.921875,0.65625 0.671875,0 1.03125,-0.703125 1.046875,-0.75 0.125,0.359375 0.484375,0.75 1.078125,0.75 1.03125,0 1.59375,-1.28125 1.59375,-1.53125 0,-0.109375 -0.078125,-0.109375 -0.109375,-0.109375 -0.09375,0 -0.109375,0.046875 -0.140625,0.109375 -0.328125,1.078125 -1,1.3125 -1.3125,1.3125 -0.390625,0 -0.546875,-0.3125 -0.546875,-0.65625 0,-0.21875 0.046875,-0.4375 0.15625,-0.875 l 0.34375,-1.375 z m 0,0"
               style="stroke:none" />
          </symbol>
          <symbol
             id="textext-084b686b-2"
             overflow="visible"
             style="overflow:visible">
            <path
               id="path2835"
               d=""
               style="stroke:none" />
          </symbol>
          <symbol
             id="textext-084b686b-3"
             overflow="visible"
             style="overflow:visible">
            <path
               id="path2838"
               d="m 0.84375,-0.4375 c -0.015625,0.09375 -0.0625,0.265625 -0.0625,0.28125 0,0.15625 0.125,0.21875 0.234375,0.21875 0.125,0 0.234375,-0.078125 0.28125,-0.140625 0.03125,-0.0625 0.078125,-0.296875 0.125,-0.4375 0.03125,-0.125 0.109375,-0.453125 0.140625,-0.625 0.046875,-0.15625 0.09375,-0.3125 0.125,-0.46875 0.078125,-0.28125 0.09375,-0.34375 0.296875,-0.625 C 2.171875,-2.515625 2.5,-2.875 3.03125,-2.875 c 0.390625,0 0.40625,0.359375 0.40625,0.484375 0,0.421875 -0.296875,1.1875 -0.40625,1.484375 -0.078125,0.203125 -0.109375,0.265625 -0.109375,0.375 0,0.375 0.296875,0.59375 0.65625,0.59375 0.703125,0 1,-0.953125 1,-1.0625 0,-0.09375 -0.078125,-0.09375 -0.109375,-0.09375 -0.09375,0 -0.09375,0.046875 -0.125,0.125 C 4.1875,-0.40625 3.875,-0.125 3.609375,-0.125 c -0.15625,0 -0.1875,-0.09375 -0.1875,-0.25 0,-0.15625 0.046875,-0.25 0.171875,-0.5625 0.078125,-0.21875 0.359375,-0.953125 0.359375,-1.34375 0,-0.671875 -0.53125,-0.796875 -0.90625,-0.796875 -0.578125,0 -0.96875,0.359375 -1.171875,0.640625 -0.046875,-0.484375 -0.453125,-0.640625 -0.75,-0.640625 -0.296875,0 -0.453125,0.21875 -0.546875,0.375 -0.15625,0.265625 -0.25,0.65625 -0.25,0.703125 0,0.078125 0.09375,0.078125 0.125,0.078125 0.09375,0 0.09375,-0.015625 0.140625,-0.203125 0.109375,-0.40625 0.25,-0.75 0.515625,-0.75 0.1875,0 0.234375,0.15625 0.234375,0.34375 0,0.125 -0.0625,0.390625 -0.125,0.578125 -0.046875,0.1875 -0.109375,0.46875 -0.140625,0.625 L 0.84375,-0.4375 z m 0,0"
               style="stroke:none" />
          </symbol>
          <symbol
             id="textext-084b686b-4"
             overflow="visible"
             style="overflow:visible">
            <path
               id="path2841"
               d=""
               style="stroke:none" />
          </symbol>
          <symbol
             id="textext-084b686b-5"
             overflow="visible"
             style="overflow:visible">
            <path
               id="path2844"
               d="m 3.21875,-1.578125 2.140625,0 c 0.09375,0 0.25,0 0.25,-0.15625 0,-0.1875 -0.15625,-0.1875 -0.25,-0.1875 l -2.140625,0 0,-2.140625 c 0,-0.078125 0,-0.25 -0.15625,-0.25 -0.171875,0 -0.171875,0.15625 -0.171875,0.25 l 0,2.140625 -2.140625,0 c -0.09375,0 -0.265625,0 -0.265625,0.171875 0,0.171875 0.15625,0.171875 0.265625,0.171875 l 2.140625,0 0,2.140625 c 0,0.09375 0,0.265625 0.15625,0.265625 0.171875,0 0.171875,-0.171875 0.171875,-0.265625 l 0,-2.140625 z m 0,0"
               style="stroke:none" />
          </symbol>
          <symbol
             id="textext-084b686b-6"
             overflow="visible"
             style="overflow:visible">
            <path
               id="path2847"
               d="m 2.328125,-4.4375 c 0,-0.1875 0,-0.1875 -0.203125,-0.1875 -0.453125,0.4375 -1.078125,0.4375 -1.359375,0.4375 l 0,0.25 c 0.15625,0 0.625,0 1,-0.1875 l 0,3.546875 c 0,0.234375 0,0.328125 -0.6875,0.328125 l -0.265625,0 0,0.25 c 0.125,0 0.984375,-0.03125 1.234375,-0.03125 0.21875,0 1.09375,0.03125 1.25,0.03125 l 0,-0.25 -0.265625,0 c -0.703125,0 -0.703125,-0.09375 -0.703125,-0.328125 l 0,-3.859375 z m 0,0"
               style="stroke:none" />
          </symbol>
          <symbol
             id="textext-084b686b-7"
             overflow="visible"
             style="overflow:visible">
            <path
               id="path2850"
               d=""
               style="stroke:none" />
          </symbol>
          <symbol
             id="textext-084b686b-8"
             overflow="visible"
             style="overflow:visible">
            <path
               id="path2853"
               d="m 6.84375,-3.265625 c 0.15625,0 0.34375,0 0.34375,-0.1875 C 7.1875,-3.65625 7,-3.65625 6.859375,-3.65625 l -5.96875,0 c -0.140625,0 -0.328125,0 -0.328125,0.203125 0,0.1875 0.1875,0.1875 0.328125,0.1875 l 5.953125,0 z m 0.015625,1.9375 c 0.140625,0 0.328125,0 0.328125,-0.203125 0,-0.1875 -0.1875,-0.1875 -0.34375,-0.1875 l -5.953125,0 c -0.140625,0 -0.328125,0 -0.328125,0.1875 0,0.203125 0.1875,0.203125 0.328125,0.203125 l 5.96875,0 z m 0,0"
               style="stroke:none" />
          </symbol>
          <symbol
             id="textext-084b686b-9"
             overflow="visible"
             style="overflow:visible">
            <path
               id="path2856"
               d="m 2.9375,-1.640625 0,0.859375 c 0,0.359375 -0.03125,0.46875 -0.765625,0.46875 l -0.203125,0 0,0.3125 C 2.375,-0.03125 2.890625,-0.03125 3.3125,-0.03125 c 0.421875,0 0.9375,0 1.359375,0.03125 l 0,-0.3125 -0.21875,0 c -0.734375,0 -0.75,-0.109375 -0.75,-0.46875 l 0,-0.859375 0.984375,0 0,-0.3125 -0.984375,0 0,-4.53125 c 0,-0.203125 0,-0.265625 -0.171875,-0.265625 -0.078125,0 -0.109375,0 -0.1875,0.125 l -3.0625,4.671875 0,0.3125 2.65625,0 z m 0.046875,-0.3125 -2.421875,0 2.421875,-3.71875 0,3.71875 z m 0,0"
               style="stroke:none" />
          </symbol>
          <symbol
             id="textext-084b686b-10"
             overflow="visible"
             style="overflow:visible">
            <path
               id="path2859"
               d="m 3.296875,2.390625 c 0,-0.03125 0,-0.046875 -0.171875,-0.21875 C 1.890625,0.921875 1.5625,-0.96875 1.5625,-2.5 c 0,-1.734375 0.375,-3.46875 1.609375,-4.703125 0.125,-0.125 0.125,-0.140625 0.125,-0.171875 0,-0.078125 -0.03125,-0.109375 -0.09375,-0.109375 -0.109375,0 -1,0.6875 -1.59375,1.953125 -0.5,1.09375 -0.625,2.203125 -0.625,3.03125 0,0.78125 0.109375,1.984375 0.65625,3.125 C 2.25,1.84375 3.09375,2.5 3.203125,2.5 c 0.0625,0 0.09375,-0.03125 0.09375,-0.109375 z m 0,0"
               style="stroke:none" />
          </symbol>
          <symbol
             id="textext-084b686b-11"
             overflow="visible"
             style="overflow:visible">
            <path
               id="path2862"
               d="m 2.9375,-6.375 c 0,-0.25 0,-0.265625 -0.234375,-0.265625 C 2.078125,-6 1.203125,-6 0.890625,-6 l 0,0.3125 c 0.203125,0 0.78125,0 1.296875,-0.265625 l 0,5.171875 c 0,0.359375 -0.03125,0.46875 -0.921875,0.46875 l -0.3125,0 0,0.3125 c 0.34375,-0.03125 1.203125,-0.03125 1.609375,-0.03125 0.390625,0 1.265625,0 1.609375,0.03125 l 0,-0.3125 -0.3125,0 c -0.90625,0 -0.921875,-0.109375 -0.921875,-0.46875 l 0,-5.59375 z m 0,0"
               style="stroke:none" />
          </symbol>
          <symbol
             id="textext-084b686b-12"
             overflow="visible"
             style="overflow:visible">
            <path
               id="path2865"
               d="m 2.875,-2.5 c 0,-0.765625 -0.109375,-1.96875 -0.65625,-3.109375 -0.59375,-1.21875 -1.453125,-1.875 -1.546875,-1.875 -0.0625,0 -0.109375,0.046875 -0.109375,0.109375 0,0.03125 0,0.046875 0.1875,0.234375 0.984375,0.984375 1.546875,2.5625 1.546875,4.640625 0,1.71875 -0.359375,3.46875 -1.59375,4.71875 C 0.5625,2.34375 0.5625,2.359375 0.5625,2.390625 0.5625,2.453125 0.609375,2.5 0.671875,2.5 0.765625,2.5 1.671875,1.8125 2.25,0.546875 2.765625,-0.546875 2.875,-1.65625 2.875,-2.5 z m 0,0"
               style="stroke:none" />
          </symbol>
          <symbol
             id="textext-084b686b-13"
             overflow="visible"
             style="overflow:visible">
            <path
               id="path2868"
               d=""
               style="stroke:none" />
          </symbol>
          <symbol
             id="textext-084b686b-14"
             overflow="visible"
             style="overflow:visible">
            <path
               id="path2871"
               d="m 6.5625,-2.296875 c 0.171875,0 0.359375,0 0.359375,-0.203125 0,-0.1875 -0.1875,-0.1875 -0.359375,-0.1875 l -5.390625,0 c -0.171875,0 -0.34375,0 -0.34375,0.1875 0,0.203125 0.171875,0.203125 0.34375,0.203125 l 5.390625,0 z m 0,0"
               style="stroke:none" />
          </symbol>
        </g>
      </defs>
      <g
         id="textext-084b686b-15"
         style="fill:#000000">
        <g
           id="g2874"
           style="fill:#000000;fill-opacity:1">
          <use
             id="use2876"
             y="134.765"
             x="223.43201"
             xlink:href="#textext-084b686b-1"
             width="744.09448"
             height="1052.3622"
             style="fill:#000000" />
        </g>
        <g
           id="g2878"
           style="fill:#000000;fill-opacity:1">
          <use
             id="use2880"
             y="136.259"
             x="229.12601"
             xlink:href="#textext-084b686b-3"
             width="744.09448"
             height="1052.3622"
             style="fill:#000000" />
        </g>
        <g
           id="g2882"
           style="fill:#000000;fill-opacity:1">
          <use
             id="use2884"
             y="136.259"
             x="234.05099"
             xlink:href="#textext-084b686b-5"
             width="744.09448"
             height="1052.3622"
             style="fill:#000000" />
          <use
             id="use2886"
             y="136.259"
             x="240.16702"
             xlink:href="#textext-084b686b-6"
             width="744.09448"
             height="1052.3622"
             style="fill:#000000" />
        </g>
        <g
           id="g2888"
           style="fill:#000000;fill-opacity:1">
          <use
             id="use2890"
             y="134.765"
             x="247.40401"
             xlink:href="#textext-084b686b-8"
             width="744.09448"
             height="1052.3622"
             style="fill:#000000" />
        </g>
        <g
           id="g2892"
           style="fill:#000000;fill-opacity:1">
          <use
             id="use2894"
             y="134.765"
             x="257.92252"
             xlink:href="#textext-084b686b-9"
             width="744.09448"
             height="1052.3622"
             style="fill:#000000" />
        </g>
        <g
           id="g2896"
           style="fill:#000000;fill-opacity:1">
          <use
             id="use2898"
             y="134.765"
             x="262.901"
             xlink:href="#textext-084b686b-1"
             width="744.09448"
             height="1052.3622"
             style="fill:#000000" />
        </g>
        <g
           id="g2900"
           style="fill:#000000;fill-opacity:1">
          <use
             id="use2902"
             y="136.259"
             x="268.595"
             xlink:href="#textext-084b686b-3"
             width="744.09448"
             height="1052.3622"
             style="fill:#000000" />
        </g>
        <g
           id="g2904"
           style="fill:#000000;fill-opacity:1">
          <use
             id="use2906"
             y="134.765"
             x="274.01801"
             xlink:href="#textext-084b686b-10"
             width="744.09448"
             height="1052.3622"
             style="fill:#000000" />
          <use
             id="use2908"
             y="134.765"
             x="277.89246"
             xlink:href="#textext-084b686b-11"
             width="744.09448"
             height="1052.3622"
             style="fill:#000000" />
        </g>
        <g
           id="g2910"
           style="fill:#000000;fill-opacity:1">
          <use
             id="use2912"
             y="134.765"
             x="285.08701"
             xlink:href="#textext-084b686b-14"
             width="744.09448"
             height="1052.3622"
             style="fill:#000000" />
        </g>
        <g
           id="g2914"
           style="fill:#000000;fill-opacity:1">
          <use
             id="use2916"
             y="134.765"
             x="295.04999"
             xlink:href="#textext-084b686b-1"
             width="744.09448"
             height="1052.3622"
             style="fill:#000000" />
        </g>
        <g
           id="g2918"
           style="fill:#000000;fill-opacity:1">
          <use
             id="use2920"
             y="136.259"
             x="300.74399"
             xlink:href="#textext-084b686b-3"
             width="744.09448"
             height="1052.3622"
             style="fill:#000000" />
        </g>
        <g
           id="g2922"
           style="fill:#000000;fill-opacity:1">
          <use
             id="use2924"
             y="134.765"
             x="306.16699"
             xlink:href="#textext-084b686b-12"
             width="744.09448"
             height="1052.3622"
             style="fill:#000000" />
        </g>
      </g>
    </g>
  </g>
</svg>
