<?xml version="1.0" encoding="UTF-8" standalone="no"?>
<!-- Created with Inkscape (http://www.inkscape.org/) -->

<svg
   xmlns:ns0="http://www.iki.fi/pav/software/textext/"
   xmlns:dc="http://purl.org/dc/elements/1.1/"
   xmlns:cc="http://creativecommons.org/ns#"
   xmlns:rdf="http://www.w3.org/1999/02/22-rdf-syntax-ns#"
   xmlns:svg="http://www.w3.org/2000/svg"
   xmlns="http://www.w3.org/2000/svg"
   xmlns:sodipodi="http://sodipodi.sourceforge.net/DTD/sodipodi-0.dtd"
   xmlns:inkscape="http://www.inkscape.org/namespaces/inkscape"
   width="66.930031"
   height="24.668776"
   id="svg8172"
   version="1.1"
   inkscape:version="0.48.1 r9760"
   sodipodi:docname="opSoma.svg"
   inkscape:export-filename="/home/kite/Dropbox/private/documentos/relatorioTccOdemir/apresentacaoCurtaTcc2/img/pontoFixoCon.png"
   inkscape:export-xdpi="90.409485"
   inkscape:export-ydpi="90.409485">
  <sodipodi:namedview
     id="base"
     pagecolor="#ffffff"
     bordercolor="#666666"
     borderopacity="1.0"
     inkscape:pageopacity="0.0"
     inkscape:pageshadow="2"
     inkscape:zoom="3.3319985"
     inkscape:cx="75.649759"
     inkscape:cy="13.909536"
     inkscape:document-units="px"
     inkscape:current-layer="layer1"
     showgrid="false"
     inkscape:window-width="1366"
     inkscape:window-height="721"
     inkscape:window-x="-2"
     inkscape:window-y="-3"
     inkscape:window-maximized="1"
     fit-margin-top="0"
     fit-margin-left="0"
     fit-margin-right="0"
     fit-margin-bottom="0" />
  <defs
     id="defs8174" />
  <metadata
     id="metadata8177">
    <rdf:RDF>
      <cc:Work
         rdf:about="">
        <dc:format>image/svg+xml</dc:format>
        <dc:type
           rdf:resource="http://purl.org/dc/dcmitype/StillImage" />
        <dc:title></dc:title>
      </cc:Work>
    </rdf:RDF>
  </metadata>
  <g
     inkscape:label="Layer 1"
     inkscape:groupmode="layer"
     id="layer1"
     transform="translate(-26.059685,-39.366518)">
    <g
       style="font-style:normal;font-variant:normal;font-weight:normal;font-stretch:normal;letter-spacing:normal;word-spacing:normal;text-anchor:start;fill:none;stroke:#000000;stroke-linecap:butt;stroke-linejoin:miter;stroke-miterlimit:10.43299961;stroke-opacity:1;stroke-dasharray:none;stroke-dashoffset:0"
       ns0:preamble=""
       ns0:text="$a-b$"
       text-anchor="start"
       word-spacing="normal"
       letter-spacing="normal"
       font-size-adjust="none"
       font-stretch="normal"
       font-weight="normal"
       font-variant="normal"
       font-style="normal"
       fill-opacity="1"
       fill-rule="evenodd"
       fill="none"
       stroke-opacity="1"
       stroke-dashoffset="0"
       stroke-dasharray="none"
       stroke-miterlimit="10.433"
       stroke-linejoin="miter"
       stroke-linecap="butt"
       stroke="black"
       xml:space="preserve"
       transform="matrix(3.1450233,0,0,-3.1450233,-677.73756,2285.208)"
       id="content">
<path
   id="path3121"
   fill="black"
   stroke-width="0"
   d="M227.15,710.89 L227.13,710.92 L227.12,710.95 L227.1,710.99 L227.08,711.02 L227.06,711.05 L227.04,711.08 L227.02,711.11 L226.99,711.14 L226.97,711.17 L226.95,711.2 L226.92,711.22 L226.9,711.25 L226.87,711.28 L226.85,711.3 L226.82,711.32 L226.79,711.34 L226.76,711.36 L226.73,711.38 L226.7,711.4 L226.67,711.42 L226.64,711.44 L226.61,711.45 L226.57,711.46 L226.54,711.48 L226.51,711.49 L226.47,711.5 L226.43,711.5 L226.39,711.51 L226.36,711.52 L226.32,711.52 L226.27,711.52 L226.23,711.52 C225.07,711.52,223.83,710.06,223.83,708.61 C223.83,707.67,224.38,707.02,225.16,707.02 L225.18,707.23 C224.68,707.23,224.54,707.78,224.54,708.17 C224.54,708.67,224.86,709.89,225.09,710.35 C225.4,710.94,225.84,711.3,226.24,711.3 C226.89,711.3,227.03,710.49,227.03,710.43 C227.03,710.37,227.01,710.31,227,710.26 L226.5,708.31 C226.45,708.13,226.45,708.11,226.3,707.94 C225.86,707.39,225.46,707.23,225.18,707.23 L225.16,707.02 C225.36,707.02,225.85,707.05,226.45,707.76 C226.53,707.34,226.88,707.02,227.36,707.02 C227.71,707.02,227.94,707.24,228.1,707.56 C228.27,707.92,228.4,708.53,228.4,708.55 C228.4,708.65,228.31,708.65,228.28,708.65 C228.18,708.65,228.17,708.61,228.14,708.47 C227.97,707.82,227.79,707.23,227.38,707.23 C227.11,707.23,227.08,707.49,227.08,707.69 C227.08,707.91,227.1,707.99,227.21,708.43 C227.32,708.85,227.34,708.95,227.43,709.32 C227.6,709.96,227.64,710.15,227.79,710.72 C227.86,711,227.86,711.02,227.86,711.06 C227.86,711.22,227.74,711.33,227.57,711.33 C227.33,711.33,227.18,711.11,227.15,710.89 Z " />
<path
   id="path3123"
   fill="black"
   stroke-width="0"
   d="M237.5,709.41 L237.53,709.41 L237.56,709.41 L237.58,709.42 L237.6,709.42 L237.61,709.42 L237.63,709.42 L237.64,709.42 L237.65,709.42 L237.67,709.42 L237.68,709.43 L237.69,709.43 L237.71,709.43 L237.72,709.44 L237.73,709.44 L237.74,709.45 L237.75,709.46 L237.76,709.46 L237.77,709.47 L237.78,709.48 L237.79,709.49 L237.79,709.49 L237.8,709.5 L237.8,709.5 L237.81,709.51 L237.81,709.51 L237.81,709.52 L237.81,709.53 L237.82,709.53 L237.82,709.54 L237.82,709.55 L237.82,709.55 L237.83,709.56 L237.83,709.57 L237.83,709.58 L237.83,709.59 L237.83,709.59 L237.83,709.6 L237.83,709.61 C237.83,709.81,237.64,709.81,237.5,709.81 H232.07 C231.93,709.81,231.74,709.81,231.74,709.61 C231.74,709.41,231.93,709.41,232.07,709.41 Z " />
<path
   id="path3125"
   fill="black"
   stroke-width="0"
   d="M243.26,713.92 L243.26,713.92 L243.26,713.92 L243.26,713.93 L243.26,713.93 L243.26,713.93 L243.26,713.93 L243.26,713.94 L243.26,713.94 L243.25,713.94 L243.25,713.95 L243.25,713.95 L243.25,713.96 L243.25,713.96 L243.25,713.97 L243.25,713.97 L243.24,713.98 L243.24,713.98 L243.24,713.99 L243.23,713.99 L243.23,714 L243.23,714 L243.22,714 L243.22,714 L243.22,714.01 L243.22,714.01 L243.21,714.01 L243.21,714.01 L243.21,714.01 L243.2,714.02 L243.2,714.02 L243.2,714.02 L243.19,714.02 L243.19,714.02 L243.18,714.02 L243.18,714.03 L243.18,714.03 L243.17,714.03 L243.17,714.03 L243.16,714.03 L243.16,714.03 L243.15,714.03 L243.15,714.03 L243.14,714.03 L243.13,714.03 L243.13,714.03 C242.9,714.03,242.17,713.95,241.91,713.93 C241.83,713.92,241.72,713.91,241.72,713.73 C241.72,713.61,241.81,713.61,241.96,713.61 C242.44,713.61,242.46,713.54,242.46,713.45 C242.46,713.38,242.37,713.04,242.32,712.83 L241.5,709.58 C241.38,709.09,241.34,708.93,241.34,708.58 C241.34,707.63,241.87,707.02,242.61,707.02 V707.23 C242.27,707.23,241.94,707.5,241.94,708.24 C241.94,708.43,241.94,708.62,242.1,709.24 L242.32,710.16 C242.38,710.38,242.38,710.4,242.47,710.51 C242.96,711.16,243.41,711.3,243.67,711.3 C244.02,711.3,244.29,711.01,244.29,710.37 C244.29,709.78,243.96,708.64,243.79,708.26 C243.46,707.59,243,707.23,242.61,707.23 V707.02 C243.79,707.02,245.01,708.5,245.01,709.93 C245.01,710.84,244.48,711.52,243.69,711.52 C243.23,711.52,242.82,711.23,242.52,710.93 Z " />
</g>  </g>
</svg>
