<?xml version="1.0" encoding="UTF-8" standalone="no"?>
<!-- Created with Inkscape (http://www.inkscape.org/) -->

<svg
   xmlns:ns0="http://www.iki.fi/pav/software/textext/"
   xmlns:dc="http://purl.org/dc/elements/1.1/"
   xmlns:cc="http://creativecommons.org/ns#"
   xmlns:rdf="http://www.w3.org/1999/02/22-rdf-syntax-ns#"
   xmlns:svg="http://www.w3.org/2000/svg"
   xmlns="http://www.w3.org/2000/svg"
   xmlns:xlink="http://www.w3.org/1999/xlink"
   xmlns:sodipodi="http://sodipodi.sourceforge.net/DTD/sodipodi-0.dtd"
   xmlns:inkscape="http://www.inkscape.org/namespaces/inkscape"
   width="260.89996"
   height="26.594604"
   id="svg32293"
   version="1.1"
   inkscape:version="0.47 r22583"
   sodipodi:docname="sensibilidadeX0.svg">
  <sodipodi:namedview
     id="base"
     pagecolor="#ffffff"
     bordercolor="#666666"
     borderopacity="1.0"
     inkscape:pageopacity="0.0"
     inkscape:pageshadow="2"
     inkscape:zoom="0.98994949"
     inkscape:cx="112.88751"
     inkscape:cy="-125.25394"
     inkscape:document-units="px"
     inkscape:current-layer="layer1"
     showgrid="false"
     inkscape:window-width="1280"
     inkscape:window-height="727"
     inkscape:window-x="0"
     inkscape:window-y="25"
     inkscape:window-maximized="1" />
  <defs
     id="defs32295">
    <inkscape:perspective
       sodipodi:type="inkscape:persp3d"
       inkscape:vp_x="0 : 526.18109 : 1"
       inkscape:vp_y="0 : 1000 : 0"
       inkscape:vp_z="744.09448 : 526.18109 : 1"
       inkscape:persp3d-origin="372.04724 : 350.78739 : 1"
       id="perspective32301" />
  </defs>
  <metadata
     id="metadata32298">
    <rdf:RDF>
      <cc:Work
         rdf:about="">
        <dc:format>image/svg+xml</dc:format>
        <dc:type
           rdf:resource="http://purl.org/dc/dcmitype/StillImage" />
        <dc:title></dc:title>
      </cc:Work>
    </rdf:RDF>
  </metadata>
  <g
     inkscape:label="Camada 1"
     inkscape:groupmode="layer"
     id="layer1"
     transform="translate(-80.871683,-200.92948)">
    <g
       transform="matrix(2.6481624,0,0,2.6481624,-511.59873,-136.21133)"
       ns0:text="$x=0.3$"
       ns0:preamble=""
       id="g32309"
       style="fill:#800000">
      <defs
         id="defs32311">
        <g
           id="g32313">
          <symbol
             style="overflow:visible"
             overflow="visible"
             id="textext-915abdc2-0">
            <path
               style="stroke:none"
               d=""
               id="path32316" />
          </symbol>
          <symbol
             style="overflow:visible"
             overflow="visible"
             id="textext-915abdc2-1">
            <path
               style="stroke:none"
               d="M 3.328125,-3.015625 C 3.390625,-3.265625 3.625,-4.1875 4.3125,-4.1875 c 0.046875,0 0.296875,0 0.5,0.125 C 4.53125,-4 4.34375,-3.765625 4.34375,-3.515625 c 0,0.15625 0.109375,0.34375 0.375,0.34375 0.21875,0 0.53125,-0.171875 0.53125,-0.578125 0,-0.515625 -0.578125,-0.65625 -0.921875,-0.65625 -0.578125,0 -0.921875,0.53125 -1.046875,0.75 -0.25,-0.65625 -0.78125,-0.75 -1.078125,-0.75 -1.03125,0 -1.609375,1.28125 -1.609375,1.53125 0,0.109375 0.109375,0.109375 0.125,0.109375 0.078125,0 0.109375,-0.03125 0.125,-0.109375 0.34375,-1.0625 1,-1.3125 1.34375,-1.3125 0.1875,0 0.53125,0.09375 0.53125,0.671875 0,0.3125 -0.171875,0.96875 -0.53125,2.375 -0.15625,0.609375 -0.515625,1.03125 -0.953125,1.03125 -0.0625,0 -0.28125,0 -0.5,-0.125 0.25,-0.0625 0.46875,-0.265625 0.46875,-0.546875 0,-0.265625 -0.21875,-0.34375 -0.359375,-0.34375 -0.3125,0 -0.546875,0.25 -0.546875,0.578125 0,0.453125 0.484375,0.65625 0.921875,0.65625 0.671875,0 1.03125,-0.703125 1.046875,-0.75 0.125,0.359375 0.484375,0.75 1.078125,0.75 1.03125,0 1.59375,-1.28125 1.59375,-1.53125 0,-0.109375 -0.078125,-0.109375 -0.109375,-0.109375 -0.09375,0 -0.109375,0.046875 -0.140625,0.109375 -0.328125,1.078125 -1,1.3125 -1.3125,1.3125 -0.390625,0 -0.546875,-0.3125 -0.546875,-0.65625 0,-0.21875 0.046875,-0.4375 0.15625,-0.875 l 0.34375,-1.375 z m 0,0"
               id="path32319" />
          </symbol>
          <symbol
             style="overflow:visible"
             overflow="visible"
             id="textext-915abdc2-2">
            <path
               style="stroke:none"
               d="m 1.90625,-0.53125 c 0,-0.28125 -0.234375,-0.53125 -0.515625,-0.53125 -0.296875,0 -0.53125,0.25 -0.53125,0.53125 C 0.859375,-0.234375 1.09375,0 1.390625,0 1.671875,0 1.90625,-0.234375 1.90625,-0.53125 z m 0,0"
               id="path32322" />
          </symbol>
          <symbol
             style="overflow:visible"
             overflow="visible"
             id="textext-915abdc2-3">
            <path
               style="stroke:none"
               d=""
               id="path32325" />
          </symbol>
          <symbol
             style="overflow:visible"
             overflow="visible"
             id="textext-915abdc2-4">
            <path
               style="stroke:none"
               d="m 6.84375,-3.265625 c 0.15625,0 0.34375,0 0.34375,-0.1875 C 7.1875,-3.65625 7,-3.65625 6.859375,-3.65625 l -5.96875,0 c -0.140625,0 -0.328125,0 -0.328125,0.203125 0,0.1875 0.1875,0.1875 0.328125,0.1875 l 5.953125,0 z m 0.015625,1.9375 c 0.140625,0 0.328125,0 0.328125,-0.203125 0,-0.1875 -0.1875,-0.1875 -0.34375,-0.1875 l -5.953125,0 c -0.140625,0 -0.328125,0 -0.328125,0.1875 0,0.203125 0.1875,0.203125 0.328125,0.203125 l 5.96875,0 z m 0,0"
               id="path32328" />
          </symbol>
          <symbol
             style="overflow:visible"
             overflow="visible"
             id="textext-915abdc2-5">
            <path
               style="stroke:none"
               d="m 4.578125,-3.1875 c 0,-0.796875 -0.046875,-1.59375 -0.390625,-2.328125 -0.453125,-0.96875 -1.28125,-1.125 -1.6875,-1.125 -0.609375,0 -1.328125,0.265625 -1.75,1.1875 -0.3125,0.6875 -0.359375,1.46875 -0.359375,2.265625 0,0.75 0.03125,1.640625 0.453125,2.40625 0.421875,0.796875 1.15625,1 1.640625,1 0.53125,0 1.296875,-0.203125 1.734375,-1.15625 0.3125,-0.6875 0.359375,-1.46875 0.359375,-2.25 z M 2.484375,0 C 2.09375,0 1.5,-0.25 1.328125,-1.203125 1.21875,-1.796875 1.21875,-2.71875 1.21875,-3.3125 c 0,-0.640625 0,-1.296875 0.078125,-1.828125 0.1875,-1.1875 0.9375,-1.28125 1.1875,-1.28125 0.328125,0 0.984375,0.1875 1.171875,1.171875 0.109375,0.5625 0.109375,1.3125 0.109375,1.9375 0,0.75 0,1.421875 -0.109375,2.0625 C 3.5,-0.296875 2.9375,0 2.484375,0 z m 0,0"
               id="path32331" />
          </symbol>
          <symbol
             style="overflow:visible"
             overflow="visible"
             id="textext-915abdc2-6">
            <path
               style="stroke:none"
               d="m 2.890625,-3.515625 c 0.8125,-0.265625 1.390625,-0.953125 1.390625,-1.75 0,-0.8125 -0.875,-1.375 -1.828125,-1.375 -1,0 -1.765625,0.59375 -1.765625,1.359375 0,0.328125 0.21875,0.515625 0.515625,0.515625 0.296875,0 0.5,-0.21875 0.5,-0.515625 0,-0.484375 -0.46875,-0.484375 -0.609375,-0.484375 0.296875,-0.5 0.953125,-0.625 1.3125,-0.625 0.421875,0 0.96875,0.21875 0.96875,1.109375 0,0.125 -0.03125,0.703125 -0.28125,1.140625 C 2.796875,-3.65625 2.453125,-3.625 2.203125,-3.625 2.125,-3.609375 1.890625,-3.59375 1.8125,-3.59375 c -0.078125,0.015625 -0.140625,0.03125 -0.140625,0.125 0,0.109375 0.0625,0.109375 0.234375,0.109375 l 0.4375,0 c 0.8125,0 1.1875,0.671875 1.1875,1.65625 0,1.359375 -0.6875,1.640625 -1.125,1.640625 -0.4375,0 -1.1875,-0.171875 -1.53125,-0.75 0.34375,0.046875 0.65625,-0.171875 0.65625,-0.546875 0,-0.359375 -0.265625,-0.5625 -0.546875,-0.5625 -0.25,0 -0.5625,0.140625 -0.5625,0.578125 0,0.90625 0.921875,1.5625 2.015625,1.5625 1.21875,0 2.125,-0.90625 2.125,-1.921875 0,-0.8125 -0.640625,-1.59375 -1.671875,-1.8125 z m 0,0"
               id="path32334" />
          </symbol>
        </g>
      </defs>
      <g
         id="textext-915abdc2-7"
         style="fill:#800000">
        <g
           style="fill:#800000;fill-opacity:1"
           id="g32337">
          <use
             height="1052.3622"
             width="744.09448"
             xlink:href="#textext-915abdc2-1"
             x="223.43201"
             y="134.765"
             id="use32339"
             style="fill:#800000" />
        </g>
        <g
           style="fill:#800000;fill-opacity:1"
           id="g32341">
          <use
             height="1052.3622"
             width="744.09448"
             xlink:href="#textext-915abdc2-4"
             x="231.89301"
             y="134.765"
             id="use32343"
             style="fill:#800000" />
        </g>
        <g
           style="fill:#800000;fill-opacity:1"
           id="g32345">
          <use
             height="1052.3622"
             width="744.09448"
             xlink:href="#textext-915abdc2-5"
             x="242.41151"
             y="134.765"
             id="use32347"
             style="fill:#800000" />
        </g>
        <g
           style="fill:#800000;fill-opacity:1"
           id="g32349">
          <use
             height="1052.3622"
             width="744.09448"
             xlink:href="#textext-915abdc2-2"
             x="247.39101"
             y="134.765"
             id="use32351"
             style="fill:#800000" />
        </g>
        <g
           style="fill:#800000;fill-opacity:1"
           id="g32353">
          <use
             height="1052.3622"
             width="744.09448"
             xlink:href="#textext-915abdc2-6"
             x="250.158"
             y="134.765"
             id="use32355"
             style="fill:#800000" />
        </g>
      </g>
    </g>
    <g
       id="g32754"
       transform="matrix(2.6032628,0,0,2.6032628,-392.43013,-130.3601)"
       ns0:preamble=""
       ns0:text="$x\'=0.300001$"
       style="fill:#000080">
      <defs
         id="defs32756">
        <g
           id="g32758">
          <symbol
             id="textext-99039171-0"
             overflow="visible"
             style="overflow:visible">
            <path
               id="path32761"
               d=""
               style="stroke:none" />
          </symbol>
          <symbol
             id="textext-99039171-1"
             overflow="visible"
             style="overflow:visible">
            <path
               id="path32764"
               d="M 3.328125,-3.015625 C 3.390625,-3.265625 3.625,-4.1875 4.3125,-4.1875 c 0.046875,0 0.296875,0 0.5,0.125 C 4.53125,-4 4.34375,-3.765625 4.34375,-3.515625 c 0,0.15625 0.109375,0.34375 0.375,0.34375 0.21875,0 0.53125,-0.171875 0.53125,-0.578125 0,-0.515625 -0.578125,-0.65625 -0.921875,-0.65625 -0.578125,0 -0.921875,0.53125 -1.046875,0.75 -0.25,-0.65625 -0.78125,-0.75 -1.078125,-0.75 -1.03125,0 -1.609375,1.28125 -1.609375,1.53125 0,0.109375 0.109375,0.109375 0.125,0.109375 0.078125,0 0.109375,-0.03125 0.125,-0.109375 0.34375,-1.0625 1,-1.3125 1.34375,-1.3125 0.1875,0 0.53125,0.09375 0.53125,0.671875 0,0.3125 -0.171875,0.96875 -0.53125,2.375 -0.15625,0.609375 -0.515625,1.03125 -0.953125,1.03125 -0.0625,0 -0.28125,0 -0.5,-0.125 0.25,-0.0625 0.46875,-0.265625 0.46875,-0.546875 0,-0.265625 -0.21875,-0.34375 -0.359375,-0.34375 -0.3125,0 -0.546875,0.25 -0.546875,0.578125 0,0.453125 0.484375,0.65625 0.921875,0.65625 0.671875,0 1.03125,-0.703125 1.046875,-0.75 0.125,0.359375 0.484375,0.75 1.078125,0.75 1.03125,0 1.59375,-1.28125 1.59375,-1.53125 0,-0.109375 -0.078125,-0.109375 -0.109375,-0.109375 -0.09375,0 -0.109375,0.046875 -0.140625,0.109375 -0.328125,1.078125 -1,1.3125 -1.3125,1.3125 -0.390625,0 -0.546875,-0.3125 -0.546875,-0.65625 0,-0.21875 0.046875,-0.4375 0.15625,-0.875 l 0.34375,-1.375 z m 0,0"
               style="stroke:none" />
          </symbol>
          <symbol
             id="textext-99039171-2"
             overflow="visible"
             style="overflow:visible">
            <path
               id="path32767"
               d="m 1.90625,-0.53125 c 0,-0.28125 -0.234375,-0.53125 -0.515625,-0.53125 -0.296875,0 -0.53125,0.25 -0.53125,0.53125 C 0.859375,-0.234375 1.09375,0 1.390625,0 1.671875,0 1.90625,-0.234375 1.90625,-0.53125 z m 0,0"
               style="stroke:none" />
          </symbol>
          <symbol
             id="textext-99039171-3"
             overflow="visible"
             style="overflow:visible">
            <path
               id="path32770"
               d=""
               style="stroke:none" />
          </symbol>
          <symbol
             id="textext-99039171-4"
             overflow="visible"
             style="overflow:visible">
            <path
               id="path32773"
               d="m 2.015625,-3.296875 c 0.0625,-0.109375 0.0625,-0.171875 0.0625,-0.21875 0,-0.21875 -0.1875,-0.375 -0.40625,-0.375 -0.265625,0 -0.34375,0.21875 -0.375,0.328125 L 0.375,-0.546875 c -0.015625,0.015625 -0.046875,0.09375 -0.046875,0.109375 0,0.078125 0.21875,0.15625 0.28125,0.15625 0.046875,0 0.046875,-0.015625 0.09375,-0.125 l 1.3125,-2.890625 z m 0,0"
               style="stroke:none" />
          </symbol>
          <symbol
             id="textext-99039171-5"
             overflow="visible"
             style="overflow:visible">
            <path
               id="path32776"
               d=""
               style="stroke:none" />
          </symbol>
          <symbol
             id="textext-99039171-6"
             overflow="visible"
             style="overflow:visible">
            <path
               id="path32779"
               d="m 6.84375,-3.265625 c 0.15625,0 0.34375,0 0.34375,-0.1875 C 7.1875,-3.65625 7,-3.65625 6.859375,-3.65625 l -5.96875,0 c -0.140625,0 -0.328125,0 -0.328125,0.203125 0,0.1875 0.1875,0.1875 0.328125,0.1875 l 5.953125,0 z m 0.015625,1.9375 c 0.140625,0 0.328125,0 0.328125,-0.203125 0,-0.1875 -0.1875,-0.1875 -0.34375,-0.1875 l -5.953125,0 c -0.140625,0 -0.328125,0 -0.328125,0.1875 0,0.203125 0.1875,0.203125 0.328125,0.203125 l 5.96875,0 z m 0,0"
               style="stroke:none" />
          </symbol>
          <symbol
             id="textext-99039171-7"
             overflow="visible"
             style="overflow:visible">
            <path
               id="path32782"
               d="m 4.578125,-3.1875 c 0,-0.796875 -0.046875,-1.59375 -0.390625,-2.328125 -0.453125,-0.96875 -1.28125,-1.125 -1.6875,-1.125 -0.609375,0 -1.328125,0.265625 -1.75,1.1875 -0.3125,0.6875 -0.359375,1.46875 -0.359375,2.265625 0,0.75 0.03125,1.640625 0.453125,2.40625 0.421875,0.796875 1.15625,1 1.640625,1 0.53125,0 1.296875,-0.203125 1.734375,-1.15625 0.3125,-0.6875 0.359375,-1.46875 0.359375,-2.25 z M 2.484375,0 C 2.09375,0 1.5,-0.25 1.328125,-1.203125 1.21875,-1.796875 1.21875,-2.71875 1.21875,-3.3125 c 0,-0.640625 0,-1.296875 0.078125,-1.828125 0.1875,-1.1875 0.9375,-1.28125 1.1875,-1.28125 0.328125,0 0.984375,0.1875 1.171875,1.171875 0.109375,0.5625 0.109375,1.3125 0.109375,1.9375 0,0.75 0,1.421875 -0.109375,2.0625 C 3.5,-0.296875 2.9375,0 2.484375,0 z m 0,0"
               style="stroke:none" />
          </symbol>
          <symbol
             id="textext-99039171-8"
             overflow="visible"
             style="overflow:visible">
            <path
               id="path32785"
               d="m 2.890625,-3.515625 c 0.8125,-0.265625 1.390625,-0.953125 1.390625,-1.75 0,-0.8125 -0.875,-1.375 -1.828125,-1.375 -1,0 -1.765625,0.59375 -1.765625,1.359375 0,0.328125 0.21875,0.515625 0.515625,0.515625 0.296875,0 0.5,-0.21875 0.5,-0.515625 0,-0.484375 -0.46875,-0.484375 -0.609375,-0.484375 0.296875,-0.5 0.953125,-0.625 1.3125,-0.625 0.421875,0 0.96875,0.21875 0.96875,1.109375 0,0.125 -0.03125,0.703125 -0.28125,1.140625 C 2.796875,-3.65625 2.453125,-3.625 2.203125,-3.625 2.125,-3.609375 1.890625,-3.59375 1.8125,-3.59375 c -0.078125,0.015625 -0.140625,0.03125 -0.140625,0.125 0,0.109375 0.0625,0.109375 0.234375,0.109375 l 0.4375,0 c 0.8125,0 1.1875,0.671875 1.1875,1.65625 0,1.359375 -0.6875,1.640625 -1.125,1.640625 -0.4375,0 -1.1875,-0.171875 -1.53125,-0.75 0.34375,0.046875 0.65625,-0.171875 0.65625,-0.546875 0,-0.359375 -0.265625,-0.5625 -0.546875,-0.5625 -0.25,0 -0.5625,0.140625 -0.5625,0.578125 0,0.90625 0.921875,1.5625 2.015625,1.5625 1.21875,0 2.125,-0.90625 2.125,-1.921875 0,-0.8125 -0.640625,-1.59375 -1.671875,-1.8125 z m 0,0"
               style="stroke:none" />
          </symbol>
          <symbol
             id="textext-99039171-9"
             overflow="visible"
             style="overflow:visible">
            <path
               id="path32788"
               d="m 2.9375,-6.375 c 0,-0.25 0,-0.265625 -0.234375,-0.265625 C 2.078125,-6 1.203125,-6 0.890625,-6 l 0,0.3125 c 0.203125,0 0.78125,0 1.296875,-0.265625 l 0,5.171875 c 0,0.359375 -0.03125,0.46875 -0.921875,0.46875 l -0.3125,0 0,0.3125 c 0.34375,-0.03125 1.203125,-0.03125 1.609375,-0.03125 0.390625,0 1.265625,0 1.609375,0.03125 l 0,-0.3125 -0.3125,0 c -0.90625,0 -0.921875,-0.109375 -0.921875,-0.46875 l 0,-5.59375 z m 0,0"
               style="stroke:none" />
          </symbol>
        </g>
      </defs>
      <g
         id="textext-99039171-10"
         style="fill:#000080">
        <g
           id="g32791"
           style="fill:#000080;fill-opacity:1">
          <use
             id="use32793"
             y="134.765"
             x="223.43201"
             xlink:href="#textext-99039171-1"
             width="744.09448"
             height="1052.3622"
             style="fill:#000080" />
        </g>
        <g
           id="g32795"
           style="fill:#000080;fill-opacity:1">
          <use
             id="use32797"
             y="131.14999"
             x="229.12601"
             xlink:href="#textext-99039171-4"
             width="744.09448"
             height="1052.3622"
             style="fill:#000080" />
        </g>
        <g
           id="g32799"
           style="fill:#000080;fill-opacity:1">
          <use
             id="use32801"
             y="134.765"
             x="234.688"
             xlink:href="#textext-99039171-6"
             width="744.09448"
             height="1052.3622"
             style="fill:#000080" />
        </g>
        <g
           id="g32803"
           style="fill:#000080;fill-opacity:1">
          <use
             id="use32805"
             y="134.765"
             x="245.20651"
             xlink:href="#textext-99039171-7"
             width="744.09448"
             height="1052.3622"
             style="fill:#000080" />
        </g>
        <g
           id="g32807"
           style="fill:#000080;fill-opacity:1">
          <use
             id="use32809"
             y="134.765"
             x="250.186"
             xlink:href="#textext-99039171-2"
             width="744.09448"
             height="1052.3622"
             style="fill:#000080" />
        </g>
        <g
           id="g32811"
           style="fill:#000080;fill-opacity:1">
          <use
             id="use32813"
             y="134.765"
             x="252.953"
             xlink:href="#textext-99039171-8"
             width="744.09448"
             height="1052.3622"
             style="fill:#000080" />
          <use
             id="use32815"
             y="134.765"
             x="257.9343"
             xlink:href="#textext-99039171-7"
             width="744.09448"
             height="1052.3622"
             style="fill:#000080" />
          <use
             id="use32817"
             y="134.765"
             x="262.91559"
             xlink:href="#textext-99039171-7"
             width="744.09448"
             height="1052.3622"
             style="fill:#000080" />
          <use
             id="use32819"
             y="134.765"
             x="267.89691"
             xlink:href="#textext-99039171-7"
             width="744.09448"
             height="1052.3622"
             style="fill:#000080" />
          <use
             id="use32821"
             y="134.765"
             x="272.8782"
             xlink:href="#textext-99039171-7"
             width="744.09448"
             height="1052.3622"
             style="fill:#000080" />
          <use
             id="use32823"
             y="134.765"
             x="277.8595"
             xlink:href="#textext-99039171-9"
             width="744.09448"
             height="1052.3622"
             style="fill:#000080" />
        </g>
      </g>
    </g>
    <text
       xml:space="preserve"
       style="font-size:32.93927383px;font-style:normal;font-weight:normal;fill:#000000;fill-opacity:1;stroke:none;font-family:Bitstream Vera Sans"
       x="168.26924"
       y="223.69618"
       id="text34736"><tspan
         sodipodi:role="line"
         id="tspan34738"
         x="168.26924"
         y="223.69618">,</tspan></text>
  </g>
</svg>
